SplineFontDB: 3.2
FontName: Handy0-Regular
FullName: Handy0 Regular
FamilyName: Handy0
Weight: Book
Copyright: Copyright 2024 The Handy0 Project Authors (github.com/mitradranirban/handy0-fonts)
Version: 1.003
ItalicAngle: 0
UnderlinePosition: -255
UnderlineWidth: 102
Ascent: 1638
Descent: 410
InvalidEm: 0
sfntRevision: 0x000100c5
LayerCount: 2
Layer: 0 0 "Back" 1
Layer: 1 0 "Fore" 0
XUID: [1021 557 1747282856 1514932]
StyleMap: 0x0040
FSType: 0
OS2Version: 4
OS2_WeightWidthSlopeOnly: 0
OS2_UseTypoMetrics: 1
CreationTime: 1720421314
ModificationTime: 1721564462
PfmFamily: 65
TTFWeight: 400
TTFWidth: 5
LineGap: 0
VLineGap: 0
Panose: 0 0 0 0 0 0 0 0 0 0
OS2TypoAscent: 1216
OS2TypoAOffset: 0
OS2TypoDescent: -289
OS2TypoDOffset: 0
OS2TypoLinegap: 0
OS2WinAscent: 1216
OS2WinAOffset: 0
OS2WinDescent: 289
OS2WinDOffset: 0
HheadAscent: 1216
HheadAOffset: 0
HheadDescent: -289
HheadDOffset: 0
OS2SubXSize: 1331
OS2SubYSize: 1229
OS2SubXOff: 0
OS2SubYOff: 154
OS2SupXSize: 1331
OS2SupYSize: 1229
OS2SupXOff: 0
OS2SupYOff: 717
OS2StrikeYSize: 102
OS2StrikeYPos: 614
OS2CapHeight: 1022
OS2XHeight: 1024
OS2FamilyClass: 514
OS2Vendor: 'anir'
OS2CodePages: 00000003.00000000
OS2UnicodeRanges: e000006f.0000204a.00000008.00000000
Lookup: 1 0 0 "'smcp' Lowercase to Small Capitals in Latin lookup 1" { "'smcp' Lowercase to Small Capitals in Latin lookup 1-1"  } ['smcp' ('DFLT' <'dflt' > 'latn' <'dflt' > ) ]
Lookup: 4 0 0 "'liga' Standard Ligatures in Latin lookup 0" { "'liga' Standard Ligatures in Latin lookup 0-1"  } ['liga' ('DFLT' <'dflt' > 'latn' <'dflt' > ) ]
Lookup: 258 0 0 "'kern' Horizontal Kerning in Latin lookup 0" { "'kern' Horizontal Kerning in Latin lookup 0 subtable"  } ['kern' ('latn' <'dflt' > ) ]
MarkAttachClasses: 1
DEI: 91125
ShortTable: cvt  2
  136
  2594
EndShort
ShortTable: maxp 16
  1
  0
  422
  282
  4
  293
  5
  2
  0
  1
  1
  0
  64
  46
  2
  2
EndShort

StartChar: .notdef
Encoding: 65536 -1 0
Width: 748
Flags: HW
HStem: 0 68<136 544> 1297 68<136 544>
VStem: 68 68<68 1297> 544 68<68 1297>
LayerCount: 2
Fore
SplineSet
68 0 m 1
 68 1365 l 1
 612 1365 l 1
 612 0 l 1
 68 0 l 1
136 68 m 1
 544 68 l 1
 544 1297 l 1
 136 1297 l 1
 136 68 l 1
EndSplineSet
EndChar

StartChar: glyph1
Encoding: 0 -1 1
AltUni2: 000000.ffffffff.0
Width: 663
Flags: HW
HStem: 178 103<117 527> 1239 102<117 527>
VStem: 15 102<281 1239> 527 102<281 1239>
LayerCount: 2
Fore
SplineSet
15 1290 m 2
 15 1304 20 1316 30 1326 c 0
 40 1336 51 1341 66 1341 c 2
 578 1341 l 2
 592 1341 604 1336 614 1326 c 0
 624 1316 629 1304 629 1290 c 2
 629 229 l 2
 629 215 624 203 614 193 c 0
 604 183 592 178 578 178 c 2
 66 178 l 2
 51 178 40 183 30 193 c 0
 20 203 15 215 15 229 c 2
 15 1290 l 2
527 1239 m 1
 117 1239 l 1
 117 281 l 1
 527 281 l 1
 527 1239 l 1
EndSplineSet
EndChar

StartChar: exclam
Encoding: 33 33 4
Width: 822
Flags: HW
HStem: 76 180<469.881 563.141> 328 82<422.333 455.795>
VStem: 440 156<103.985 255.766> 440 140<209.515 255.766> 546 121<508.06 931.111>
LayerCount: 2
Fore
SplineSet
667 770 m 2xc8
 667 492 l 2
 668 474 665 457 658 442 c 0
 651 427 642 414 628 402 c 0
 614 390 600 379 586 371 c 0
 572 363 555 354 535 345 c 0
 508 333 487 327 472 327 c 0
 468 327 464 327 461 328 c 0
 442 328 429 331 422 338 c 0
 415 345 412 358 412 377 c 2
 412 410 l 1
 434 410 l 1
 435 412 437 417 442 426 c 0
 447 435 452 445 458 454 c 0
 464 463 470 471 476 477 c 0
 497 497 511 520 518 545 c 0
 521 558 526 573 530 589 c 0
 534 605 537 617 539 623 c 0
 541 629 542 637 544 647 c 0
 546 657 546 665 546 673 c 0
 546 681 545 690 543 700 c 1
 543 709 544 717 544 726 c 0
 544 765 539 804 530 841 c 0
 518 887 497 946 466 1019 c 0
 413 1144 387 1225 387 1262 c 1
 382 1281 387 1291 403 1291 c 0
 445 1291 479 1280 506 1257 c 0
 533 1234 557 1198 577 1147 c 0
 589 1118 598 1093 605 1072 c 0
 612 1051 618 1037 620 1029 c 0
 622 1021 626 1005 632 981 c 0
 638 957 642 939 645 926 c 1
 645 885 l 2
 645 876 649 856 656 826 c 0
 663 796 667 777 667 770 c 2xc8
513 76 m 1
 502 73 491 82 479 103 c 0
 467 124 457 146 450 170 c 0
 443 194 440 211 440 222 c 2
 440 254 l 2xe0
 440 262 443 264 449 261 c 0
 456 258 468 256 485 256 c 2
 580 256 l 1xd0
 581 252 583 246 588 238 c 0
 593 230 596 220 596 209 c 0xe0
 596 197 592 181 583 160 c 0
 574 139 564 120 550 102 c 0
 536 84 524 76 513 76 c 1
EndSplineSet
EndChar

StartChar: quotedbl
Encoding: 34 34 5
Width: 567
Flags: HW
HStem: 1311 153<135.564 199.137 331.565 396.138>
VStem: 127 142<1352.02 1435.11> 248 29<1200 1236.3 1237.7 1314.58> 323 153<1352.02 1434.22>
LayerCount: 2
Fore
SplineSet
396 1352 m 1x90
 399 1345 398 1340 392 1334 c 0
 386 1328 378 1323 368 1319 c 0
 358 1315 353 1312 352 1311 c 0
 349 1311 347 1312 344 1316 c 0
 341 1320 338 1325 336 1331 c 0
 334 1337 332 1343 330 1349 c 0
 328 1355 328 1360 326 1366 c 0
 324 1372 323 1376 323 1377 c 0
 316 1398 319 1417 331 1436 c 0
 343 1455 358 1464 376 1464 c 0
 394 1464 412 1455 430 1436 c 0
 448 1417 459 1398 463 1379 c 0
 470 1340 474 1313 476 1300 c 0
 478 1287 478 1271 478 1253 c 0
 478 1223 475 1203 470 1193 c 0
 465 1183 453 1179 434 1179 c 1
 448 1187 455 1202 453 1224 c 0
 451 1246 447 1269 439 1291 c 0
 431 1313 424 1327 418 1333 c 0
 417 1334 413 1337 407 1342 c 0
 401 1347 397 1351 396 1352 c 1x90
199 1352 m 1
 202 1345 200 1340 194 1334 c 0
 188 1328 181 1323 171 1319 c 0
 161 1315 156 1312 155 1311 c 0
 152 1311 150 1313 147 1317 c 0
 144 1321 142 1326 140 1332 c 0
 138 1338 136 1343 134 1349 c 0
 132 1355 132 1360 130 1366 c 0
 128 1372 127 1376 127 1377 c 0
 121 1397 123 1417 135 1436 c 0
 147 1455 161 1464 178 1464 c 0
 197 1464 218 1452 240 1430 c 0
 259 1410 270 1391 270 1372 c 0
 270 1369 269 1367 269 1364 c 0xd0
 270 1356 272 1343 274 1326 c 0
 276 1309 278 1293 280 1280 c 0
 282 1267 282 1252 282 1237 c 0
 282 1222 280 1209 277 1200 c 1
 248 1163 l 1xb0
 248 1171 249 1187 252 1210 c 0
 255 1233 254 1249 251 1258 c 0
 246 1282 241 1301 233 1316 c 0
 225 1331 214 1343 199 1352 c 1
EndSplineSet
EndChar

StartChar: numbersign
Encoding: 35 35 6
Width: 1410
Flags: HW
HStem: 403 56<711 1027> 676 58<716 999>
VStem: 646 65<246.803 381 480 644.896> 1028 64<246.803 397 459 667.439>
LayerCount: 2
Fore
SplineSet
1027 459 m 1
 1028 474 1028 490 1028 508 c 0
 1028 528 1027 549 1026 572 c 0
 1023 616 1020 651 1014 676 c 1
 711 676 l 1
 711 459 l 1
 1027 459 l 1
680 180 m 1
 679 163 672 145 661 129 c 0
 650 113 635 101 618 94 c 0
 601 87 583 88 563 98 c 1
 608 168 l 2
 636 211 650 282 650 381 c 1
 614 381 l 1
 540 364 471 320 406 248 c 1
 406 260 l 1
 438 346 l 1
 508 420 l 1
 639 480 l 1
 646 533 l 1
 646 564 643 602 636 647 c 1
 588 637 545 621 508 600 c 0
 471 579 437 552 406 518 c 1
 406 530 l 1
 438 616 l 1
 508 690 l 1
 615 739 l 1
 593 830 554 901 497 953 c 1
 592 913 l 1
 666 844 l 1
 716 734 l 1
 999 731 l 1
 975 827 934 901 877 953 c 1
 973 913 l 1
 1047 844 l 1
 1101 725 l 1
 1130 721 l 1
 1130 711 l 1
 1147 711 1161 709 1171 705 c 1
 1187 705 1206 697 1228 681 c 0
 1250 665 1262 650 1262 636 c 0
 1262 629 1261 618 1259 606 c 0
 1257 594 1255 588 1253 588 c 2
 1184 633 l 1
 1162 649 1131 661 1092 668 c 1
 1092 450 l 1
 1130 450 l 1
 1130 440 l 1
 1147 440 1161 438 1171 434 c 1
 1187 434 1206 426 1228 410 c 0
 1250 394 1262 379 1262 365 c 0
 1262 358 1261 348 1259 336 c 0
 1257 324 1255 317 1253 317 c 2
 1184 362 l 1
 1162 378 1131 390 1092 397 c 1
 1092 303 l 1
 1067 205 l 1
 1067 199 1065 191 1061 180 c 1
 1060 163 1053 145 1042 129 c 0
 1031 113 1017 101 1000 94 c 0
 983 87 964 88 944 98 c 1
 989 168 l 2
 1016 213 1030 291 1030 403 c 1
 710 403 l 1
 710 303 l 1
 686 205 l 1
 686 199 684 191 680 180 c 1
EndSplineSet
EndChar

StartChar: dollar
Encoding: 36 36 7
Width: 733
Flags: HW
HStem: 8 104<261.973 422.886> 1480 99<119.398 332.426>
VStem: -16 128<1168.22 1476.39> 210 125<510.596 794> 484 130<-39.4633 16.9662> 522 128<208.369 606.092>
LayerCount: 2
Fore
SplineSet
389 1538 m 1xf8
 395 1546 403 1559 414 1575 c 0
 425 1591 434 1604 441 1614 c 0
 448 1624 459 1633 471 1642 c 0
 483 1651 497 1656 511 1657 c 0
 527 1659 541 1655 554 1647 c 0
 567 1639 575 1628 578 1616 c 0
 581 1604 578 1591 568 1577 c 1
 535 1538 509 1503 490 1472 c 1
 511 1454 522 1437 522 1423 c 0
 522 1410 517 1399 508 1389 c 0
 499 1379 487 1373 474 1371 c 0
 461 1369 448 1370 434 1374 c 1
 369 1243 335 1105 332 959 c 1
 346 950 378 920 428 867 c 0
 478 814 509 780 520 764 c 0
 574 696 609 638 625 588 c 0
 641 538 650 468 650 377 c 2
 650 186 l 2
 650 182 650 183 650 180 c 0xf4
 650 133 640 99 620 77 c 1
 623 72 622 64 616 54 c 0
 610 44 608 39 608 39 c 0
 612 19 614 5 614 -2 c 0
 614 -12 607 -21 593 -30 c 0
 579 -39 566 -43 553 -43 c 0
 518 -43 495 -25 484 11 c 1
 484 17 l 1
 460 11 435 8 410 8 c 0
 408 8 408 8 406 8 c 0
 382 8 361 10 341 13 c 0
 320 16 298 22 274 31 c 0
 250 40 228 48 212 56 c 0
 196 64 175 75 152 89 c 0
 129 103 112 114 100 122 c 0
 88 130 71 141 50 156 c 0
 40 163 34 173 32 183 c 0
 30 193 31 203 36 212 c 0
 41 221 50 229 60 235 c 0
 70 241 81 244 93 244 c 0
 110 244 130 236 155 219 c 0
 157 218 161 215 166 212 c 0
 186 200 201 191 213 184 c 0
 225 177 241 168 263 156 c 0
 285 144 303 136 319 130 c 0
 335 124 352 119 371 115 c 0
 390 111 408 110 423 112 c 1
 414 132 400 162 382 200 c 0
 364 238 348 269 338 292 c 0
 328 315 315 346 300 382 c 0
 285 418 272 452 263 482 c 0
 254 512 245 546 236 584 c 0
 227 622 220 661 216 701 c 0
 212 741 210 784 210 827 c 0
 210 839 209 856 207 877 c 0
 205 898 204 913 204 922 c 1
 196 931 184 943 168 960 c 0
 152 977 140 990 132 999 c 0
 124 1008 114 1020 100 1036 c 0
 86 1052 76 1064 69 1075 c 0
 62 1086 53 1099 43 1115 c 0
 33 1131 25 1146 19 1160 c 0
 13 1174 8 1189 2 1207 c 0
 -4 1225 -8 1243 -11 1262 c 0
 -14 1281 -15 1301 -16 1322 c 0
 -16 1339 -16 1352 -16 1361 c 0
 -16 1370 -16 1383 -16 1400 c 0
 -16 1417 -16 1430 -16 1439 c 0
 -16 1525 25 1571 105 1579 c 1
 167 1579 l 1
 201 1578 241 1574 284 1566 c 0
 327 1558 362 1549 389 1538 c 1xf8
522 371 m 2
 521 376 519 400 515 442 c 0
 511 484 505 520 500 547 c 0
 495 574 488 592 480 601 c 1
 456 655 408 719 335 794 c 1
 335 788 335 788 335 782 c 0
 335 752 336 723 338 695 c 0
 341 663 346 633 353 603 c 0
 360 573 367 546 374 522 c 0
 381 498 391 472 404 442 c 0
 417 412 427 388 436 368 c 0
 445 348 458 322 474 288 c 0
 490 254 504 227 513 207 c 1
 519 236 522 278 522 334 c 2
 522 371 l 2
176 1480 m 1
 167 1480 148 1479 118 1477 c 1
 114 1470 112 1457 112 1439 c 2
 112 1322 l 2
 112 1246 146 1167 214 1084 c 1
 231 1209 271 1329 333 1445 c 1
 321 1451 293 1457 251 1465 c 0
 209 1473 184 1478 176 1480 c 1
EndSplineSet
EndChar

StartChar: percent
Encoding: 37 37 8
Width: 1400
Flags: HW
HStem: 1478 101<1252.88 1371.64>
VStem: 45 101<-22.6221 150.844> 438 181<181.375 331.586> 497 181<1342.57 1494.42>
LayerCount: 2
Fore
SplineSet
657 1362 m 0xd0
 642 1344 624 1334 603 1330 c 0
 582 1326 562 1330 544 1341 c 0
 526 1352 512 1367 504 1388 c 0
 500 1400 497 1412 497 1423 c 0
 497 1434 499 1444 503 1453 c 0
 507 1462 513 1471 520 1478 c 0
 527 1485 534 1491 543 1495 c 0
 552 1499 561 1504 571 1506 c 0
 581 1508 590 1508 600 1507 c 0
 610 1506 620 1503 629 1499 c 0
 638 1495 646 1488 654 1480 c 0
 662 1472 667 1462 672 1451 c 0
 676 1439 678 1428 678 1417 c 0
 678 1397 671 1379 657 1362 c 0xd0
613 288 m 0
 618 274 620 261 619 249 c 0
 618 237 615 226 610 216 c 0
 605 206 597 198 588 191 c 0
 579 184 570 178 560 174 c 0
 550 170 538 168 526 168 c 0
 514 168 504 170 494 174 c 0
 484 178 474 183 465 192 c 0
 456 201 449 211 444 224 c 0
 439 239 436 254 438 268 c 0xe0
 440 282 444 294 452 304 c 0
 460 314 469 323 480 330 c 0
 491 337 503 341 516 343 c 0
 529 345 542 344 554 342 c 0
 566 340 577 333 588 324 c 0
 599 315 607 303 613 288 c 0
146 7 m 0
 142 -10 132 -21 116 -27 c 0
 100 -33 83 -31 68 -23 c 0
 53 -15 46 -3 45 13 c 0
 45 20 46 27 47 34 c 0
 99 231 207 434 370 644 c 0
 381 658 400 688 426 733 c 0
 452 778 478 825 506 876 c 0
 534 927 551 959 558 970 c 0
 636 1100 719 1205 809 1286 c 0
 899 1367 1005 1435 1128 1490 c 0
 1138 1494 1149 1499 1162 1504 c 0
 1175 1509 1183 1513 1186 1514 c 0
 1189 1515 1195 1518 1202 1522 c 0
 1209 1526 1215 1530 1220 1534 c 0
 1225 1538 1234 1545 1245 1553 c 0
 1269 1570 1293 1579 1317 1579 c 0
 1331 1579 1344 1574 1355 1564 c 0
 1366 1554 1372 1542 1372 1529 c 0
 1372 1517 1368 1506 1359 1496 c 0
 1350 1486 1341 1479 1330 1478 c 0
 1322 1477 1306 1469 1284 1454 c 0
 1262 1439 1250 1431 1247 1430 c 0
 1141 1384 1077 1354 1053 1340 c 0
 1026 1324 1000 1308 975 1290 c 0
 950 1272 927 1254 906 1236 c 0
 885 1218 864 1199 843 1177 c 0
 822 1155 803 1135 786 1116 c 0
 769 1097 753 1074 734 1048 c 0
 715 1022 699 998 685 978 c 0
 671 958 655 932 637 902 c 0
 619 872 603 845 590 823 c 0
 577 801 561 772 542 738 c 0
 486 638 455 586 451 582 c 0
 291 390 189 199 146 7 c 0
EndSplineSet
EndChar

StartChar: ampersand
Encoding: 38 38 9
Width: 821
Flags: HW
HStem: 48 120<253.858 449.023> 1452 159<265.886 404.928>
VStem: 86 147<188.8 413.732 1045.41 1423.62> 436 113<945.516 1233.87> 459 228<388.234 460.81>
LayerCount: 2
Fore
SplineSet
369 168 m 0xe8
 391 168 412 178 433 196 c 0
 454 214 466 234 467 256 c 1
 467 345 l 2
 468 364 468 377 468 385 c 0
 468 393 465 406 463 426 c 0
 461 446 459 458 459 463 c 0
 458 468 457 471 457 474 c 0
 457 477 456 481 455 485 c 0
 454 489 453 493 452 496 c 0
 451 499 450 503 448 506 c 0
 446 509 444 511 442 513 c 0
 440 515 437 516 434 518 c 0
 431 520 428 520 424 520 c 0
 420 520 416 519 412 518 c 1
 364 518 l 1
 327 489 299 455 278 415 c 0
 257 375 246 335 243 293 c 1
 243 238 l 1
 255 191 297 168 369 168 c 0xe8
354 1452 m 1
 339 1453 326 1451 314 1447 c 0
 302 1443 292 1437 284 1430 c 0
 276 1423 269 1414 263 1402 c 0
 257 1390 253 1379 249 1368 c 0
 245 1357 242 1344 240 1328 c 0
 238 1312 236 1298 235 1286 c 0
 234 1274 234 1259 233 1242 c 2
 233 1153 l 2
 233 1115 236 1085 243 1062 c 1
 241 1055 246 1044 257 1029 c 0
 268 1014 281 999 295 984 c 0
 309 969 321 954 332 938 c 0
 343 922 347 910 344 903 c 1
 344 892 l 1
 360 879 372 878 381 889 c 0
 386 895 394 913 406 943 c 0
 406 944 407 944 407 945 c 0
 411 956 416 967 420 977 c 0
 424 987 427 995 428 997 c 0
 429 999 431 1004 433 1010 c 0
 435 1016 436 1021 436 1025 c 0xf0
 436 1029 437 1037 438 1049 c 0
 439 1062 442 1091 448 1134 c 0
 454 1177 458 1211 458 1235 c 0
 458 1285 449 1329 430 1367 c 0
 411 1405 386 1434 354 1452 c 1
687 440 m 0xe8
 687 430 685 423 681 417 c 0
 677 411 672 406 665 402 c 0
 658 398 654 393 651 388 c 1
 686 334 716 283 742 235 c 1
 762 229 772 217 772 198 c 0
 772 177 765 161 753 152 c 0
 741 143 727 141 713 145 c 0
 699 149 689 158 683 170 c 0
 666 204 642 246 611 296 c 1
 603 271 594 248 583 229 c 0
 572 210 563 195 554 185 c 0
 545 175 532 162 517 146 c 0
 502 130 489 115 479 102 c 0
 451 66 403 48 335 48 c 0
 321 48 307 50 293 55 c 0
 279 60 268 64 260 68 c 0
 252 72 240 79 222 91 c 0
 204 103 193 109 188 112 c 0
 153 133 127 158 108 186 c 0
 89 214 80 252 80 300 c 1
 86 329 96 360 110 390 c 0
 124 420 142 449 162 479 c 0
 182 509 202 535 220 557 c 0
 238 579 259 605 283 634 c 0
 307 663 324 684 335 698 c 1
 253 824 195 918 161 981 c 0
 130 1039 109 1095 100 1149 c 0
 91 1203 86 1280 86 1379 c 0
 86 1470 103 1535 136 1574 c 0
 157 1599 183 1611 214 1611 c 2
 265 1611 l 2
 339 1611 395 1589 432 1545 c 0
 464 1507 487 1455 503 1391 c 0
 519 1327 532 1239 544 1128 c 0
 547 1095 549 1063 549 1034 c 0xf0
 549 984 544 940 534 899 c 0
 518 835 487 767 439 695 c 1
 601 461 l 1
 618 480 633 490 645 490 c 0
 658 490 668 485 676 476 c 0
 684 467 687 455 687 440 c 0xe8
EndSplineSet
EndChar

StartChar: quotesingle
Encoding: 39 39 10
Width: 362
Flags: HW
HStem: 1176 3<1358.47 1375.76>
VStem: 1265 151<1352.02 1435.85>
LayerCount: 2
Fore
SplineSet
356 1364 m 0
 356 1359 359 1340 365 1306 c 0
 369 1284 370 1266 370 1254 c 0
 370 1247 369 1241 368 1237 c 1
 368 1227 368 1218 367 1212 c 0
 366 1206 364 1199 361 1193 c 0
 358 1187 355 1182 349 1180 c 0
 343 1178 346 1164 336 1166 c 1
 350 1174 345 1202 343 1224 c 0
 341 1246 337 1269 329 1291 c 0
 321 1313 314 1327 308 1333 c 0
 307 1334 303 1337 297 1342 c 0
 291 1347 287 1351 286 1352 c 1
 289 1345 287 1340 281 1334 c 0
 275 1328 268 1323 258 1319 c 0
 248 1315 243 1312 242 1311 c 0
 239 1311 237 1313 234 1317 c 0
 231 1321 229 1326 227 1332 c 0
 225 1338 223 1343 221 1349 c 0
 219 1355 219 1360 217 1366 c 0
 215 1372 214 1376 214 1377 c 0
 207 1398 210 1417 221 1434 c 0
 230 1448 241 1457 253 1461 c 0
 265 1465 277 1464 289 1458 c 0
 301 1452 312 1444 322 1434 c 0
 332 1424 341 1412 347 1399 c 0
 353 1386 356 1375 356 1364 c 0
EndSplineSet
EndChar

StartChar: parenleft
Encoding: 40 40 11
Width: 1097
Flags: HW
VStem: 466 112<388.188 1150.97> 492 102<1038.38 1209.2> 508 98<68.1699 790.179> 692 99<-479.431 -411.095> 692 79<-436.858 -328.723>
LayerCount: 2
Fore
SplineSet
596 1210 m 1x40
 600 1193 602 1174 602 1152 c 0
 602 1130 599 1112 594 1099 c 0
 594 1096 594 1096 594 1093 c 0x40
 594 1075 591 1053 586 1025 c 0
 580 994 578 970 578 954 c 2
 578 823 l 1x80
 597 642 606 481 606 340 c 2
 606 296 l 1
 634 147 656 38 673 -31 c 0
 690 -100 722 -214 771 -372 c 1
 771 -411 l 2x28
 772 -413 776 -417 782 -423 c 0
 788 -429 791 -434 791 -437 c 0
 791 -449 785 -460 773 -468 c 0
 761 -476 747 -481 732 -481 c 0
 712 -481 699 -470 692 -449 c 1x10
 692 -408 l 2
 691 -407 688 -401 683 -392 c 0
 678 -383 670 -367 660 -343 c 0
 650 -319 641 -293 632 -265 c 0
 626 -246 620 -226 614 -206 c 0
 608 -186 604 -167 600 -152 c 0
 596 -137 590 -119 585 -96 c 0
 580 -73 576 -55 573 -44 c 0
 570 -33 566 -14 561 12 c 0
 556 38 552 54 550 62 c 0
 548 70 545 90 539 120 c 0
 533 150 531 167 530 172 c 0
 529 177 524 197 518 232 c 0
 512 267 509 287 508 291 c 2
 508 340 l 2
 508 343 508 347 508 352 c 0x28
 508 389 501 471 488 598 c 0
 473 742 466 822 466 839 c 2
 466 1038 l 1x80
 468 1046 472 1056 480 1068 c 0
 488 1080 492 1090 492 1098 c 2
 492 1192 l 2
 492 1220 496 1247 504 1273 c 0
 512 1299 521 1325 531 1351 c 0
 541 1377 548 1400 552 1420 c 0
 553 1427 556 1440 560 1457 c 0
 564 1474 568 1488 569 1498 c 1
 569 1525 l 1
 574 1561 590 1608 616 1664 c 0
 620 1673 627 1680 636 1684 c 0
 645 1688 654 1690 664 1689 c 0
 674 1688 683 1686 691 1682 c 0
 699 1678 706 1672 710 1664 c 0
 714 1656 716 1647 713 1638 c 2
 596 1210 l 1x40
EndSplineSet
EndChar

StartChar: parenright
Encoding: 41 41 12
Width: 1097
Flags: HW
VStem: 466 99<1619.1 1688.42> 485 80<1531.1 1645.81> 646 119<31.152 169.624> 650 99<9.60211 19.316 427.748 1139.76> 679 112<12.5469 819.707>
LayerCount: 2
Fore
SplineSet
650 912 m 1x10
 645 939 637 980 626 1036 c 0
 615 1092 608 1128 604 1144 c 0
 600 1160 594 1190 585 1230 c 0
 576 1270 568 1303 560 1330 c 0
 552 1357 543 1392 530 1435 c 0
 517 1478 502 1526 485 1580 c 1
 485 1619 l 2x50
 484 1621 481 1625 475 1631 c 0
 469 1637 466 1642 466 1646 c 0
 466 1658 472 1669 484 1677 c 0
 496 1685 510 1690 525 1690 c 0
 544 1690 557 1679 565 1657 c 1x80
 565 1616 l 2
 566 1615 569 1610 574 1600 c 0
 579 1590 587 1574 597 1550 c 0
 607 1526 616 1501 625 1473 c 0
 631 1454 636 1434 642 1414 c 0
 648 1394 654 1377 658 1361 c 0
 662 1345 667 1326 672 1304 c 0
 677 1282 681 1264 684 1252 c 0
 687 1240 691 1223 696 1197 c 0
 701 1171 705 1154 707 1146 c 0
 709 1138 712 1119 718 1089 c 0
 724 1059 727 1042 728 1036 c 0
 729 1030 732 1010 738 976 c 0
 744 942 748 923 749 918 c 2
 749 868 l 2
 749 864 749 864 749 860 c 0x50
 749 826 756 743 769 612 c 0
 784 468 791 387 791 369 c 2
 791 170 l 1x08
 789 162 784 152 776 140 c 0
 768 128 765 119 765 111 c 2
 765 16 l 2
 765 -6 763 -27 757 -49 c 0
 751 -71 745 -89 738 -104 c 0
 731 -119 724 -136 718 -156 c 0
 712 -176 708 -194 706 -211 c 0
 705 -215 703 -225 698 -240 c 0
 693 -255 691 -265 691 -270 c 2
 691 -338 l 2
 691 -348 688 -360 682 -374 c 0
 676 -388 667 -404 658 -420 c 0
 649 -436 643 -447 641 -453 c 0
 634 -468 623 -477 607 -480 c 0
 591 -483 575 -479 562 -469 c 0
 549 -459 543 -446 544 -430 c 1
 664 11 l 1
 646 110 l 2
 646 112 646 113 646 116 c 0x20
 646 133 652 156 662 184 c 0
 674 216 679 239 679 254 c 2
 679 385 l 1x08
 674 439 668 522 661 634 c 0
 654 746 650 824 650 868 c 2
 650 912 l 1x10
EndSplineSet
EndChar

StartChar: asterisk
Encoding: 42 42 13
Width: 860
Flags: HW
HStem: 754 104<66.4702 253 573 805.53>
VStem: 122 146<962.002 1048.9> 346 103<910.902 1117.43> 391 93<536.142 673>
LayerCount: 2
Fore
SplineSet
171 1079 m 1xd0
 181 1082 195 1075 214 1058 c 0
 233 1041 251 1020 268 998 c 0
 285 976 302 955 319 936 c 0
 336 917 348 908 354 908 c 1
 349 970 346 1026 346 1076 c 0
 346 1080 346 1081 346 1085 c 0
 346 1100 351 1112 361 1122 c 0
 371 1132 383 1137 398 1137 c 0
 414 1136 427 1130 436 1118 c 0
 445 1106 449 1089 449 1069 c 0xe0
 449 1013 452 955 458 895 c 1
 528 941 577 998 605 1066 c 0
 610 1079 619 1088 631 1092 c 0
 643 1096 655 1096 667 1092 c 0
 679 1088 689 1083 698 1073 c 0
 707 1063 711 1053 711 1041 c 0
 711 1019 702 1004 684 995 c 1
 657 943 620 897 573 855 c 1
 677 853 743 851 772 850 c 0
 785 850 796 844 806 834 c 0
 816 824 821 812 821 799 c 0
 821 785 816 773 806 763 c 0
 796 753 784 748 770 748 c 0
 660 751 587 752 550 752 c 1
 605 695 647 653 675 626 c 0
 684 618 689 608 690 597 c 0
 691 586 689 577 683 568 c 0
 677 559 670 552 662 546 c 0
 654 540 645 537 634 538 c 0
 623 539 613 544 604 553 c 0
 581 577 541 617 484 673 c 1
 484 549 l 2
 484 515 472 498 448 498 c 0
 442 498 437 499 432 500 c 0
 427 501 424 502 420 505 c 0
 416 508 413 511 411 513 c 0
 409 515 406 519 404 524 c 0
 402 529 400 533 399 536 c 0
 398 539 397 544 396 551 c 0
 395 558 394 563 394 566 c 0
 394 569 393 574 392 582 c 0
 391 590 391 596 391 599 c 0
 389 611 388 632 386 662 c 0
 384 692 384 708 384 710 c 1
 184 536 l 1
 171 536 156 546 139 564 c 0
 122 582 114 598 114 612 c 1
 270 747 l 1
 102 754 l 2
 88 754 76 759 66 770 c 0
 56 781 51 793 51 807 c 0
 51 821 56 833 66 843 c 0
 76 853 88 858 102 858 c 2
 253 858 l 1
 247 864 230 885 200 922 c 0
 170 959 151 981 142 988 c 0
 130 998 123 1010 122 1024 c 0
 121 1038 125 1051 135 1062 c 0
 145 1073 156 1079 171 1079 c 1xd0
EndSplineSet
EndChar

StartChar: plus
Encoding: 43 43 14
Width: 851
Flags: HW
HStem: 630 21G<79 124.938 693.5 703.5> 714 102<165.406 326 439 532.823>
VStem: 326 85<817 1039.51> 340 99<486 714>
LayerCount: 2
Fore
SplineSet
752 686 m 0xe0
 751 660 741 642 722 634 c 0
 715 631 707 630 700 630 c 0
 687 630 673 634 659 644 c 0
 654 647 646 651 635 657 c 0
 624 663 609 670 589 680 c 0
 569 690 550 700 534 708 c 1
 509 711 477 713 439 714 c 1
 439 566 l 2
 439 488 430 440 413 423 c 2
 372 382 l 2
 358 367 342 363 323 369 c 0
 304 375 292 387 287 404 c 0
 282 421 286 438 300 454 c 1
 340 486 l 1
 340 714 l 1xd0
 318 713 302 712 293 712 c 0
 284 712 272 709 256 706 c 0
 240 703 226 699 215 694 c 2
 84 630 l 1
 74 630 64 636 56 644 c 0
 48 652 41 662 38 673 c 0
 35 684 36 696 40 708 c 0
 44 720 52 728 64 734 c 2
 174 788 l 1
 232 804 283 813 326 816 c 1
 326 922 l 1
 319 948 311 972 302 996 c 0
 293 1020 285 1036 280 1048 c 0
 275 1060 272 1067 272 1069 c 0
 272 1081 278 1092 290 1100 c 0
 302 1108 316 1112 332 1112 c 0
 339 1112 344 1110 349 1108 c 0
 354 1106 358 1103 361 1100 c 0
 364 1097 367 1091 370 1084 c 0
 373 1077 374 1071 376 1066 c 0
 378 1061 380 1054 382 1044 c 0
 384 1034 386 1027 388 1021 c 0
 392 1009 396 996 402 982 c 0
 408 968 411 960 411 959 c 2
 411 817 l 1
 504 815 558 810 572 803 c 0
 664 756 711 733 712 732 c 0
 739 719 752 704 752 686 c 0xe0
EndSplineSet
EndChar

StartChar: comma
Encoding: 44 44 15
Width: 2048
Flags: HW
HStem: 535 149<956 974.719 976.124 1137.34>
VStem: 846 110<473 534.859> 1170 94<65.2365 517.574>
LayerCount: 2
Fore
SplineSet
999 473 m 1
 997 467 995 461 993 455 c 0
 991 449 988 442 984 435 c 0
 980 428 975 422 970 418 c 0
 965 414 960 411 953 409 c 0
 946 407 939 408 932 412 c 1
 911 412 894 422 880 442 c 0
 866 462 856 484 852 508 c 0
 848 526 846 543 846 560 c 0
 846 571 847 583 849 593 c 0
 854 619 866 640 887 657 c 0
 908 675 931 684 957 684 c 0
 963 684 969 683 975 682 c 1
 999 687 1021 690 1042 690 c 0
 1083 690 1121 680 1154 662 c 0
 1204 634 1237 593 1255 539 c 0
 1261 519 1264 498 1264 476 c 0
 1264 457 1262 438 1257 418 c 1
 1257 401 1258 375 1260 342 c 0
 1262 309 1263 282 1263 261 c 0
 1263 258 1263 258 1263 254 c 0
 1263 235 1262 213 1261 188 c 0
 1260 160 1256 135 1250 111 c 0
 1244 87 1236 64 1226 42 c 0
 1194 -26 1139 -72 1061 -98 c 0
 1060 -99 1045 -107 1017 -121 c 0
 989 -135 962 -149 935 -163 c 0
 908 -177 893 -183 890 -183 c 0
 889 -183 l 0
 887 -183 886 -182 886 -180 c 0
 886 -171 912 -143 965 -96 c 0
 971 -91 977 -86 984 -80 c 0
 1030 -39 1061 -11 1075 4 c 0
 1089 19 1109 42 1132 74 c 0
 1163 117 1179 167 1179 226 c 0
 1179 239 1176 260 1172 289 c 0
 1169 309 1168 328 1168 345 c 0
 1168 353 1168 361 1169 368 c 0
 1170 380 1170 392 1170 404 c 0
 1170 428 1168 451 1164 474 c 0
 1161 494 1152 509 1138 518 c 0
 1124 527 1105 533 1079 535 c 1
 1006 535 l 2
 973 535 956 523 956 498 c 2
 956 473 l 1
 999 473 l 1
EndSplineSet
EndChar

StartChar: hyphen
Encoding: 45 45 16
Width: 851
Flags: HW
HStem: 637 103<132.126 548.719>
VStem: 98 624
LayerCount: 2
Fore
SplineSet
389 637 m 0
 378 637 366 637 354 636 c 0
 342 635 329 634 315 632 c 0
 301 630 289 628 280 627 c 0
 271 626 259 623 242 620 c 0
 225 617 213 615 208 614 c 0
 203 613 192 610 172 606 c 0
 152 602 143 600 142 600 c 0
 132 600 122 605 112 616 c 0
 102 627 98 638 98 649 c 0
 98 660 100 669 103 676 c 0
 106 683 112 690 120 694 c 0
 128 698 134 702 140 704 c 0
 146 706 155 708 168 711 c 0
 247 730 317 740 378 740 c 0
 431 740 468 738 488 733 c 1
 702 636 l 2
 712 631 718 623 722 611 c 0
 726 599 727 588 724 577 c 0
 721 566 715 556 707 548 c 0
 699 540 689 536 678 536 c 1
 472 627 l 1
 447 634 419 637 389 637 c 0
EndSplineSet
EndChar

StartChar: period
Encoding: 46 46 17
Width: 274
Flags: HW
HStem: 68 176<52.459 210.054>
VStem: 47 169
LayerCount: 2
Fore
SplineSet
47 124 m 0
 42 139 40 152 41 164 c 0
 42 176 46 187 51 197 c 0
 56 207 63 215 72 222 c 0
 81 229 91 234 101 238 c 0
 111 242 122 244 134 244 c 0
 146 244 156 243 166 239 c 0
 176 235 186 229 195 220 c 0
 204 211 211 201 216 188 c 0
 223 168 224 151 220 136 c 0
 216 121 209 109 199 98 c 0
 189 87 177 78 162 74 c 0
 147 70 132 67 118 68 c 0
 104 69 90 74 77 84 c 0
 64 94 54 107 47 124 c 0
EndSplineSet
EndChar

StartChar: slash
Encoding: 47 47 18
Width: 1400
Flags: HW
HStem: 1478 101<1252.88 1371.64>
VStem: 45 101<-22.6221 150.844>
LayerCount: 2
Fore
SplineSet
146 7 m 0
 142 -10 132 -21 116 -27 c 0
 100 -33 83 -31 68 -23 c 0
 53 -15 46 -3 45 13 c 0
 45 20 46 27 47 34 c 0
 99 231 207 434 370 644 c 0
 381 658 400 688 426 733 c 0
 452 778 478 825 506 876 c 0
 534 927 551 959 558 970 c 0
 636 1100 719 1205 809 1286 c 0
 899 1367 1005 1435 1128 1490 c 0
 1138 1494 1149 1499 1162 1504 c 0
 1175 1509 1183 1513 1186 1514 c 0
 1189 1515 1195 1518 1202 1522 c 0
 1209 1526 1215 1530 1220 1534 c 0
 1225 1538 1234 1545 1245 1553 c 0
 1269 1570 1293 1579 1317 1579 c 0
 1331 1579 1344 1574 1355 1564 c 0
 1366 1554 1372 1542 1372 1529 c 0
 1372 1517 1368 1506 1359 1496 c 0
 1350 1486 1341 1479 1330 1478 c 0
 1322 1477 1306 1469 1284 1454 c 0
 1262 1439 1250 1431 1247 1430 c 0
 1141 1384 1077 1354 1053 1340 c 0
 1026 1324 1000 1308 975 1290 c 0
 950 1272 927 1254 906 1236 c 0
 885 1218 864 1199 843 1177 c 0
 822 1155 803 1135 786 1116 c 0
 769 1097 753 1074 734 1048 c 0
 715 1022 699 998 685 978 c 0
 671 958 655 932 637 902 c 0
 619 872 603 845 590 823 c 0
 577 801 561 772 542 738 c 0
 486 638 455 586 451 582 c 0
 291 390 189 199 146 7 c 0
EndSplineSet
EndChar

StartChar: zero
Encoding: 48 48 19
Width: 630
Flags: HW
HStem: 20 94<238.227 385.841>
VStem: 25 97<313.723 1358.63> 433 92<490.797 1042.12> 475 93<239.473 841.652>
LayerCount: 2
Fore
SplineSet
475 489 m 0xd0
 475 527 468 587 454 669 c 0
 440 751 433 806 433 832 c 1xe0
 425 857 419 884 413 914 c 0
 407 944 401 982 394 1029 c 0
 387 1076 383 1107 381 1122 c 0
 378 1142 376 1166 374 1193 c 0
 372 1220 371 1243 370 1262 c 0
 369 1281 367 1302 362 1325 c 0
 357 1348 351 1369 342 1388 c 0
 330 1414 322 1442 319 1473 c 1
 308 1484 296 1493 282 1499 c 1
 278 1498 269 1491 255 1478 c 0
 241 1465 230 1455 224 1449 c 0
 201 1430 178 1392 156 1334 c 0
 134 1276 122 1226 122 1183 c 2
 122 736 l 2
 122 713 122 691 122 670 c 0
 122 599 123 544 127 506 c 0
 132 457 143 398 161 329 c 0
 162 325 164 320 166 312 c 0
 172 289 171 289 174 277 c 0
 176 269 180 259 184 246 c 0
 188 233 192 222 196 215 c 0
 200 208 205 199 211 189 c 0
 217 179 223 170 230 164 c 0
 237 158 246 150 256 143 c 0
 266 136 277 130 289 124 c 0
 296 121 302 119 308 117 c 0
 314 115 319 113 323 112 c 0
 327 111 332 111 336 112 c 0
 340 113 343 114 346 114 c 0
 349 114 352 116 356 119 c 0
 360 122 363 125 365 127 c 0
 367 129 370 132 374 138 c 0
 378 144 380 149 382 152 c 0
 384 155 388 160 393 168 c 0
 398 176 401 182 404 187 c 0
 451 263 475 364 475 489 c 0xd0
525 830 m 0
 526 820 533 771 547 681 c 0
 561 591 568 526 568 485 c 0xd0
 568 398 555 317 530 242 c 0
 505 167 469 103 421 51 c 0
 403 32 376 21 339 20 c 0
 335 20 336 20 332 20 c 0
 298 20 268 28 242 45 c 0
 161 97 112 160 96 235 c 0
 96 236 91 248 83 270 c 0
 75 292 70 309 69 321 c 0
 68 323 65 329 60 337 c 0
 55 345 50 354 45 363 c 0
 40 372 35 384 31 399 c 0
 27 414 25 430 25 446 c 2
 25 1183 l 2
 25 1230 39 1290 69 1362 c 0
 99 1434 130 1487 163 1518 c 0
 165 1520 170 1524 178 1532 c 0
 186 1540 192 1545 195 1548 c 0
 198 1551 203 1556 210 1562 c 0
 217 1568 224 1573 229 1575 c 0
 234 1577 239 1580 246 1584 c 0
 253 1588 260 1591 267 1592 c 0
 274 1593 281 1594 288 1594 c 0
 294 1594 299 1593 305 1592 c 0
 311 1591 314 1589 318 1588 c 0
 322 1587 327 1585 332 1581 c 0
 337 1577 341 1574 343 1572 c 0
 345 1570 348 1567 354 1562 c 0
 360 1557 363 1555 364 1554 c 0
 397 1525 414 1492 415 1456 c 1
 447 1377 463 1300 463 1224 c 0
 463 1137 478 1034 508 915 c 0
 519 874 525 845 525 830 c 0
EndSplineSet
EndChar

StartChar: one
Encoding: 49 49 20
Width: 937
Flags: HW
HStem: 1538 103<415.364 614.3>
VStem: 684 98<473 1257.17>
LayerCount: 2
Fore
SplineSet
575 -3 m 1
 567 -12 557 -17 544 -18 c 0
 531 -19 519 -15 510 -7 c 0
 501 1 497 13 500 28 c 1
 684 473 l 1
 684 1353 l 2
 684 1359 679 1371 668 1389 c 0
 657 1407 652 1420 651 1427 c 1
 647 1438 644 1450 643 1463 c 1
 637 1468 630 1476 621 1486 c 0
 612 1496 604 1505 598 1512 c 0
 592 1519 583 1525 572 1531 c 0
 561 1537 550 1539 537 1539 c 1
 537 1538 l 1
 506 1538 l 2
 492 1539 475 1533 456 1521 c 0
 437 1509 418 1496 400 1482 c 0
 382 1468 369 1460 362 1457 c 0
 358 1454 354 1452 350 1448 c 0
 346 1444 343 1441 341 1439 c 0
 339 1437 336 1434 332 1429 c 0
 328 1424 325 1421 324 1420 c 2
 294 1387 l 2
 289 1382 278 1368 259 1344 c 0
 240 1320 229 1305 224 1300 c 1
 197 1254 167 1231 133 1231 c 0
 119 1231 105 1236 93 1246 c 0
 81 1256 74 1269 74 1282 c 0
 74 1296 79 1307 88 1317 c 0
 97 1327 109 1332 122 1333 c 1
 131 1345 140 1358 152 1373 c 0
 164 1388 177 1405 192 1423 c 0
 207 1441 218 1455 225 1464 c 2
 255 1497 l 2
 271 1514 285 1527 296 1536 c 0
 307 1545 321 1554 337 1565 c 0
 353 1576 370 1588 387 1601 c 0
 421 1628 461 1641 507 1641 c 2
 537 1641 l 2
 599 1640 646 1618 678 1576 c 0
 684 1567 697 1554 715 1537 c 1
 782 1181 l 1
 782 443 l 1
 612 28 l 1
 575 -3 l 1
EndSplineSet
EndChar

StartChar: two
Encoding: 50 50 21
Width: 835
Flags: HW
HStem: 68 94<372.432 591> 1544 102<289.922 568.453>
VStem: 197 102<190.842 461.06> 636 101<1100.96 1474> 662 108<205 287.483>
LayerCount: 2
Fore
SplineSet
636 1327 m 2xf0
 636 1390 619 1441 586 1482 c 0
 553 1523 509 1544 454 1544 c 2
 397 1544 l 2
 364 1544 333 1533 304 1511 c 0
 275 1489 252 1463 237 1432 c 1
 237 1417 233 1404 223 1394 c 0
 213 1384 201 1378 187 1378 c 0
 169 1378 154 1386 142 1401 c 0
 130 1416 127 1433 135 1452 c 0
 145 1477 159 1502 175 1524 c 0
 191 1546 210 1567 232 1585 c 0
 254 1603 278 1619 307 1630 c 0
 336 1641 366 1646 397 1646 c 2
 453 1646 l 2
 509 1646 559 1632 602 1604 c 0
 645 1576 679 1538 702 1490 c 0
 725 1442 736 1387 737 1327 c 2
 737 1252 l 2xf0
 738 1243 738 1233 738 1224 c 0
 738 1207 736 1190 732 1174 c 0
 726 1150 716 1124 702 1094 c 0
 688 1064 678 1043 674 1031 c 0
 661 993 639 946 608 892 c 0
 577 838 547 789 516 743 c 0
 485 697 453 649 420 598 c 0
 387 547 364 505 350 475 c 0
 316 403 299 329 299 253 c 0
 299 247 299 246 299 240 c 1
 304 224 314 208 329 190 c 1
 418 162 l 1
 591 162 l 1
 662 205 l 1
 662 260 l 2
 663 272 670 283 682 292 c 0
 694 301 706 305 720 305 c 0
 734 305 746 299 756 288 c 0
 766 277 770 264 770 248 c 2
 770 175 l 2xe8
 769 166 763 155 750 143 c 0
 737 131 726 123 717 118 c 2
 627 68 l 1
 397 68 l 1
 299 92 l 1
 274 96 250 116 228 151 c 0
 207 185 197 216 197 246 c 0
 197 249 197 250 197 252 c 0
 198 283 202 313 207 342 c 0
 212 371 218 399 224 423 c 0
 230 447 239 472 251 499 c 0
 263 526 273 549 283 569 c 0
 293 589 307 611 323 638 c 0
 339 665 353 687 365 705 c 0
 377 723 392 747 412 776 c 0
 425 795 435 809 442 819 c 0
 457 841 471 863 484 884 c 0
 497 905 507 923 515 937 c 0
 523 951 532 969 543 992 c 0
 554 1015 561 1031 565 1039 c 0
 569 1047 577 1066 589 1095 c 0
 601 1124 609 1143 613 1151 c 0
 622 1173 628 1191 631 1204 c 0
 634 1217 636 1232 636 1249 c 2
 636 1327 l 2xf0
EndSplineSet
EndChar

StartChar: three
Encoding: 51 51 22
Width: 901
Flags: HW
HStem: -6 118<333 707.474> 1461 104<176.781 270.851> 1509 104<353.253 557.286>
VStem: 377 110<629.075 872.701> 694 101<1034.23 1391.59> 712 102<121.687 384.244>
LayerCount: 2
Fore
SplineSet
684 1286 m 1xb8
 686 1306 685 1324 680 1341 c 0
 675 1358 666 1372 656 1384 c 0
 646 1396 634 1407 620 1419 c 0
 606 1431 593 1441 580 1449 c 0
 567 1457 553 1467 539 1478 c 0
 525 1489 515 1499 507 1509 c 1
 410 1509 l 1xb8
 220 1461 l 1
 210 1461 200 1467 190 1479 c 0
 180 1491 176 1503 176 1514 c 0
 176 1541 189 1558 215 1565 c 2xd8
 402 1613 l 1
 530 1612 l 2
 547 1612 562 1604 574 1589 c 0
 581 1580 605 1559 646 1527 c 0
 687 1495 711 1476 716 1471 c 0
 759 1428 782 1369 786 1293 c 0
 787 1279 787 1266 788 1253 c 0
 789 1240 790 1229 791 1221 c 0
 792 1213 792 1205 793 1199 c 0
 794 1193 794 1188 794 1185 c 2
 795 1180 l 1
 795 1157 l 2
 796 1149 796 1140 796 1132 c 0
 796 1106 792 1082 784 1059 c 0
 774 1028 758 1002 738 980 c 0
 718 958 696 939 671 924 c 0
 646 909 619 897 591 889 c 0
 585 887 578 885 568 883 c 0
 558 881 552 879 548 878 c 0
 544 877 538 875 532 873 c 0
 526 871 521 870 519 869 c 0
 517 868 514 866 510 864 c 0
 506 862 502 861 500 859 c 0
 498 857 496 855 494 853 c 0
 492 851 489 848 487 845 c 1
 487 696 l 1
 485 690 484 686 484 683 c 0
 484 680 486 676 488 668 c 0
 490 660 492 654 493 649 c 1
 521 636 539 626 547 617 c 1
 567 607 589 592 612 571 c 0
 617 567 625 560 638 549 c 0
 651 538 660 529 666 524 c 0
 672 519 682 511 694 500 c 0xb8
 706 489 715 479 722 471 c 0
 729 463 736 453 746 441 c 0
 756 429 764 416 770 406 c 0
 776 396 782 384 788 370 c 0
 794 356 799 341 802 327 c 0
 805 313 808 298 810 281 c 0
 812 264 812 247 811 229 c 1
 813 216 814 204 814 192 c 0
 814 168 810 146 803 126 c 0
 792 95 775 71 751 52 c 0
 727 33 700 19 669 9 c 0
 638 -1 604 -6 568 -6 c 2
 333 -6 l 1
 263 34 l 1
 250 37 241 43 235 54 c 0
 229 65 228 76 230 88 c 0
 232 100 237 110 245 119 c 0
 253 128 263 133 274 133 c 0
 278 133 282 130 288 123 c 0
 294 116 297 112 298 112 c 2
 567 112 l 2
 578 111 588 111 598 111 c 0
 674 111 712 134 712 179 c 0xb4
 712 185 711 192 710 200 c 0
 709 208 709 214 709 216 c 0
 709 230 708 241 708 248 c 0
 708 255 709 265 709 279 c 0
 709 293 709 304 709 311 c 1
 705 329 696 348 682 366 c 0
 668 384 655 399 642 411 c 0
 629 423 613 436 592 453 c 0
 571 470 557 482 549 489 c 0
 541 496 534 501 528 506 c 0
 522 511 518 515 514 518 c 0
 510 521 506 525 501 528 c 0
 496 531 492 533 489 535 c 0
 486 537 480 540 472 544 c 0
 464 548 457 553 452 556 c 0
 439 564 428 571 420 578 c 0
 412 585 406 593 402 602 c 0
 398 611 395 620 393 627 c 0
 391 634 389 644 386 658 c 0
 383 672 380 685 377 696 c 1
 377 752 l 2
 378 758 378 768 379 780 c 0
 380 795 381 806 382 813 c 0
 383 820 383 830 385 842 c 0
 387 854 388 864 390 870 c 0
 392 876 395 885 399 894 c 0
 403 903 406 910 411 916 c 0
 416 922 422 928 429 934 c 0
 436 940 444 946 453 951 c 0
 462 956 472 960 484 964 c 0
 514 975 542 983 568 989 c 0
 600 996 629 1013 655 1039 c 0
 681 1065 694 1095 694 1129 c 2
 694 1180 l 1
 693 1191 l 2
 692 1199 691 1211 689 1229 c 0
 687 1247 686 1265 684 1286 c 1xb8
EndSplineSet
EndChar

StartChar: four
Encoding: 52 52 23
Width: 1196
Flags: HW
HStem: -8 118<514 583.114> 785 21G<414.5 670> 842 123<1079 1178.59>
VStem: 16 122<1118.55 1584.5> 41 124<1258.56 1653.53> 954 125<960.551 1470.42>
LayerCount: 2
Fore
SplineSet
16 1357 m 2xf4
 17 1390 20 1427 24 1469 c 0
 28 1511 34 1543 41 1564 c 1
 41 1597 l 1
 43 1618 50 1637 63 1656 c 0
 76 1675 90 1684 105 1684 c 0
 133 1684 154 1674 166 1654 c 0
 172 1644 174 1634 174 1623 c 0
 174 1611 171 1598 165 1585 c 1
 165 1553 l 1xec
 160 1536 154 1504 148 1457 c 0
 142 1410 138 1376 138 1356 c 2
 138 1259 l 2
 138 1233 143 1205 155 1175 c 0
 167 1145 183 1114 204 1086 c 0
 225 1058 247 1032 273 1008 c 0
 299 984 326 964 357 950 c 0
 388 936 418 929 447 929 c 2
 942 929 l 1
 950 974 954 1033 954 1107 c 2
 954 1285 l 2
 954 1346 942 1403 917 1456 c 0
 892 1509 861 1552 823 1587 c 0
 814 1596 808 1606 806 1619 c 0
 804 1632 805 1644 809 1655 c 0
 813 1666 821 1676 831 1684 c 0
 841 1692 852 1695 865 1694 c 0
 880 1694 895 1688 908 1677 c 0
 957 1631 998 1574 1030 1506 c 0
 1062 1438 1079 1364 1079 1286 c 2
 1079 960 l 1
 1109 963 1125 965 1127 965 c 0
 1140 965 1152 958 1164 945 c 0
 1176 932 1181 918 1181 904 c 0
 1181 888 1176 874 1165 862 c 0
 1154 850 1141 844 1126 842 c 1
 1043 842 l 1
 1025 711 985 581 923 450 c 0
 861 319 784 204 693 106 c 0
 685 98 677 89 669 80 c 0
 661 71 654 64 649 58 c 0
 644 52 640 47 635 42 c 0
 630 37 627 34 624 31 c 0
 621 28 619 27 618 26 c 2
 574 2 l 2
 563 -5 552 -8 542 -8 c 0
 531 -8 521 -4 510 4 c 0
 494 16 484 32 482 52 c 0
 482 55 482 59 482 62 c 0
 482 82 491 97 510 108 c 0
 512 109 512 109 514 110 c 2
 549 110 l 1
 552 113 572 139 609 188 c 0
 646 237 666 264 668 266 c 0
 732 350 785 440 826 535 c 0
 867 630 896 726 914 825 c 1
 426 785 l 1
 403 789 375 800 342 818 c 0
 309 836 281 855 256 873 c 0
 231 891 210 909 191 926 c 0
 125 986 78 1044 50 1100 c 0
 26 1147 14 1200 14 1258 c 0
 14 1270 15 1281 16 1293 c 2
 16 1357 l 2xf4
EndSplineSet
EndChar

StartChar: five
Encoding: 53 53 24
Width: 1060
Flags: HW
HStem: -13 98<461.766 895.469> 1349 97<590.473 842.747>
VStem: 29 98<1169.3 1532.48> 844 101<1453.99 1562.43> 937 97<143.794 535.953>
LayerCount: 2
Fore
SplineSet
270 209 m 0xe8
 264 227 267 243 281 256 c 0
 295 269 310 275 328 272 c 0
 346 269 358 258 363 238 c 0
 369 214 381 193 400 173 c 0
 419 153 441 138 468 126 c 0
 495 114 525 103 559 95 c 0
 593 87 627 83 662 82 c 0
 670 82 677 82 685 82 c 2
 768 85 l 1
 820 85 l 2
 854 85 882 104 904 142 c 0
 926 180 937 235 937 308 c 0xe8
 937 344 936 377 932 405 c 0
 928 433 924 457 919 478 c 0
 914 499 904 518 892 536 c 0
 880 554 868 568 858 580 c 0
 848 592 832 605 810 618 c 0
 788 631 769 641 752 649 c 0
 735 657 711 669 679 683 c 0
 653 694 629 705 605 716 c 0
 581 727 561 737 543 746 c 0
 516 760 516 760 508 764 c 0
 471 781 434 800 398 822 c 0
 362 844 325 868 289 896 c 0
 253 924 219 953 188 986 c 0
 157 1019 130 1053 106 1089 c 0
 82 1125 63 1163 49 1205 c 0
 35 1247 29 1289 29 1331 c 0
 29 1395 38 1453 55 1506 c 0
 72 1559 97 1601 130 1634 c 1
 310 1634 l 1
 480 1606 l 1
 597 1474 l 1
 631 1455 675 1446 729 1446 c 0
 788 1446 826 1457 844 1480 c 1
 844 1513 l 1
 842 1535 849 1551 866 1563 c 0
 883 1575 901 1578 919 1572 c 0
 937 1566 947 1553 949 1531 c 0
 949 1519 948 1510 945 1503 c 1
 945 1465 l 2xf0
 945 1450 929 1427 896 1394 c 0
 866 1364 811 1349 732 1349 c 0
 709 1349 687 1352 665 1357 c 0
 643 1362 625 1367 613 1373 c 0
 601 1379 584 1386 563 1397 c 0
 542 1408 527 1416 518 1420 c 1
 421 1517 l 1
 190 1560 l 1
 170 1535 155 1501 144 1461 c 0
 133 1421 127 1379 127 1337 c 0
 127 1293 136 1250 154 1207 c 0
 172 1164 194 1126 222 1092 c 0
 250 1058 284 1027 322 995 c 0
 360 963 397 936 434 914 c 0
 471 892 510 871 550 852 c 0
 557 849 578 838 614 821 c 0
 650 804 684 787 716 772 c 0
 748 757 769 747 781 742 c 0
 821 724 856 705 884 684 c 0
 912 663 936 640 956 615 c 0
 976 590 991 562 1002 530 c 0
 1013 498 1022 463 1027 427 c 0
 1032 391 1034 348 1034 300 c 0
 1034 182 1011 97 965 44 c 0
 929 3 882 -18 822 -18 c 0
 805 -18 786 -16 767 -13 c 1
 746 -14 724 -14 704 -14 c 0
 631 -14 564 -7 503 8 c 0
 446 22 397 47 357 82 c 0
 317 117 288 159 270 209 c 0xe8
EndSplineSet
EndChar

StartChar: six
Encoding: 54 54 25
Width: 942
Flags: HW
HStem: -31 113<402 775.81> 595 20G<464 490>
VStem: 102 107<420.547 1315.81> 119 90<420.547 830.999> 139 96<1316 1356 1356.09 1479.81> 375 115<330.871 512> 776 96<82.3397 464>
LayerCount: 2
Fore
SplineSet
139 1405 m 0xce
 139 1443 151 1481 175 1519 c 0
 199 1557 232 1587 270 1610 c 0
 308 1633 347 1645 385 1645 c 0
 399 1645 412 1640 422 1630 c 0
 432 1620 438 1609 438 1595 c 0
 438 1584 437 1575 433 1568 c 0
 429 1561 424 1556 417 1552 c 0
 410 1548 403 1544 396 1542 c 0
 389 1540 380 1537 370 1534 c 0
 360 1531 351 1527 344 1524 c 0
 318 1513 295 1497 274 1475 c 0
 253 1453 242 1430 242 1405 c 2
 242 1372 l 2
 242 1370 240 1366 238 1362 c 0
 236 1358 235 1356 235 1356 c 2
 235 1316 l 1xce
 228 1304 l 2
 223 1296 219 1285 215 1272 c 0
 211 1259 209 1246 209 1231 c 2
 209 480 l 2xe6
 210 478 214 475 221 470 c 0
 228 465 231 460 230 455 c 1
 230 420 l 1
 237 402 244 382 249 360 c 0
 254 338 259 313 264 286 c 0
 269 259 274 239 277 226 c 0
 281 211 286 200 292 190 c 0
 298 180 307 169 317 158 c 0
 327 147 336 135 343 122 c 1
 402 82 l 1
 735 82 l 1
 737 86 743 90 754 95 c 0
 765 100 772 105 776 110 c 1
 775 464 l 1
 490 512 l 1
 490 502 490 487 490 467 c 0
 490 447 490 431 490 421 c 0
 490 411 490 396 490 376 c 0
 490 364 483 353 469 343 c 0
 455 333 441 328 426 328 c 0
 412 328 400 333 390 343 c 0
 380 353 374 365 375 379 c 2
 375 461 l 2
 375 465 377 477 381 496 c 0
 385 515 387 532 387 545 c 0
 387 564 396 580 414 594 c 0
 432 608 453 615 475 615 c 0
 505 615 552 608 617 596 c 0
 682 584 727 577 752 576 c 0
 789 574 819 563 840 543 c 0
 861 523 872 497 872 463 c 2
 872 106 l 2
 872 82 861 58 838 33 c 0
 832 27 826 19 820 10 c 0
 814 1 810 -8 806 -16 c 0
 802 -24 798 -29 797 -31 c 1
 377 -31 l 2
 373 -31 369 -27 364 -21 c 0
 359 -15 355 -11 354 -10 c 2
 276 44 l 2
 272 46 266 55 257 69 c 0
 252 76 245 83 237 93 c 0
 229 103 221 111 215 118 c 0
 209 125 202 135 196 146 c 0
 190 157 186 168 183 180 c 2
 119 469 l 1xd6
 126 826 l 2
 126 827 124 827 120 828 c 0
 116 829 112 830 108 830 c 0
 104 830 102 831 102 831 c 2
 102 1242 l 1xe6
 103 1264 109 1296 121 1339 c 0
 133 1382 139 1404 139 1405 c 0xce
EndSplineSet
EndChar

StartChar: seven
Encoding: 55 55 26
Width: 897
Flags: HW
HStem: 1345 103<170.979 553.959> 1425 103<551.023 742.25>
VStem: 500 102<51.1592 737.441> 751 101<1190.14 1420.34>
LayerCount: 2
Fore
SplineSet
666 1425 m 1x70
 646 1420 624 1411 600 1401 c 0
 576 1391 554 1382 537 1374 c 0
 520 1366 498 1358 472 1352 c 0
 449 1347 425 1345 400 1345 c 0
 394 1345 394 1345 388 1345 c 0
 378 1345 367 1346 355 1346 c 0
 343 1346 331 1345 317 1345 c 0
 303 1345 292 1345 284 1345 c 0
 282 1345 282 1345 280 1345 c 0
 180 1345 77 1415 -30 1554 c 0
 -37 1564 -40 1575 -40 1586 c 0
 -40 1597 -37 1606 -30 1614 c 0
 -23 1622 -15 1629 -6 1633 c 0
 3 1637 12 1638 23 1636 c 0
 34 1634 43 1627 51 1617 c 0
 66 1598 79 1582 90 1569 c 0
 101 1556 115 1540 132 1524 c 0
 149 1508 164 1494 179 1484 c 0
 194 1474 211 1466 229 1459 c 0
 247 1452 266 1448 284 1448 c 2
 380 1448 l 2xb0
 441 1448 486 1457 514 1476 c 1
 521 1478 535 1484 557 1494 c 0
 579 1504 602 1512 624 1518 c 0
 646 1524 667 1528 689 1528 c 0
 726 1528 760 1514 791 1487 c 0
 822 1460 840 1429 845 1396 c 0
 850 1364 852 1335 852 1308 c 0
 852 1302 852 1296 852 1290 c 0
 851 1273 848 1257 844 1241 c 0
 840 1225 835 1213 830 1203 c 0
 825 1193 819 1181 811 1166 c 0
 803 1151 797 1140 793 1132 c 0
 791 1128 781 1108 762 1072 c 0
 743 1036 726 1001 710 968 c 0
 694 935 685 912 682 900 c 0
 656 787 636 689 622 608 c 0
 608 527 602 454 602 391 c 0
 602 384 602 373 602 360 c 0
 602 347 603 335 603 324 c 0
 603 313 603 303 602 293 c 0
 601 276 601 259 603 241 c 0
 605 223 608 203 612 182 c 0
 616 161 620 144 623 133 c 0
 626 122 631 105 638 82 c 0
 645 59 648 48 648 46 c 0
 665 28 669 9 660 -12 c 0
 651 -33 635 -43 611 -43 c 0
 599 -43 587 -36 573 -22 c 0
 559 -8 552 3 550 13 c 0
 549 16 544 36 533 73 c 0
 522 110 513 145 505 180 c 0
 500 205 497 224 497 238 c 0
 497 243 497 248 498 251 c 0
 498 282 499 311 500 338 c 1
 500 394 l 2
 500 523 528 701 583 927 c 0
 597 984 644 1080 723 1215 c 0
 732 1231 739 1250 744 1273 c 0
 748 1293 751 1312 751 1331 c 0
 751 1336 751 1336 751 1341 c 0
 750 1363 744 1382 733 1398 c 0
 722 1414 707 1424 687 1425 c 1
 666 1425 l 1x70
EndSplineSet
EndChar

StartChar: eight
Encoding: 56 56 27
Width: 1007
Flags: HW
HStem: 38 88<675 749.012> 1516 81<335.766 686.402>
VStem: 49 78<1072.11 1375.98> 57 94<271.178 704.678> 892 85<269.437 664.578> 899 99<1013.09 1382.95>
LayerCount: 2
Fore
SplineSet
809 887 m 1xe4
 851 858 890 803 924 722 c 0
 958 641 976 566 977 498 c 2
 977 445 l 2
 977 358 959 287 925 230 c 0
 891 173 831 116 745 59 c 0
 722 45 701 38 682 38 c 2
 353 38 l 2
 347 38 341 40 335 44 c 0
 329 48 320 53 312 59 c 0
 304 65 297 70 292 73 c 0
 247 102 210 131 180 157 c 0
 150 183 126 212 105 243 c 0
 84 274 70 307 63 342 c 0
 59 363 57 385 57 408 c 0xd8
 57 424 58 442 60 459 c 1
 60 513 l 1
 64 595 83 669 114 737 c 0
 145 805 183 859 227 901 c 1
 211 907 197 913 184 920 c 0
 171 927 159 935 148 945 c 0
 137 955 128 965 120 975 c 0
 112 985 105 998 96 1014 c 0
 87 1030 79 1045 73 1058 c 0
 67 1071 59 1090 49 1114 c 1
 49 1299 l 2
 49 1332 54 1360 64 1384 c 0
 74 1408 90 1429 114 1447 c 0
 115 1447 128 1458 152 1478 c 0
 176 1498 194 1511 205 1516 c 0
 247 1534 282 1548 310 1558 c 0
 338 1568 366 1577 396 1584 c 0
 426 1591 452 1595 474 1596 c 0
 478 1596 482 1597 487 1597 c 0
 506 1597 527 1595 550 1592 c 0
 579 1588 608 1582 636 1574 c 0
 664 1566 699 1554 740 1539 c 0
 761 1532 792 1514 836 1486 c 0
 880 1458 906 1442 915 1438 c 0
 971 1411 998 1367 998 1304 c 0
 998 1298 998 1293 998 1287 c 2
 998 1100 l 1
 977 1039 950 990 916 954 c 0
 882 918 846 895 809 887 c 1xe4
346 906 m 1
 346 889 332 870 304 850 c 0
 255 815 217 762 190 692 c 0
 164 624 151 579 151 556 c 2
 151 411 l 2
 151 344 176 285 227 234 c 0
 283 178 328 147 363 140 c 1
 672 94 l 1
 675 126 l 1
 681 126 689 129 699 134 c 0
 828 213 892 300 892 397 c 2
 892 542 l 2xd8
 892 545 890 550 886 558 c 0
 882 566 880 572 879 577 c 0
 845 704 796 790 732 836 c 0
 718 846 707 856 700 864 c 0
 693 872 690 881 690 890 c 0
 690 912 696 928 708 938 c 0
 720 948 740 957 766 965 c 0
 834 984 878 1022 899 1079 c 1
 899 1358 l 1
 897 1359 888 1363 874 1370 c 0
 860 1377 854 1382 855 1383 c 0
 855 1390 851 1396 842 1402 c 0
 833 1408 821 1414 809 1419 c 0
 797 1424 789 1428 786 1430 c 2
 754 1454 l 1
 704 1470 l 2
 671 1481 654 1488 651 1491 c 0
 635 1508 615 1516 590 1516 c 0
 588 1516 588 1516 586 1516 c 2
 503 1516 l 2
 442 1516 355 1490 242 1437 c 0
 238 1436 226 1426 204 1408 c 0
 182 1390 171 1380 169 1379 c 0
 141 1360 127 1334 127 1300 c 2
 127 1152 l 1xe4
 131 1147 138 1135 147 1114 c 0
 156 1093 165 1073 175 1054 c 0
 185 1035 194 1022 201 1017 c 1
 208 1007 218 1000 230 994 c 0
 242 988 255 983 267 980 c 0
 279 977 290 973 302 969 c 0
 314 965 324 957 332 947 c 0
 340 937 344 923 346 906 c 1
EndSplineSet
EndChar

StartChar: nine
Encoding: 57 57 28
Width: 942
Flags: HW
HStem: 1532 113<207.144 581>
VStem: 111 97<1150 1531.81> 493 115<1102 1270.53> 775 106<166.988 787> 775 81<787 1178.65> 775 69<203.669 351.122>
LayerCount: 2
Fore
SplineSet
844 209 m 0xe4
 844 171 832 135 807 99 c 0
 782 63 751 35 713 12 c 0
 675 -11 637 -25 598 -30 c 0
 586 -32 575 -30 567 -24 c 0
 559 -18 553 -11 550 -1 c 0
 547 9 547 18 548 28 c 0
 549 38 552 48 559 56 c 0
 566 64 575 69 586 71 c 0
 599 74 612 78 626 83 c 0
 640 88 653 95 667 103 c 0
 681 111 693 120 704 130 c 0
 715 140 723 152 730 166 c 0
 737 180 740 194 741 209 c 2
 741 242 l 2
 741 243 743 246 748 249 c 0
 753 252 758 257 764 262 c 0
 770 267 773 272 775 277 c 1xf0
 775 1134 l 2
 774 1136 770 1139 762 1144 c 0
 754 1149 752 1154 753 1159 c 1
 753 1194 l 1
 747 1212 739 1241 731 1278 c 0
 723 1315 717 1338 715 1346 c 0
 714 1350 712 1358 710 1368 c 0
 708 1378 706 1387 704 1393 c 0
 702 1399 700 1407 696 1415 c 0
 692 1423 688 1429 684 1433 c 0
 676 1441 661 1461 640 1492 c 1
 581 1532 l 1
 248 1532 l 1
 246 1528 239 1524 228 1519 c 0
 217 1514 210 1509 207 1504 c 1
 208 1150 l 1
 493 1102 l 1
 493 1238 l 2
 493 1250 500 1261 514 1271 c 0
 528 1281 542 1286 557 1286 c 0
 571 1286 584 1281 594 1271 c 0
 604 1261 609 1249 608 1235 c 2
 608 1153 l 2
 608 1149 606 1137 602 1118 c 0
 598 1099 596 1082 596 1069 c 0
 596 1051 587 1034 569 1020 c 0
 551 1006 531 999 509 999 c 0
 480 999 433 1006 368 1018 c 0
 303 1030 259 1037 233 1038 c 0
 200 1039 175 1049 157 1067 c 1
 140 1082 128 1095 121 1106 c 0
 114 1117 111 1132 111 1151 c 2
 111 1508 l 2
 111 1532 123 1557 146 1581 c 0
 152 1588 157 1596 163 1604 c 0
 169 1612 173 1621 178 1630 c 0
 183 1639 186 1643 187 1645 c 1
 606 1645 l 2
 609 1645 614 1641 619 1634 c 0
 624 1627 628 1624 629 1623 c 2
 707 1570 l 2
 713 1564 721 1553 733 1537 c 0
 745 1521 754 1509 762 1501 c 0
 772 1491 782 1472 794 1446 c 0
 806 1420 811 1399 811 1384 c 1
 864 1145 l 1
 856 787 l 1xe8
 881 787 l 1
 881 372 l 1xf0
 880 354 874 326 862 290 c 0
 850 254 844 227 844 209 c 0xe4
EndSplineSet
EndChar

StartChar: colon
Encoding: 58 58 29
Width: 274
Flags: HW
HStem: 219 177<52.5679 210.135>
VStem: 41 181<232.375 382.491 817.414 968.329>
LayerCount: 2
Fore
SplineSet
47 861 m 0
 42 876 40 889 41 901 c 0
 42 913 46 924 51 934 c 0
 56 944 63 952 72 959 c 0
 81 966 91 972 101 976 c 0
 111 980 122 982 134 982 c 0
 146 982 156 980 166 976 c 0
 176 972 186 967 195 958 c 0
 204 949 211 938 216 925 c 0
 221 910 224 895 222 881 c 0
 220 867 216 855 208 845 c 0
 200 835 191 826 180 819 c 0
 169 812 157 808 144 806 c 0
 131 804 118 805 106 807 c 0
 94 809 83 816 72 825 c 0
 61 834 53 846 47 861 c 0
47 276 m 0
 42 291 40 304 41 316 c 0
 42 328 46 339 51 349 c 0
 56 359 63 368 72 374 c 0
 81 380 91 386 101 390 c 0
 111 394 122 396 134 396 c 0
 146 396 156 394 166 390 c 0
 176 386 186 380 195 371 c 0
 204 362 211 352 216 339 c 0
 221 325 223 312 222 300 c 0
 221 288 218 277 213 267 c 0
 208 257 201 249 192 242 c 0
 183 235 172 229 162 225 c 0
 152 221 142 219 130 219 c 0
 118 219 106 220 96 224 c 0
 86 228 77 234 68 243 c 0
 59 252 52 263 47 276 c 0
EndSplineSet
EndChar

StartChar: semicolon
Encoding: 59 59 30
Width: 901
Flags: HW
HStem: 535 155<407.124 569.339> 1073 175<316.885 475.142>
VStem: 276 111<473 526.762> 312 170<1084.03 1240.65> 599 89<62.918 517.574>
LayerCount: 2
Fore
SplineSet
480 1193 m 0xd8
 487 1172 488 1151 482 1133 c 0
 476 1115 466 1101 450 1091 c 0
 434 1081 417 1076 400 1073 c 0
 383 1070 365 1074 348 1084 c 0
 331 1094 319 1109 312 1130 c 0
 306 1145 304 1160 305 1174 c 0
 306 1188 311 1200 319 1210 c 0
 327 1220 335 1228 346 1235 c 0
 357 1242 369 1246 382 1248 c 0
 395 1250 409 1248 421 1246 c 0
 433 1244 444 1238 455 1229 c 0
 466 1220 474 1208 480 1193 c 0xd8
610 226 m 0
 610 239 608 260 604 289 c 0
 601 309 599 328 599 345 c 0
 599 353 599 361 600 368 c 0
 601 381 602 395 602 408 c 0
 602 430 600 452 596 474 c 0
 593 494 584 509 570 518 c 0
 556 527 536 533 510 535 c 1
 436 535 l 2
 419 535 406 532 398 527 c 0
 390 522 387 512 387 498 c 2
 387 473 l 1
 430 473 l 1
 428 470 426 465 423 459 c 0
 420 453 418 448 416 444 c 0
 414 440 410 435 406 429 c 0
 402 423 399 419 395 417 c 0
 391 415 386 412 380 410 c 0
 374 408 368 409 362 412 c 1
 341 412 324 422 310 442 c 0
 296 462 286 484 282 508 c 0
 278 526 276 543 276 560 c 0xe8
 276 571 277 583 279 593 c 0
 284 619 296 640 317 657 c 0
 339 675 362 684 388 684 c 0
 394 684 400 683 406 682 c 1
 430 687 453 690 474 690 c 0
 515 690 551 680 584 662 c 0
 634 634 668 593 686 539 c 0
 692 519 695 498 695 476 c 0
 695 457 693 438 688 418 c 1
 688 401 689 375 691 342 c 0
 693 309 694 282 694 261 c 0
 694 258 694 258 694 254 c 0
 694 235 693 213 692 188 c 0
 691 160 687 135 681 111 c 0
 675 87 667 64 657 42 c 0
 625 -26 570 -72 492 -98 c 0
 491 -99 476 -107 448 -121 c 0
 420 -135 393 -149 366 -163 c 0
 339 -177 324 -183 321 -183 c 0
 320 -183 l 0
 318 -183 316 -182 316 -180 c 0
 316 -171 343 -143 396 -96 c 0
 402 -91 408 -86 415 -80 c 0
 461 -39 492 -11 506 4 c 0
 520 19 540 42 563 74 c 0
 594 117 610 167 610 226 c 0
EndSplineSet
EndChar

StartChar: less
Encoding: 60 60 31
Width: 851
Flags: HW
VStem: 120 102<512.508 694.831>
LayerCount: 2
Fore
SplineSet
616 914 m 0
 633 926 649 932 664 932 c 0
 670 932 676 930 682 928 c 0
 702 921 713 904 715 876 c 0
 715 861 706 848 687 835 c 0
 669 823 635 810 584 797 c 0
 533 784 480 772 426 760 c 0
 372 748 336 738 319 731 c 0
 286 719 262 704 246 686 c 0
 230 668 222 642 222 607 c 0
 222 570 234 540 258 516 c 0
 283 491 339 461 427 424 c 0
 493 397 539 376 564 363 c 0
 589 350 618 331 652 305 c 0
 668 293 673 278 668 258 c 0
 663 238 653 225 637 218 c 0
 621 211 604 213 587 226 c 1
 573 239 539 259 487 284 c 0
 435 309 382 333 328 358 c 0
 274 383 240 400 226 411 c 0
 155 463 120 525 120 595 c 0
 120 701 165 775 256 816 c 0
 273 823 287 830 298 834 c 0
 309 838 321 842 335 846 c 0
 349 850 360 851 367 853 c 0
 374 855 390 858 414 862 c 0
 438 866 459 871 475 874 c 0
 552 889 599 902 616 914 c 0
EndSplineSet
EndChar

StartChar: equal
Encoding: 61 61 32
Width: 851
Flags: HW
HStem: 496 92<87.793 363.18> 516 103<110.105 537> 672 21G<621.699 671.5> 754 92<87.793 363.18> 774 103<110.105 537>
VStem: 86 624
LayerCount: 2
Fore
SplineSet
690 774 m 2x2c
 700 768 706 760 710 748 c 0
 714 736 715 725 712 714 c 0
 709 703 703 692 695 684 c 0
 687 676 677 672 666 672 c 1
 460 765 l 1
 440 770 412 773 376 774 c 0
 374 774 375 774 373 774 c 0x2c
 358 774 331 772 293 767 c 0
 253 762 225 758 210 754 c 1
 137 754 l 2
 103 754 86 765 86 786 c 0
 86 796 88 805 91 812 c 0
 94 819 99 825 105 829 c 0
 111 833 118 837 125 839 c 0
 132 841 141 844 151 846 c 0x34
 153 846 155 847 156 847 c 0
 236 867 306 877 366 877 c 0
 398 877 424 875 445 873 c 0
 466 871 480 869 486 866 c 2
 690 774 l 2x2c
690 515 m 2
 700 510 706 502 710 490 c 0
 714 478 715 467 712 456 c 0
 709 445 703 434 695 426 c 0
 687 418 677 414 666 414 c 1
 460 507 l 1
 440 512 412 515 376 516 c 0
 374 516 375 516 373 516 c 0x64
 358 516 331 514 293 509 c 0
 253 504 225 500 210 496 c 1
 137 496 l 2
 103 496 86 507 86 528 c 0
 86 538 88 547 91 554 c 0
 94 561 99 567 105 571 c 0
 111 575 118 579 125 581 c 0
 132 583 141 586 151 588 c 0xa4
 153 588 155 589 156 589 c 0
 236 609 306 619 366 619 c 0x64
 398 619 424 617 445 615 c 0
 466 613 480 611 486 608 c 2
 690 515 l 2
EndSplineSet
EndChar

StartChar: greater
Encoding: 62 62 33
Width: 851
Flags: HW
VStem: 612 103<512.485 705.165>
LayerCount: 2
Fore
SplineSet
148 835 m 1
 130 845 121 859 120 877 c 0
 119 895 127 910 143 923 c 0
 159 936 176 937 195 926 c 0
 229 906 293 887 386 869 c 0
 417 863 443 857 464 852 c 0
 485 847 508 841 533 833 c 0
 558 825 579 817 595 808 c 0
 611 799 628 788 644 774 c 0
 660 760 673 744 683 728 c 0
 693 712 700 692 706 670 c 0
 712 648 715 622 715 595 c 0
 715 525 680 463 609 411 c 0
 595 400 560 382 506 358 c 0
 452 334 399 309 347 284 c 0
 295 259 262 240 248 226 c 0
 234 212 217 210 199 218 c 0
 181 226 170 238 166 256 c 0
 162 274 168 290 183 305 c 1
 217 330 247 350 272 363 c 0
 297 376 342 397 408 424 c 0
 496 461 552 491 577 516 c 0
 600 539 612 570 612 607 c 0
 612 626 610 642 606 656 c 0
 602 670 594 681 585 690 c 0
 576 699 566 707 556 713 c 0
 546 719 533 725 517 731 c 0
 500 738 464 747 409 759 c 0
 354 771 301 783 250 796 c 0
 199 809 165 822 148 835 c 1
EndSplineSet
EndChar

StartChar: question
Encoding: 63 63 34
Width: 688
Flags: HW
HStem: -51 189<436.19 552.432> 154 151<387.423 467.529> 1550 104<275.752 519.992>
VStem: 160 98<1266.38 1540.88> 176 103<1231.52 1329.86> 246 94<475 823.34> 406 164<-10.5239 111.2> 547 101<1253.49 1501.3>
LayerCount: 2
Fore
SplineSet
648 1454 m 0xf1
 649 1436 649 1420 648 1404 c 0
 647 1388 644 1371 640 1354 c 0
 636 1337 633 1324 630 1315 c 0
 627 1306 622 1292 615 1272 c 0
 608 1252 604 1240 602 1235 c 1
 602 1204 l 2
 602 1202 602 1199 600 1197 c 0
 598 1195 597 1193 597 1193 c 0
 592 1172 586 1153 580 1134 c 0
 574 1115 569 1100 564 1088 c 0
 559 1076 551 1061 540 1043 c 0
 529 1025 521 1013 516 1006 c 0
 511 999 501 984 485 962 c 0
 469 940 458 924 452 916 c 0
 442 902 429 885 415 865 c 0
 401 845 391 832 386 825 c 0
 381 818 375 809 367 796 c 0
 359 783 354 773 352 767 c 0
 350 761 348 751 345 738 c 0
 342 725 340 712 340 700 c 0
 340 688 340 672 340 652 c 2
 340 447 l 2
 341 442 345 437 351 430 c 0
 357 423 360 418 360 416 c 0
 362 408 366 390 370 360 c 0
 374 330 380 308 387 293 c 1
 396 301 407 305 421 305 c 0
 437 305 449 300 459 289 c 0
 469 278 475 266 478 252 c 0
 481 238 483 223 483 206 c 0
 483 191 478 178 468 168 c 0
 458 158 445 152 430 152 c 1
 430 154 l 1
 426 154 423 154 420 154 c 0
 398 154 376 162 355 178 c 0
 330 197 309 221 294 252 c 0
 279 283 271 313 270 344 c 2
 270 406 l 1
 246 475 l 1
 246 729 l 2xe5
 246 746 249 763 254 782 c 0
 259 801 267 820 278 840 c 0
 289 860 298 875 304 885 c 0
 310 895 319 908 331 925 c 0
 341 939 354 958 372 981 c 0
 390 1004 404 1024 416 1040 c 0
 428 1056 441 1076 454 1098 c 0
 467 1120 477 1144 485 1168 c 0
 493 1192 498 1219 500 1246 c 1
 503 1258 509 1274 518 1296 c 0
 527 1318 534 1338 539 1356 c 0
 544 1374 547 1392 547 1411 c 2
 547 1456 l 2
 547 1471 539 1487 524 1502 c 0
 491 1535 442 1551 377 1551 c 1
 377 1550 l 1
 327 1550 l 2
 319 1549 312 1547 306 1544 c 0
 300 1541 296 1539 292 1536 c 0
 288 1533 285 1528 282 1521 c 0
 279 1514 277 1509 275 1503 c 0
 273 1497 271 1489 268 1478 c 0
 265 1467 261 1457 258 1448 c 1
 258 1330 l 2xf1
 259 1327 262 1322 266 1314 c 0
 270 1306 273 1298 275 1290 c 0
 277 1282 279 1274 279 1266 c 0
 279 1252 274 1239 264 1229 c 0
 254 1219 242 1214 228 1214 c 0
 212 1214 200 1220 190 1231 c 0
 180 1242 176 1256 176 1273 c 0xe8
 176 1277 173 1286 169 1302 c 0
 165 1318 163 1330 164 1339 c 1
 161 1351 160 1362 160 1372 c 2
 160 1454 l 2
 160 1492 174 1535 201 1581 c 0
 219 1610 240 1630 266 1641 c 0
 286 1650 310 1654 338 1654 c 0
 346 1654 355 1654 363 1653 c 0
 392 1651 419 1647 444 1642 c 0
 469 1637 495 1629 520 1619 c 0
 545 1609 566 1596 584 1582 c 0
 602 1568 616 1550 628 1528 c 0
 640 1506 647 1481 648 1454 c 0xf1
495 138 m 0
 522 138 541 131 553 117 c 0
 565 103 570 81 570 51 c 0
 570 35 570 23 571 15 c 0
 572 2 569 -10 561 -21 c 0
 553 -32 543 -40 531 -44 c 0
 519 -48 507 -51 494 -51 c 0
 481 -51 469 -48 458 -41 c 0
 447 -34 440 -24 436 -11 c 1
 416 -1 406 19 406 49 c 0xe2
 406 74 415 95 432 112 c 0
 449 129 470 138 495 138 c 0
EndSplineSet
EndChar

StartChar: at
Encoding: 64 64 35
Width: 1380
Flags: HW
HStem: 46 100<342.556 1118.04> 256 103<895.191 1035.67> 286 102<483.281 654.973> 743 104<462.426 522.719 523 623.951> 1062 102<323.846 654.438>
VStem: 62 101<400.522 889.232> 346 102<441.652 720.339> 639 106<626.519 676.672> 778 103<366.238 431.613> 1046 104<384.615 694.966>
LayerCount: 2
Fore
SplineSet
1046 471 m 2xdfc0
 1047 484 1048 497 1048 509 c 0
 1048 545 1043 578 1035 610 c 0
 1023 653 1006 691 984 725 c 0
 962 759 932 797 893 840 c 0
 876 859 856 878 834 897 c 0
 812 916 787 937 757 957 c 0
 727 977 698 995 668 1011 c 0
 638 1027 605 1039 570 1049 c 0
 537 1058 506 1062 476 1062 c 0
 472 1062 472 1062 469 1062 c 0
 425 1061 383 1050 344 1030 c 0
 305 1010 271 983 244 949 c 0
 217 915 196 875 181 830 c 0
 169 793 163 755 163 716 c 0
 163 707 163 698 164 689 c 0
 174 544 194 429 225 346 c 0
 256 263 301 208 362 180 c 1
 466 160 570 149 674 146 c 0
 694 146 715 146 736 146 c 0
 822 146 912 150 1007 158 c 0
 1024 159 1043 164 1063 170 c 0
 1083 176 1100 183 1112 188 c 0
 1124 193 1143 202 1168 214 c 0
 1173 216 1177 218 1179 219 c 1
 1180 221 1181 223 1183 225 c 2
 1224 274 l 2
 1232 286 1244 292 1259 293 c 0
 1274 294 1287 290 1298 280 c 0
 1309 270 1315 258 1315 244 c 0
 1315 231 1311 219 1303 209 c 2
 1270 169 l 1
 1264 154 1243 138 1207 120 c 0
 1171 102 1121 84 1057 66 c 0
 1045 63 1032 59 1018 57 c 0
 1004 55 988 53 970 51 c 0
 952 49 936 49 922 48 c 0
 908 47 888 46 864 46 c 0
 840 46 821 46 807 46 c 0
 800 46 790 46 779 46 c 0
 768 46 755 46 740 46 c 0
 694 46 694 46 672 46 c 0
 628 46 597 46 580 46 c 0
 563 46 536 48 500 50 c 0
 464 52 431 56 404 62 c 0
 377 68 351 75 326 84 c 0
 288 98 254 119 224 146 c 0
 194 173 170 205 151 241 c 0
 132 277 116 318 103 366 c 0
 90 414 80 464 74 515 c 0
 68 566 64 623 62 685 c 1
 62 734 l 1
 66 859 105 960 180 1038 c 0
 255 1116 353 1158 475 1164 c 1
 505 1164 532 1161 558 1156 c 0
 708 1123 844 1041 967 909 c 0
 1089 777 1150 648 1150 521 c 2
 1150 444 l 2
 1150 416 1146 389 1138 365 c 0
 1130 341 1117 320 1102 302 c 0
 1087 284 1067 271 1043 263 c 0
 1028 258 1012 256 996 256 c 0
 985 256 974 257 963 259 c 1
 951 257 939 256 927 256 c 0xdfc0
 894 256 864 264 840 281 c 0
 807 304 790 336 786 379 c 0
 785 389 783 399 781 408 c 0
 779 417 778 424 778 432 c 1
 717 335 648 286 572 286 c 0
 536 286 505 292 477 306 c 0
 449 320 427 339 410 362 c 0
 393 385 378 413 368 445 c 0
 358 477 351 511 348 547 c 0
 346 566 346 586 346 606 c 0
 346 624 347 642 348 661 c 0
 350 690 355 716 363 739 c 0
 371 762 382 782 396 799 c 0
 410 816 428 829 450 837 c 0
 467 844 486 847 506 847 c 0
 512 847 517 847 523 846 c 1
 523 847 l 1
 544 847 568 842 594 832 c 0
 620 822 645 810 668 795 c 0
 691 780 709 761 724 739 c 0
 738 719 745 698 745 678 c 0
 745 675 745 675 745 673 c 0
 750 653 744 637 727 626 c 0
 710 615 692 611 672 617 c 0
 652 623 641 636 639 656 c 0
 639 663 640 670 641 677 c 1
 635 690 620 704 597 720 c 0
 574 736 555 744 539 744 c 1
 539 743 l 1
 504 743 l 2
 485 743 471 736 462 721 c 0
 454 707 450 687 450 661 c 0
 450 658 450 658 450 655 c 0
 449 648 448 627 448 592 c 0
 448 526 458 475 478 440 c 0
 498 405 532 388 580 388 c 0xbfc0
 592 388 602 390 612 394 c 0
 622 398 632 406 641 416 c 0
 650 426 657 435 663 442 c 0
 669 449 676 460 685 476 c 0
 694 492 701 502 705 508 c 0
 711 517 717 526 723 538 c 0
 729 550 733 559 737 565 c 0
 741 571 745 577 751 583 c 0
 757 589 763 594 771 596 c 0
 779 598 788 600 800 600 c 0
 831 600 852 575 862 526 c 0
 864 518 866 509 870 499 c 0
 874 489 876 479 878 468 c 0
 880 457 881 442 881 423 c 1
 884 416 887 405 888 393 c 0
 889 381 891 371 895 366 c 0
 899 361 908 359 921 359 c 0
 925 359 932 359 940 360 c 0
 948 361 953 362 957 362 c 2
 999 362 l 1
 1017 363 1029 371 1036 384 c 0
 1043 397 1047 417 1046 444 c 2
 1046 471 l 2xdfc0
EndSplineSet
EndChar

StartChar: A
Encoding: 65 65 36
Width: 1490
Flags: HW
HStem: 854 156<656.816 1164.46> 1438 170<567.938 1055.62>
VStem: 11 171<118.042 298.75> 1350 139<419.306 629.981>
LayerCount: 2
Fore
SplineSet
720 981 m 0
 754 989 785 995 811 1000 c 0
 837 1005 864 1008 890 1009 c 0
 904 1010 918 1010 930 1010 c 0
 940 1010 949 1010 958 1009 c 0
 977 1008 1001 1005 1030 999 c 0
 1059 993 1084 988 1106 982 c 0
 1128 976 1159 968 1200 957 c 0
 1211 954 1221 949 1231 943 c 0
 1241 937 1249 930 1258 920 c 0
 1267 910 1274 903 1280 896 c 0
 1286 889 1293 880 1303 866 c 0
 1313 852 1320 843 1324 837 c 1
 1306 979 1291 1077 1280 1131 c 0
 1269 1185 1251 1241 1224 1299 c 0
 1221 1306 1217 1313 1213 1319 c 0
 1209 1325 1203 1331 1195 1338 c 0
 1187 1345 1181 1350 1177 1353 c 0
 1173 1356 1165 1361 1153 1369 c 0
 1141 1377 1133 1381 1130 1383 c 0
 1127 1385 1117 1390 1101 1399 c 0
 1095 1402 1089 1406 1082 1410 c 0
 1075 1414 1070 1417 1067 1419 c 0
 1064 1421 1060 1423 1055 1425 c 0
 1050 1427 1047 1429 1046 1430 c 0
 1045 1431 1042 1432 1038 1433 c 0
 1034 1434 1031 1436 1030 1436 c 0
 1029 1436 1026 1436 1021 1437 c 0
 1016 1438 1012 1438 1010 1438 c 0
 1008 1438 1004 1439 996 1440 c 0
 988 1441 982 1442 978 1442 c 2
 492 1490 l 1
 481 1486 471 1480 464 1475 c 0
 457 1470 453 1465 450 1461 c 0
 447 1457 442 1450 436 1444 c 0
 430 1438 422 1432 413 1426 c 0
 408 1423 402 1419 394 1414 c 0
 386 1409 380 1406 377 1404 c 0
 374 1402 370 1398 364 1394 c 0
 358 1390 353 1386 351 1384 c 0
 349 1382 345 1378 341 1374 c 0
 337 1370 333 1364 331 1360 c 0
 329 1356 326 1350 323 1344 c 0
 320 1338 316 1331 314 1324 c 0
 312 1317 310 1309 307 1300 c 0
 304 1291 301 1280 298 1268 c 2
 148 674 l 1
 186 699 l 1
 192 706 203 718 218 736 c 0
 233 754 244 767 252 776 c 0
 260 785 271 797 286 812 c 0
 301 827 313 839 325 848 c 0
 337 857 351 865 366 875 c 0
 381 885 396 892 412 898 c 0
 444 910 473 919 498 927 c 0
 523 935 543 939 558 943 c 0
 573 947 596 952 627 959 c 0
 658 966 689 973 720 981 c 0
1297 377 m 0
 1296 390 1298 402 1304 414 c 0
 1310 426 1319 438 1329 451 c 0
 1339 464 1346 474 1350 481 c 1
 1350 487 1347 496 1341 508 c 0
 1335 520 1332 527 1331 530 c 0
 1329 536 1321 565 1308 618 c 0
 1295 671 1288 700 1287 702 c 0
 1235 766 1190 803 1152 814 c 0
 1060 841 992 854 948 854 c 0
 940 854 940 854 922 854 c 0
 904 854 905 854 901 854 c 0
 898 854 892 854 883 854 c 0
 874 854 869 853 866 853 c 0
 863 853 858 852 850 851 c 0
 842 850 836 849 831 848 c 0
 826 847 819 847 810 845 c 0
 801 843 792 842 783 840 c 0
 774 838 764 835 751 832 c 0
 661 813 588 791 530 768 c 0
 472 745 423 714 381 676 c 2
 164 478 l 1
 149 300 l 1
 180 220 l 1
 181 208 182 201 182 199 c 2
 182 178 l 1
 185 173 188 167 192 162 c 0
 196 157 199 151 203 146 c 0
 207 141 209 137 212 134 c 0
 215 131 218 127 222 123 c 0
 226 119 229 115 230 114 c 0
 245 109 256 101 264 90 c 0
 272 79 275 66 274 53 c 0
 273 40 269 27 263 15 c 0
 257 3 248 -7 236 -15 c 0
 224 -23 211 -27 197 -27 c 0
 178 -27 156 -17 134 1 c 0
 112 19 91 46 72 80 c 0
 66 91 57 105 45 123 c 0
 33 141 26 155 20 166 c 0
 14 177 11 186 11 194 c 2
 6 820 l 1
 142 1192 l 2
 147 1208 154 1240 164 1290 c 0
 174 1340 183 1372 188 1386 c 0
 210 1445 257 1493 328 1532 c 0
 335 1536 347 1544 364 1558 c 0
 381 1572 399 1584 415 1594 c 0
 431 1604 446 1608 460 1608 c 2
 962 1608 l 2
 962 1608 966 1604 973 1598 c 0
 980 1592 989 1585 999 1579 c 0
 1009 1573 1020 1570 1032 1568 c 0
 1046 1566 1060 1562 1074 1558 c 0
 1088 1554 1102 1548 1117 1541 c 0
 1132 1534 1144 1528 1152 1524 c 0
 1160 1520 1173 1513 1189 1503 c 0
 1205 1493 1216 1487 1220 1485 c 0
 1292 1444 1340 1396 1363 1340 c 0
 1386 1285 1399 1251 1402 1236 c 1
 1402 1112 l 1
 1423 1112 l 1
 1489 620 l 1
 1489 590 1483 531 1473 443 c 0
 1463 355 1457 307 1456 301 c 1
 1278 -39 l 2
 1270 -53 1258 -63 1243 -69 c 0
 1228 -75 1212 -78 1196 -76 c 0
 1180 -74 1165 -70 1150 -63 c 0
 1135 -56 1124 -47 1114 -34 c 0
 1104 -21 1100 -7 1100 8 c 1
 1301 300 l 1
 1302 307 1302 321 1300 341 c 0
 1298 361 1297 373 1297 377 c 0
EndSplineSet
EndChar

StartChar: B
Encoding: 66 66 37
Width: 1540
Flags: HW
HStem: -29 141<908.186 956.859> -6 118<557.467 927.952 928.047 1278.18> 533 111<720.665 1047.31> 1514 118<458.986 893.152>
VStem: 164 155<179.087 1239.49> 1200 162<959.479 1300.4> 1280 160<112.027 403.161>
LayerCount: 2
Fore
SplineSet
154 623 m 2x7c
 154 846 l 2
 155 870 156 895 156 919 c 0
 156 943 156 961 156 973 c 0
 156 985 155 999 156 1015 c 0
 157 1031 157 1042 157 1047 c 0
 157 1052 158 1061 160 1074 c 0
 162 1087 164 1095 164 1098 c 0
 164 1101 168 1110 172 1125 c 0
 176 1140 180 1151 182 1158 c 0
 184 1165 188 1180 196 1202 c 0
 204 1224 210 1243 215 1259 c 0
 245 1351 270 1417 291 1457 c 0
 301 1477 309 1491 313 1499 c 0
 317 1507 325 1516 334 1526 c 0
 343 1536 351 1543 358 1547 c 0
 365 1551 378 1561 398 1574 c 0
 429 1594 449 1606 459 1610 c 0
 469 1614 493 1618 530 1623 c 0
 555 1626 594 1629 648 1631 c 0
 673 1632 699 1632 724 1632 c 0
 754 1632 784 1631 815 1630 c 0
 872 1628 910 1623 929 1616 c 1
 1005 1603 1103 1550 1222 1458 c 0
 1233 1450 1245 1441 1260 1430 c 0
 1275 1419 1285 1411 1291 1407 c 0
 1297 1403 1304 1396 1312 1388 c 0
 1320 1380 1327 1372 1331 1365 c 0
 1335 1358 1339 1349 1343 1338 c 0
 1347 1327 1351 1314 1355 1299 c 0
 1359 1284 1361 1224 1362 1119 c 2
 1362 1030 l 2x7c
 1362 993 1360 969 1357 959 c 0
 1354 949 1344 938 1326 928 c 0
 1306 917 1285 904 1262 890 c 0
 1239 876 1222 864 1211 857 c 0
 1200 850 1186 842 1170 834 c 0
 1154 826 1138 819 1124 815 c 0
 1110 811 1092 808 1072 804 c 0
 1052 800 1028 798 1001 796 c 0
 948 793 883 787 805 777 c 0
 727 767 672 761 639 758 c 1
 657 735 670 719 680 712 c 0
 690 705 708 694 737 681 c 0
 744 678 750 675 754 673 c 0
 792 655 837 645 891 644 c 0
 937 643 979 639 1014 633 c 0
 1049 627 1092 618 1144 604 c 0
 1196 590 1231 580 1249 576 c 0
 1273 570 1308 552 1355 520 c 0
 1402 488 1430 463 1440 445 c 1
 1440 120 l 1
 1438 116 1434 111 1428 106 c 0
 1422 101 1416 94 1406 87 c 0
 1396 80 1389 75 1385 71 c 0
 1328 25 1273 0 1221 -3 c 0
 1192 -5 1104 -6 957 -6 c 1x7a
 954 -9 950 -12 946 -16 c 0
 942 -20 940 -23 939 -24 c 0
 938 -25 936 -27 933 -28 c 0
 930 -29 929 -29 928 -29 c 0xba
 927 -29 925 -28 923 -26 c 0
 921 -24 918 -21 916 -18 c 0
 914 -15 912 -11 908 -6 c 1
 723 -6 601 -4 542 -1 c 0
 528 0 517 1 510 5 c 0
 503 9 499 13 499 18 c 0
 499 23 502 27 506 32 c 0
 510 37 516 42 524 46 c 0
 535 52 571 77 631 120 c 1
 668 120 l 1
 711 115 820 112 997 112 c 2
 1280 112 l 1
 1280 212 l 2x7a
 1279 232 1279 250 1279 265 c 0
 1279 276 1279 276 1279 285 c 0
 1280 304 1280 319 1279 331 c 0
 1278 343 1275 353 1271 362 c 0
 1267 371 1258 381 1247 392 c 0
 1206 433 1159 460 1106 472 c 0
 1072 481 1038 491 1004 501 c 0
 970 511 948 518 935 521 c 0
 922 524 902 528 876 530 c 0
 850 532 813 533 768 533 c 0
 731 533 689 542 642 560 c 0
 595 578 556 600 524 626 c 0
 496 649 482 670 482 688 c 0
 482 690 482 692 482 694 c 0
 482 715 490 733 505 747 c 0
 521 761 547 779 583 800 c 0
 619 821 651 837 676 849 c 0
 691 856 710 862 733 866 c 0
 756 870 784 874 815 878 c 0
 846 882 868 886 880 888 c 0
 910 893 961 898 1034 903 c 0
 1107 908 1161 913 1196 920 c 1
 1198 943 1200 995 1200 1077 c 0
 1200 1082 1200 1082 1200 1087 c 0
 1200 1163 1198 1211 1194 1231 c 0
 1192 1237 1190 1243 1188 1248 c 0
 1186 1253 1185 1258 1184 1262 c 0
 1183 1266 1180 1270 1177 1274 c 0
 1174 1278 1171 1282 1170 1284 c 0
 1169 1286 1166 1290 1162 1294 c 0
 1158 1298 1155 1301 1153 1303 c 0
 1151 1305 1147 1307 1141 1312 c 0
 1135 1317 1131 1320 1129 1322 c 0
 1127 1324 1122 1328 1114 1334 c 0
 1106 1340 1099 1344 1096 1346 c 0
 1074 1362 1056 1374 1043 1384 c 0
 1030 1394 1012 1405 991 1419 c 0
 970 1433 951 1443 935 1451 c 0
 919 1459 899 1467 876 1476 c 0
 853 1485 831 1492 809 1497 c 0
 787 1502 763 1506 736 1509 c 0
 709 1512 680 1514 651 1514 c 0
 564 1514 499 1512 457 1507 c 1
 449 1499 423 1437 380 1321 c 0
 339 1212 319 1147 319 1127 c 0
 319 1125 319 1126 319 1124 c 0
 316 1035 314 946 314 857 c 0
 314 819 314 819 314 785 c 0
 314 728 315 678 315 636 c 0
 316 577 317 503 319 415 c 0
 321 327 322 256 323 203 c 1
 233 156 185 133 180 133 c 0
 176 133 172 135 169 138 c 0
 166 141 164 144 164 148 c 2
 164 305 l 2
 164 345 162 396 159 456 c 0
 156 516 154 572 154 623 c 2x7c
EndSplineSet
EndChar

StartChar: C
Encoding: 67 67 38
Width: 921
Flags: HW
HStem: 36 113<397.794 822.649> 1484 105<375.347 604.856>
VStem: 116 144<378.627 1309.22> 676 161<1352.97 1419.81>
LayerCount: 2
Fore
SplineSet
406 1484 m 1
 386 1465 369 1443 354 1419 c 0
 339 1395 326 1372 316 1351 c 0
 306 1330 297 1301 290 1266 c 0
 283 1231 278 1203 274 1182 c 0
 270 1161 268 1126 266 1080 c 0
 264 1034 262 1001 262 979 c 0
 262 957 261 919 260 864 c 0
 260 845 260 831 260 821 c 2
 260 678 l 2
 260 490 262 390 267 378 c 0
 272 365 285 340 306 304 c 0
 327 268 341 245 349 236 c 0
 367 214 393 194 428 176 c 0
 463 158 497 149 532 149 c 2
 890 149 l 1
 890 141 878 127 855 107 c 0
 832 87 815 75 804 69 c 0
 795 64 777 53 750 36 c 1
 592 36 l 2
 567 36 547 36 533 36 c 0
 519 36 501 37 480 37 c 0
 459 37 442 39 430 40 c 0
 418 41 404 42 387 44 c 0
 370 46 356 49 346 52 c 0
 336 55 324 58 311 62 c 0
 298 66 286 71 277 77 c 0
 268 83 258 89 248 97 c 0
 238 105 228 113 220 122 c 0
 212 131 204 142 196 154 c 0
 163 203 136 254 116 307 c 1
 116 1059 l 2
 116 1084 118 1107 120 1126 c 0
 122 1145 123 1158 124 1166 c 0
 125 1174 129 1189 134 1210 c 0
 139 1231 143 1245 145 1254 c 0
 160 1322 188 1381 229 1430 c 0
 270 1479 322 1519 384 1549 c 0
 394 1554 406 1560 418 1566 c 0
 430 1572 438 1576 441 1578 c 0
 444 1580 450 1582 458 1585 c 0
 466 1588 470 1589 472 1589 c 0
 474 1589 479 1589 488 1590 c 0
 497 1591 503 1590 509 1590 c 0
 515 1590 526 1589 541 1589 c 0
 556 1589 572 1589 587 1589 c 0
 608 1589 626 1588 642 1586 c 0
 658 1584 672 1582 684 1580 c 0
 696 1578 707 1574 717 1568 c 0
 727 1562 736 1556 743 1550 c 0
 750 1544 757 1537 765 1526 c 0
 773 1515 779 1506 784 1497 c 0
 789 1488 797 1476 805 1460 c 0
 818 1434 826 1417 830 1408 c 0
 834 1399 837 1389 837 1381 c 0
 837 1378 815 1365 772 1342 c 0
 729 1319 706 1307 702 1307 c 0
 694 1307 685 1317 676 1338 c 0
 669 1355 657 1376 642 1402 c 0
 627 1428 615 1445 606 1453 c 0
 582 1474 532 1484 455 1484 c 2
 406 1484 l 1
EndSplineSet
EndChar

StartChar: D
Encoding: 68 68 39
Width: 1568
Flags: HW
HStem: -7 115<658 1178.91> 1436 112<272.785 804.307>
VStem: 38 156<47.6689 1368.26> 73 157<8.39062 693.766> 1364 158<447.753 1030.64>
LayerCount: 2
Fore
SplineSet
194 545 m 1xe8
 206 499 214 450 219 398 c 0
 224 346 228 282 230 208 c 0
 232 134 235 78 238 38 c 1
 162 -7 115 -30 97 -30 c 0
 96 -30 94 -28 90 -26 c 0
 86 -24 84 -22 84 -21 c 0
 77 41 73 111 73 190 c 0
 73 196 73 196 73 201 c 0xd8
 73 281 61 374 38 481 c 1
 38 1282 l 1xe8
 42 1300 49 1317 59 1333 c 0
 69 1349 79 1364 89 1376 c 0
 99 1388 113 1399 129 1412 c 0
 145 1425 159 1436 171 1444 c 0
 183 1452 198 1461 216 1472 c 0
 222 1476 227 1479 230 1481 c 0xd8
 301 1526 399 1548 524 1548 c 2
 767 1548 l 1
 825 1536 899 1516 987 1488 c 0
 1075 1460 1142 1436 1187 1416 c 0
 1220 1401 1264 1373 1318 1334 c 0
 1372 1295 1405 1264 1417 1241 c 0
 1428 1222 1437 1202 1445 1183 c 0
 1453 1164 1461 1140 1468 1114 c 0
 1475 1088 1479 1067 1482 1054 c 0
 1485 1041 1490 1016 1497 980 c 0
 1504 944 1508 920 1510 910 c 0
 1515 886 1518 860 1520 833 c 0
 1522 808 1522 786 1522 766 c 0
 1522 764 1522 763 1522 761 c 0
 1522 740 1522 711 1521 674 c 0
 1520 637 1520 606 1520 580 c 1
 1505 537 1492 497 1480 457 c 0
 1468 417 1457 384 1448 358 c 0
 1439 332 1426 299 1408 259 c 0
 1371 177 1316 115 1241 74 c 0
 1223 64 1205 54 1189 44 c 0
 1173 34 1160 27 1152 22 c 0
 1144 17 1136 13 1128 8 c 0
 1120 3 1113 0 1106 -1 c 0
 1099 -2 1092 -3 1085 -5 c 0
 1078 -7 1068 -7 1054 -7 c 0
 1040 -7 1026 -6 1012 -6 c 0
 998 -6 977 -5 949 -5 c 0
 921 -5 891 -4 862 -4 c 0
 684 -4 564 -4 501 -3 c 1
 658 108 l 1
 1169 108 l 1
 1205 144 1233 182 1252 222 c 0
 1271 262 1293 319 1317 393 c 0
 1329 431 1345 473 1364 519 c 1
 1364 722 l 2
 1364 751 1359 792 1349 846 c 0
 1339 900 1334 940 1334 964 c 0
 1334 986 1324 1023 1303 1075 c 0
 1282 1127 1266 1160 1254 1174 c 0
 1243 1186 1215 1209 1169 1243 c 0
 1147 1259 1126 1274 1104 1286 c 0
 1082 1298 1062 1310 1044 1318 c 0
 1026 1326 1003 1335 974 1344 c 0
 945 1353 921 1361 902 1366 c 0
 883 1371 852 1379 809 1390 c 0
 719 1413 658 1426 628 1430 c 0
 598 1434 533 1436 433 1436 c 0
 366 1436 320 1434 296 1430 c 0
 272 1426 252 1415 235 1396 c 0
 230 1391 226 1384 221 1374 c 0
 216 1364 213 1357 211 1351 c 0
 209 1345 205 1336 201 1322 c 0
 197 1308 194 1300 194 1299 c 2
 194 545 l 1xe8
EndSplineSet
EndChar

StartChar: E
Encoding: 69 69 40
Width: 1048
Flags: HW
HStem: 23 94<422.094 882> 560 100<530.581 822.574> 631 99<224.673 530.406> 1464 95<289.797 838.174>
VStem: 25 135<359.125 524.633> 91 123<1050.29 1363.86>
LayerCount: 2
Fore
SplineSet
332 730 m 0xb8
 334 730 335 730 338 730 c 0xb8
 373 730 410 727 448 721 c 0
 488 714 524 707 554 699 c 0
 584 691 619 682 658 674 c 0
 697 666 733 662 766 660 c 1
 823 660 l 1
 778 690 l 1
 749 711 721 727 694 736 c 0
 667 745 627 756 574 767 c 0
 532 776 494 782 460 788 c 0
 426 794 389 800 348 808 c 0
 315 814 285 823 259 833 c 0
 233 843 210 857 190 873 c 0
 170 889 152 905 137 922 c 0
 122 939 107 961 91 986 c 1
 91 1095 l 2
 91 1203 104 1288 129 1352 c 0
 154 1416 200 1468 266 1510 c 0
 299 1531 327 1544 349 1550 c 0
 371 1556 407 1559 458 1559 c 2
 490 1559 l 2
 612 1559 681 1559 698 1558 c 0
 715 1557 766 1553 850 1546 c 0
 858 1545 866 1545 876 1544 c 0
 886 1543 893 1542 899 1542 c 0
 905 1542 911 1542 917 1541 c 0
 923 1540 929 1540 932 1539 c 0
 935 1538 939 1537 942 1535 c 0
 945 1533 947 1531 948 1529 c 0
 949 1527 950 1524 950 1520 c 0
 950 1513 915 1487 844 1442 c 1
 719 1454 639 1460 604 1462 c 0
 569 1464 476 1464 323 1464 c 1
 250 1381 214 1275 214 1146 c 2
 214 1113 l 2
 215 1077 217 1056 221 1050 c 0
 256 991 296 951 340 931 c 0
 363 920 406 908 466 894 c 0
 526 880 573 872 607 870 c 0
 666 866 727 852 790 828 c 0
 853 804 899 777 927 747 c 1
 938 733 944 715 944 693 c 0
 944 680 944 670 942 662 c 0
 940 654 937 646 931 639 c 0
 925 632 921 626 917 623 c 0
 913 620 905 614 894 605 c 0
 855 576 791 561 701 560 c 2
 675 560 l 1xd4
 647 562 606 569 553 581 c 0
 500 593 446 605 391 616 c 0
 338 626 292 631 254 631 c 0
 252 631 253 631 251 631 c 0
 190 539 160 466 160 412 c 1
 163 404 166 397 170 391 c 0
 174 385 177 381 180 378 c 0
 183 375 191 369 202 361 c 0
 213 353 223 345 231 338 c 0
 269 308 303 278 331 249 c 0
 348 231 360 219 368 210 c 0
 376 201 388 190 401 178 c 0
 414 166 425 157 434 151 c 0
 443 145 454 139 467 133 c 0
 480 127 493 122 506 120 c 0
 519 118 533 117 548 117 c 2
 1016 117 l 1
 882 23 l 1
 685 23 l 2
 557 23 484 24 466 26 c 0
 380 34 299 78 222 158 c 0
 191 190 150 229 98 275 c 0
 89 283 80 290 70 298 c 0
 60 306 52 312 48 315 c 0
 44 318 39 322 35 328 c 0
 31 334 28 340 27 347 c 0
 26 354 25 363 25 374 c 0
 25 395 27 417 33 438 c 0
 39 459 48 482 60 506 c 0
 72 530 82 547 89 559 c 0
 96 571 107 589 122 613 c 0
 141 644 173 670 215 694 c 0
 257 718 296 730 332 730 c 0xb8
EndSplineSet
EndChar

StartChar: F
Encoding: 70 70 41
Width: 987
Flags: HW
HStem: 762 86<180.282 520.619> 1508 81<240.29 905.164>
VStem: 61 115<233.37 757.336 1001.41 1407.97>
LayerCount: 2
Fore
SplineSet
203 762 m 1
 186 737 176 714 172 693 c 0
 168 672 167 633 166 578 c 0
 166 566 165 557 165 551 c 2
 165 451 l 1
 169 438 177 405 190 352 c 0
 203 299 213 256 224 224 c 0
 235 192 248 163 264 137 c 0
 267 132 271 127 274 122 c 0
 277 117 279 113 281 110 c 0
 283 107 284 105 286 102 c 0
 288 99 289 97 289 96 c 0
 289 95 290 93 290 92 c 0
 290 88 276 79 247 64 c 0
 218 49 200 39 192 36 c 1
 182 39 172 51 160 70 c 0
 148 89 138 108 130 128 c 0
 122 148 116 165 112 179 c 0
 107 199 101 221 94 246 c 0
 87 271 80 294 74 318 c 0
 68 342 60 371 52 407 c 1
 52 518 l 2
 52 522 52 521 52 529 c 0
 52 555 52 573 52 584 c 0
 52 595 53 610 54 627 c 0
 55 644 55 657 57 665 c 0
 59 673 62 683 65 694 c 0
 68 705 72 715 77 722 c 0
 82 729 89 737 96 746 c 0
 103 755 111 763 121 773 c 0
 138 790 160 808 188 824 c 0
 216 840 240 848 260 848 c 2
 523 848 l 1
 230 923 l 1
 220 923 220 923 204 923 c 0
 188 923 188 923 180 923 c 0
 175 923 167 924 158 924 c 0
 149 924 143 925 138 925 c 0
 133 925 127 926 120 927 c 0
 113 928 107 930 103 932 c 0
 99 934 95 936 90 938 c 0
 85 940 81 943 78 947 c 0
 75 951 71 955 68 960 c 0
 65 965 63 969 61 975 c 1
 61 1261 l 2
 62 1275 65 1289 68 1300 c 0
 71 1311 76 1324 82 1338 c 0
 88 1352 92 1366 96 1379 c 0
 108 1424 134 1465 174 1503 c 0
 214 1541 257 1568 303 1585 c 0
 312 1588 430 1590 657 1590 c 0
 780 1590 857 1590 887 1589 c 2
 917 1589 l 2
 926 1589 931 1585 931 1578 c 1
 926 1568 920 1561 912 1554 c 0
 904 1547 894 1539 880 1531 c 0
 866 1523 855 1515 846 1508 c 1
 272 1508 l 1
 243 1479 223 1448 213 1415 c 0
 210 1404 206 1391 200 1374 c 0
 194 1357 190 1345 188 1338 c 0
 186 1331 183 1320 181 1306 c 0
 179 1292 177 1276 176 1260 c 0
 175 1244 176 1224 176 1200 c 2
 176 1011 l 1
 205 1004 244 996 294 989 c 0
 344 982 386 975 422 970 c 0
 458 965 496 957 534 944 c 0
 572 931 600 915 619 896 c 0
 626 889 634 881 644 874 c 0
 654 867 661 861 666 856 c 0
 671 851 676 844 679 835 c 1
 679 830 678 826 677 822 c 1
 659 804 633 788 599 773 c 0
 581 766 449 762 203 762 c 1
EndSplineSet
EndChar

StartChar: G
Encoding: 71 71 42
Width: 1490
Flags: HW
HStem: 43 88<564.361 1264.71> 651 21G<580 585.5> 736 100<706.189 1025.26> 736 84<706.189 876.825> 1538 97<552.277 1025.24>
VStem: 28 105<668.314 1171.7>
LayerCount: 2
Fore
SplineSet
1232 131 m 1xec
 1285 189 1315 265 1324 360 c 1
 1314 438 1287 509 1242 572 c 1
 1216 591 1176 611 1120 632 c 1
 1088 655 1060 673 1034 687 c 0
 1008 701 976 712 940 722 c 0
 904 732 865 736 823 736 c 2
 722 736 l 1xec
 716 726 710 715 706 703 c 1
 684 694 663 685 643 676 c 0
 623 667 610 661 602 658 c 0
 594 655 588 653 583 651 c 1
 577 651 572 652 569 655 c 0
 566 658 565 662 565 667 c 0
 565 671 580 701 609 759 c 1
 642 783 674 803 704 820 c 1
 734 820 l 2xdc
 741 820 760 823 792 828 c 0
 824 833 853 836 878 836 c 0
 901 836 923 836 945 834 c 0
 967 832 985 830 999 828 c 0
 1013 826 1031 823 1051 818 c 0
 1071 813 1086 809 1095 806 c 0
 1104 803 1120 798 1144 790 c 0
 1168 782 1184 777 1193 774 c 0
 1284 745 1352 687 1398 599 c 0
 1437 525 1456 461 1456 408 c 0
 1456 349 1442 291 1414 235 c 0
 1386 179 1350 132 1304 96 c 0
 1258 60 1210 43 1160 43 c 2
 950 43 l 2
 919 43 884 43 844 43 c 0
 804 43 782 42 777 42 c 0
 772 42 757 42 731 44 c 0
 705 46 685 47 672 49 c 0
 659 51 630 54 583 59 c 0
 555 62 531 66 509 70 c 0
 487 74 467 80 448 87 c 0
 429 94 413 101 400 108 c 0
 387 115 372 124 355 138 c 0
 338 152 323 164 311 174 c 0
 299 184 283 200 261 221 c 0
 233 247 208 277 184 310 c 0
 160 343 140 380 121 420 c 0
 102 460 86 498 72 536 c 0
 58 574 43 617 28 666 c 1
 28 1129 l 1
 50 1196 91 1262 150 1329 c 0
 203 1388 246 1429 280 1453 c 0
 314 1477 369 1507 448 1542 c 0
 465 1550 485 1559 508 1570 c 0
 531 1581 549 1589 560 1594 c 0
 571 1599 584 1605 602 1611 c 0
 620 1617 636 1622 650 1625 c 0
 664 1628 682 1630 703 1632 c 0
 724 1634 748 1635 774 1635 c 0
 838 1635 882 1633 904 1631 c 0
 926 1629 969 1621 1031 1607 c 0
 1062 1600 1102 1593 1152 1583 c 0
 1202 1573 1250 1563 1294 1552 c 0
 1325 1545 1327 1532 1299 1512 c 0
 1286 1502 1256 1481 1209 1449 c 1
 1191 1456 1168 1464 1140 1470 c 0
 1112 1476 1079 1483 1042 1490 c 0
 1005 1497 983 1500 975 1502 c 0
 919 1514 870 1523 828 1529 c 0
 789 1535 747 1538 702 1538 c 0
 698 1538 695 1537 691 1537 c 0
 642 1537 598 1531 559 1520 c 0
 530 1512 505 1504 486 1497 c 0
 467 1490 450 1484 438 1479 c 0
 426 1474 412 1467 398 1456 c 0
 384 1445 373 1436 365 1430 c 0
 357 1424 343 1410 321 1391 c 0
 250 1327 199 1243 166 1138 c 0
 144 1068 133 993 133 914 c 0
 133 875 136 835 141 794 c 0
 145 763 160 713 187 643 c 0
 214 573 237 519 256 480 c 0
 277 438 310 389 357 334 c 0
 404 279 445 241 480 221 c 0
 531 191 568 172 588 164 c 0
 628 148 680 138 745 134 c 0
 776 132 815 131 863 131 c 2
 1232 131 l 1xec
EndSplineSet
EndChar

StartChar: H
Encoding: 72 72 43
Width: 1777
Flags: HW
HStem: -36 113<1313.47 1400.94> 588 110<730.702 1330.18> 869 92<4.47021 97.6761>
VStem: 149 84<499 746> 187 89<241.925 374> 1536 111<239.285 354> 1573 122<486 716>
LayerCount: 2
Fore
SplineSet
40 961 m 0xf0
 53 959 64 956 74 950 c 0
 84 944 96 938 108 930 c 0
 120 922 133 915 147 910 c 1
 333 1454 l 1
 392 1559 l 1
 397 1571 404 1578 416 1582 c 0
 428 1586 439 1586 451 1582 c 0
 463 1578 473 1573 482 1564 c 0
 491 1555 496 1545 496 1535 c 1
 425 1408 l 1
 240 868 l 1
 254 861 285 842 335 814 c 0
 385 786 433 761 481 740 c 1
 827 698 l 1
 1078 698 l 2
 1083 698 1088 698 1094 698 c 0
 1114 698 1139 700 1169 705 c 0
 1208 711 1243 718 1273 726 c 0
 1303 734 1342 745 1390 758 c 0
 1438 771 1467 779 1478 782 c 0
 1526 795 1563 815 1588 844 c 1
 1363 1512 l 1
 1319 1538 l 1
 1311 1548 1307 1558 1307 1569 c 0
 1307 1580 1311 1589 1318 1597 c 0
 1325 1605 1333 1611 1343 1616 c 0
 1353 1621 1363 1622 1375 1620 c 0
 1387 1618 1397 1613 1406 1604 c 1
 1494 1446 l 1
 1655 964 l 1
 1666 974 1680 979 1696 980 c 0
 1712 981 1725 977 1737 969 c 0
 1749 961 1755 949 1755 933 c 0
 1755 920 1751 908 1744 894 c 0
 1737 880 1728 866 1717 852 c 0
 1706 838 1699 826 1695 819 c 1
 1695 486 l 1xf2
 1647 354 l 1
 1647 270 l 1
 1628 246 1600 210 1563 162 c 0
 1526 114 1496 77 1474 49 c 0
 1452 21 1438 7 1433 5 c 1
 1402 -23 1375 -36 1351 -36 c 0
 1335 -36 1323 -31 1313 -20 c 0
 1303 -9 1298 5 1298 22 c 0
 1298 45 1319 63 1360 77 c 1
 1390 104 1448 177 1536 297 c 1xe4
 1535 370 l 1
 1573 499 l 1
 1573 716 l 1
 1531 693 1485 676 1434 665 c 0
 1402 658 1377 651 1358 644 c 0
 1339 637 1326 632 1320 627 c 0
 1314 622 1303 616 1286 609 c 0
 1269 602 1247 595 1220 588 c 1
 822 588 l 1
 459 645 l 2
 450 646 421 659 373 681 c 0
 325 703 295 718 284 724 c 1
 233 746 l 1
 233 499 l 1xf2
 276 374 l 1
 276 297 l 1
 284 286 304 261 338 221 c 0
 372 181 395 151 407 129 c 0
 424 98 439 80 453 75 c 0
 480 65 494 51 494 32 c 0
 494 16 489 3 481 -9 c 0
 473 -21 462 -27 449 -27 c 0
 433 -27 419 -24 404 -16 c 0
 389 -8 375 2 363 16 c 0
 351 30 341 44 332 56 c 0
 323 68 314 82 304 99 c 0
 294 116 286 127 282 133 c 0
 280 136 270 148 253 170 c 0
 236 192 221 212 209 230 c 0
 197 248 189 261 187 270 c 1
 187 354 l 1xe8
 149 481 l 1
 149 804 l 1
 78 831 32 853 9 869 c 0
 -3 877 -9 889 -10 905 c 0
 -11 921 -6 934 4 946 c 0
 14 958 26 963 40 961 c 0xf0
EndSplineSet
EndChar

StartChar: I
Encoding: 73 73 44
Width: 565
Flags: HW
HStem: 15 21G<102 103.5> 1602 20G<107.5 129.5>
VStem: 55 129<1524.12 1619.95> 325 138<383.938 1119.96>
LayerCount: 2
Fore
SplineSet
55 1605 m 1
 76 1617 97 1622 118 1622 c 0
 141 1622 163 1615 184 1601 c 1
 184 1582 l 1
 190 1571 206 1549 232 1517 c 0
 258 1485 278 1458 292 1437 c 0
 306 1416 319 1397 328 1382 c 0
 337 1367 346 1350 354 1334 c 0
 362 1318 367 1306 370 1299 c 0
 373 1292 379 1276 388 1253 c 0
 397 1230 404 1213 408 1203 c 0
 419 1176 426 1153 431 1133 c 0
 436 1113 440 1086 445 1054 c 0
 450 1022 456 990 463 959 c 1
 463 503 l 1
 456 475 449 453 442 434 c 0
 435 415 428 401 423 392 c 0
 418 383 407 367 391 344 c 0
 375 321 361 301 350 283 c 0
 312 225 286 179 271 145 c 0
 257 112 243 89 231 76 c 0
 219 63 196 51 163 38 c 0
 155 35 146 32 136 28 c 0
 126 24 119 21 114 19 c 0
 109 17 105 16 102 15 c 1
 102 17 102 20 100 25 c 0
 98 30 97 34 96 37 c 0
 95 40 96 45 99 50 c 0
 116 72 136 106 158 152 c 0
 180 198 203 237 226 269 c 0
 241 291 253 310 263 326 c 0
 273 342 280 359 286 376 c 0
 292 393 296 407 299 418 c 0
 302 429 306 446 311 471 c 0
 316 496 321 517 325 536 c 1
 325 921 l 1
 316 955 309 991 304 1027 c 0
 296 1072 280 1127 254 1191 c 0
 228 1255 203 1304 180 1337 c 0
 148 1381 106 1445 55 1528 c 1
 55 1605 l 1
EndSplineSet
EndChar

StartChar: J
Encoding: 74 74 45
Width: 966
Flags: HW
HStem: 67 97<304.227 490.998>
VStem: 788 132<533.231 1182.55>
LayerCount: 2
Fore
SplineSet
331 67 m 0
 305 67 263 81 207 110 c 0
 151 139 92 174 30 217 c 1
 30 224 33 231 37 238 c 0
 41 245 47 252 55 258 c 0
 63 264 69 269 76 273 c 0
 83 277 91 281 98 285 c 0
 105 289 109 291 109 291 c 0
 112 293 116 296 120 300 c 0
 124 304 128 306 130 307 c 0
 132 308 135 308 138 308 c 0
 141 308 145 306 149 302 c 0
 167 284 214 255 289 216 c 0
 356 181 397 164 411 164 c 0
 413 164 414 164 415 164 c 0
 470 164 527 187 586 233 c 0
 600 244 611 254 620 263 c 0
 629 272 636 278 640 282 c 0
 644 286 650 293 659 304 c 0
 673 321 673 322 680 330 c 2
 704 360 l 2
 744 411 772 459 788 506 c 1
 788 685 l 2
 788 744 788 795 786 840 c 0
 784 885 783 915 782 932 c 0
 781 949 777 979 772 1023 c 0
 767 1067 763 1096 762 1110 c 1
 755 1122 747 1156 738 1212 c 0
 730 1262 708 1323 672 1395 c 0
 632 1475 607 1532 597 1564 c 1
 606 1564 610 1567 610 1574 c 0
 610 1577 643 1592 709 1620 c 1
 726 1620 735 1620 737 1619 c 1
 748 1589 765 1545 788 1489 c 0
 817 1419 840 1358 856 1307 c 0
 872 1256 885 1199 895 1137 c 0
 905 1075 911 1013 914 953 c 0
 917 893 919 811 920 706 c 1
 920 661 l 2
 920 601 918 558 915 532 c 0
 912 509 880 454 820 369 c 0
 739 256 635 172 507 118 c 0
 427 84 368 67 331 67 c 0
EndSplineSet
EndChar

StartChar: K
Encoding: 75 75 46
Width: 1421
Flags: HW
HStem: 186 85<1107.45 1272> 1428 84<699.65 1201.34>
VStem: 55 119<1427.45 1621.5>
LayerCount: 2
Fore
SplineSet
1202 1401 m 1
 1188 1404 1171 1408 1152 1413 c 0
 1133 1418 1120 1422 1111 1424 c 0
 1102 1426 1088 1427 1068 1428 c 0
 1057 1428 1044 1428 1030 1428 c 0
 1018 1428 1004 1428 990 1428 c 0
 975 1428 951 1428 918 1428 c 0
 885 1428 862 1427 849 1427 c 1
 841 1425 817 1422 776 1418 c 0
 723 1413 682 1401 652 1385 c 0
 622 1369 591 1340 559 1298 c 0
 552 1289 535 1269 509 1240 c 0
 483 1211 458 1185 438 1161 c 0
 418 1137 400 1110 382 1078 c 0
 364 1046 355 1017 355 993 c 0
 355 987 353 981 349 976 c 1
 352 963 356 949 359 931 c 0
 362 913 364 900 365 891 c 0
 366 882 369 864 372 838 c 0
 375 812 377 798 377 794 c 1
 414 757 457 712 506 660 c 0
 513 653 522 642 533 630 c 0
 544 618 552 610 555 606 c 0
 558 602 563 598 571 590 c 0
 579 582 584 576 587 574 c 0
 590 572 595 568 603 562 c 0
 611 556 618 552 625 548 c 0
 632 544 641 538 652 531 c 0
 681 514 702 499 714 486 c 0
 742 457 802 424 894 386 c 0
 986 348 1067 321 1138 306 c 0
 1149 304 1166 300 1188 294 c 0
 1210 288 1228 285 1244 282 c 0
 1260 279 1278 277 1299 275 c 0
 1306 274 1314 274 1323 273 c 0
 1332 272 1337 271 1340 271 c 0
 1343 271 1347 269 1351 268 c 0
 1355 267 1359 265 1362 263 c 0
 1365 261 1369 257 1374 252 c 1
 1373 251 1355 240 1323 218 c 0
 1291 196 1274 185 1272 184 c 1
 1272 186 l 1
 1241 186 1216 187 1198 190 c 0
 1180 193 1159 198 1135 205 c 0
 1111 212 1089 218 1068 222 c 0
 868 266 711 332 598 421 c 0
 591 426 573 440 542 462 c 0
 511 484 483 506 460 525 c 0
 437 544 417 564 400 584 c 1
 400 605 l 1
 398 594 393 572 386 539 c 0
 379 506 373 478 368 457 c 0
 363 436 357 409 348 376 c 0
 339 343 331 315 323 292 c 0
 315 269 305 247 294 224 c 0
 283 201 272 183 261 170 c 0
 245 151 234 138 227 130 c 0
 220 122 212 113 202 103 c 0
 192 93 185 87 182 84 c 0
 179 81 173 77 163 70 c 0
 153 63 145 58 140 56 c 0
 135 54 126 48 110 40 c 0
 94 32 80 24 67 17 c 1
 67 28 l 1
 42 20 29 23 29 38 c 0
 29 41 29 44 30 46 c 0
 31 48 33 51 36 53 c 0
 39 55 41 57 43 58 c 0
 45 59 49 61 55 64 c 0
 61 67 65 68 68 70 c 0
 84 78 104 97 128 128 c 0
 129 130 129 131 130 132 c 0
 164 170 187 220 200 283 c 1
 215 346 224 392 230 420 c 0
 236 448 242 483 248 526 c 0
 254 569 257 614 258 658 c 2
 258 733 l 1
 254 739 247 746 236 754 c 1
 231 882 220 979 201 1044 c 0
 196 1060 188 1090 176 1134 c 0
 164 1178 154 1216 146 1245 c 0
 138 1274 128 1306 116 1342 c 0
 104 1378 92 1407 81 1429 c 1
 64 1460 55 1501 55 1553 c 2
 55 1598 l 1
 116 1632 150 1649 157 1649 c 0
 163 1649 169 1644 174 1634 c 1
 174 1591 l 2
 174 1548 182 1510 198 1476 c 0
 210 1451 221 1422 233 1390 c 0
 245 1358 253 1331 260 1309 c 0
 267 1287 276 1255 288 1214 c 0
 300 1173 308 1144 313 1126 c 1
 331 1150 345 1170 357 1185 c 0
 369 1200 378 1211 383 1217 c 0
 388 1223 396 1232 407 1244 c 0
 418 1256 427 1265 435 1274 c 0
 492 1338 547 1385 598 1415 c 0
 637 1437 667 1454 687 1464 c 0
 707 1474 730 1485 755 1493 c 0
 780 1501 803 1507 826 1509 c 0
 849 1511 878 1512 914 1512 c 2
 1101 1512 l 2
 1160 1512 1220 1503 1282 1484 c 0
 1292 1481 1297 1477 1297 1471 c 0
 1297 1462 1284 1449 1257 1430 c 0
 1230 1411 1212 1401 1202 1401 c 1
EndSplineSet
EndChar

StartChar: L
Encoding: 76 76 47
Width: 1064
Flags: HW
HStem: -35 125<435.411 1020.22>
VStem: 35 115<474.559 1314.88>
LayerCount: 2
Fore
SplineSet
1047 52 m 0
 1047 35 1027 12 988 -18 c 0
 971 -31 963 -37 964 -35 c 1
 464 -35 l 1
 413 -22 363 4 313 45 c 0
 263 86 221 133 185 186 c 0
 149 239 123 293 106 348 c 0
 98 374 86 400 71 424 c 0
 56 448 44 478 35 514 c 1
 35 1114 l 1
 40 1160 47 1205 58 1248 c 0
 69 1291 82 1337 98 1387 c 0
 114 1437 125 1477 133 1509 c 0
 143 1554 154 1585 165 1603 c 0
 176 1621 198 1637 229 1652 c 0
 255 1665 269 1671 270 1671 c 0
 276 1671 282 1667 287 1659 c 0
 292 1651 294 1643 294 1634 c 0
 294 1626 292 1619 288 1613 c 0
 284 1607 280 1600 274 1594 c 0
 268 1588 264 1583 262 1580 c 0
 232 1472 207 1375 190 1292 c 0
 173 1209 160 1116 152 1012 c 0
 151 996 150 917 150 776 c 2
 150 631 l 2
 150 626 150 619 152 610 c 0
 154 601 157 591 160 580 c 0
 163 569 166 560 168 553 c 0
 170 546 174 537 178 525 c 0
 182 513 184 507 184 507 c 2
 210 429 l 1
 223 397 236 368 250 342 c 0
 264 316 280 288 298 262 c 0
 316 236 335 213 355 193 c 0
 375 173 399 156 425 140 c 0
 451 124 479 113 508 105 c 0
 519 102 529 100 535 98 c 0
 541 96 549 95 559 94 c 0
 569 93 577 91 582 91 c 0
 587 91 597 90 612 90 c 0
 627 90 641 90 651 90 c 0
 661 90 680 90 707 90 c 0
 734 90 759 90 782 90 c 2
 1022 90 l 2
 1039 90 1047 77 1047 52 c 0
EndSplineSet
EndChar

StartChar: M
Encoding: 77 77 48
Width: 2322
Flags: HW
HStem: 751 21G<1102.5 1115 1166 1206.19> 1352 96<393.835 810.077> 1440 104<1448 1765.11>
VStem: 36 136<349.82 1048.76> 990 148<849.75 1172.91> 2139 139<473.288 1080.01>
LayerCount: 2
Fore
SplineSet
197 1002 m 1xdc
 184 982 176 946 174 894 c 0
 173 875 172 854 172 832 c 0
 172 794 173 752 176 706 c 0
 180 633 182 593 182 585 c 0
 182 565 183 548 185 534 c 0
 187 520 190 504 194 486 c 0
 198 468 201 450 203 434 c 0
 205 417 207 403 208 394 c 0
 209 385 212 375 214 364 c 0
 216 353 218 344 219 340 c 0
 220 336 222 329 226 317 c 0
 230 305 232 297 234 292 c 0
 236 287 239 276 245 258 c 0
 251 240 257 226 261 214 c 0
 285 144 308 99 329 78 c 1
 342 73 348 67 348 60 c 0
 348 51 338 40 319 29 c 0
 281 6 253 -12 236 -26 c 0
 232 -29 228 -31 224 -31 c 0
 220 -31 217 -30 213 -28 c 0
 209 -26 205 -23 201 -19 c 0
 197 -15 194 -11 190 -6 c 0
 186 -1 183 4 180 9 c 0
 177 14 173 19 170 25 c 0
 167 31 165 36 163 40 c 0
 161 44 159 49 157 53 c 0
 107 165 75 265 62 354 c 0
 59 372 56 393 51 417 c 0
 46 441 43 462 41 480 c 0
 39 498 37 520 36 548 c 2
 36 967 l 1
 42 979 52 996 64 1020 c 0
 76 1044 87 1063 94 1077 c 0
 101 1091 111 1110 124 1132 c 0
 137 1154 148 1173 158 1187 c 0
 168 1201 178 1218 192 1237 c 0
 206 1256 220 1272 232 1286 c 0
 244 1300 258 1314 274 1328 c 0
 290 1342 306 1354 322 1364 c 0
 328 1368 336 1373 347 1380 c 0
 358 1387 365 1392 369 1394 c 0
 373 1396 378 1401 386 1406 c 0
 394 1411 400 1414 404 1416 c 0
 408 1418 413 1419 420 1423 c 0
 427 1427 433 1429 438 1430 c 0
 443 1431 450 1434 458 1436 c 0
 466 1438 474 1440 482 1442 c 0
 490 1444 500 1446 511 1448 c 1
 565 1448 l 2xdc
 604 1448 641 1449 673 1451 c 0
 705 1453 729 1456 743 1458 c 0
 757 1460 774 1460 792 1460 c 0
 810 1460 829 1457 850 1453 c 0
 864 1450 886 1437 916 1414 c 0
 946 1391 977 1364 1008 1334 c 0
 1039 1304 1066 1270 1090 1234 c 0
 1114 1198 1126 1169 1126 1145 c 0
 1126 1124 1128 1102 1132 1077 c 0
 1136 1052 1137 1027 1138 1003 c 0
 1138 986 1139 971 1140 961 c 0
 1141 951 1143 940 1146 929 c 0
 1149 918 1151 911 1152 908 c 0
 1153 905 1158 895 1165 880 c 0
 1172 865 1177 855 1180 849 c 1
 1180 885 l 1
 1183 894 1189 910 1198 932 c 0
 1207 954 1213 970 1216 979 c 0
 1219 988 1224 1002 1230 1021 c 0
 1236 1040 1241 1056 1244 1069 c 0
 1247 1082 1250 1097 1254 1116 c 0
 1258 1135 1261 1153 1263 1172 c 0
 1265 1191 1266 1212 1267 1233 c 0
 1270 1308 1279 1362 1294 1395 c 0
 1309 1428 1341 1460 1387 1492 c 0
 1430 1522 1464 1539 1489 1544 c 1
 1518 1544 l 2
 1529 1544 1545 1545 1567 1546 c 0
 1589 1547 1604 1548 1613 1548 c 2
 1636 1548 l 2
 1650 1549 1662 1550 1674 1550 c 0
 1690 1550 1705 1548 1717 1546 c 0
 1739 1542 1762 1537 1787 1527 c 0
 1812 1517 1832 1511 1847 1507 c 0
 1865 1503 1903 1485 1959 1454 c 0
 2015 1423 2049 1401 2060 1390 c 0
 2076 1373 2105 1338 2146 1288 c 0
 2187 1238 2212 1205 2220 1190 c 0
 2235 1161 2248 1114 2260 1048 c 0
 2272 982 2278 924 2278 874 c 0
 2278 771 2271 674 2255 584 c 0
 2239 494 2217 392 2187 280 c 0
 2181 256 2174 238 2166 226 c 0
 2158 214 2150 209 2139 209 c 1
 2139 210 l 1
 2120 193 2088 172 2042 148 c 0
 1996 124 1965 104 1949 89 c 0
 1929 70 1910 56 1893 48 c 0
 1876 40 1851 31 1820 22 c 0
 1789 13 1758 1 1728 -13 c 1
 1810 64 l 1
 1854 103 1899 134 1943 156 c 0
 1990 179 2020 203 2032 227 c 0
 2062 284 2079 334 2084 376 c 0
 2088 404 2094 448 2104 508 c 0
 2114 568 2121 622 2126 668 c 0
 2131 714 2134 761 2134 810 c 0
 2134 909 2125 989 2106 1049 c 0
 2087 1109 2052 1166 2003 1221 c 0
 1956 1273 1928 1303 1918 1311 c 1
 1881 1336 1850 1354 1827 1367 c 0
 1804 1380 1786 1388 1774 1392 c 0
 1762 1396 1743 1403 1716 1411 c 0
 1689 1419 1661 1429 1632 1440 c 1
 1538 1440 l 1xbc
 1520 1449 1505 1454 1493 1454 c 2
 1448 1454 l 1
 1439 1437 1432 1406 1426 1361 c 0
 1420 1316 1416 1269 1412 1220 c 0
 1408 1171 1404 1138 1400 1121 c 0
 1368 990 1335 895 1302 837 c 0
 1294 822 1262 801 1208 772 c 2
 1170 751 l 1
 1162 764 1152 770 1140 769 c 0
 1128 768 1118 760 1112 745 c 1
 1093 745 1076 751 1060 765 c 0
 1044 779 1032 796 1022 817 c 0
 1012 838 1006 861 1000 884 c 0
 994 907 991 930 990 952 c 0
 990 954 989 962 989 976 c 0
 989 990 988 1000 988 1005 c 0
 988 1010 987 1019 986 1033 c 0
 985 1047 984 1057 983 1064 c 0
 982 1071 980 1079 978 1091 c 0
 976 1103 974 1112 971 1120 c 0
 968 1128 965 1136 961 1145 c 0
 957 1154 953 1162 948 1169 c 0
 937 1186 912 1213 872 1251 c 0
 832 1289 804 1314 786 1326 c 0
 768 1339 755 1346 744 1349 c 0
 735 1351 715 1352 686 1352 c 0
 680 1352 680 1352 674 1352 c 2
 534 1352 l 2
 479 1351 431 1345 392 1335 c 0
 391 1334 388 1330 382 1324 c 2
 359 1300 l 1
 333 1269 305 1224 273 1164 c 0
 241 1104 216 1050 197 1002 c 1xdc
EndSplineSet
EndChar

StartChar: N
Encoding: 78 78 49
Width: 2002
Flags: HW
HStem: 26 63<1346.51 1644.06> 1473 106<279.898 843.105>
VStem: 31 145<611.744 1306.44> 984 152<547.407 1273.29> 1832 143<484.595 1368.3>
LayerCount: 2
Fore
SplineSet
360 149 m 1
 354 144 332 131 294 110 c 0
 261 92 241 84 232 84 c 0
 230 84 230 84 229 84 c 0
 229 85 227 89 224 96 c 0
 221 103 217 112 214 121 c 0
 211 130 209 140 208 150 c 0
 205 168 199 191 188 222 c 0
 177 253 165 285 151 318 c 0
 137 351 129 373 126 383 c 2
 99 464 l 1
 75 546 58 620 47 686 c 0
 36 750 31 826 31 913 c 0
 31 917 31 917 31 921 c 2
 31 999 l 2
 32 1030 32 1055 32 1076 c 0
 32 1084 32 1085 32 1091 c 0
 32 1114 32 1134 32 1150 c 0
 32 1166 35 1181 38 1196 c 0
 41 1211 46 1231 54 1254 c 0
 81 1334 124 1404 184 1464 c 0
 244 1524 316 1561 399 1576 c 0
 404 1577 410 1578 418 1578 c 0
 426 1578 438 1579 453 1579 c 0
 475 1579 475 1579 493 1579 c 0
 511 1579 511 1579 550 1579 c 0
 589 1579 589 1579 615 1579 c 2
 682 1579 l 2
 702 1578 720 1578 737 1578 c 0
 754 1578 769 1578 783 1579 c 0
 798 1580 812 1580 824 1580 c 0
 834 1580 843 1580 852 1579 c 0
 871 1578 889 1574 906 1566 c 0
 923 1558 942 1543 962 1524 c 0
 990 1497 1011 1475 1025 1458 c 0
 1039 1441 1051 1421 1063 1399 c 0
 1075 1377 1087 1347 1099 1310 c 0
 1108 1285 1114 1265 1118 1250 c 0
 1122 1235 1127 1223 1130 1211 c 0
 1133 1199 1136 1186 1136 1170 c 0
 1136 1154 1137 1140 1137 1130 c 0
 1137 1120 1137 1099 1137 1069 c 0
 1137 1039 1136 1011 1136 986 c 0
 1136 930 1137 883 1139 845 c 0
 1141 807 1144 779 1146 762 c 0
 1148 745 1152 718 1159 680 c 0
 1166 642 1171 610 1175 585 c 0
 1189 493 1204 419 1218 362 c 0
 1232 305 1253 251 1281 199 c 1
 1307 155 1326 129 1340 123 c 0
 1386 100 1438 89 1496 89 c 0
 1516 89 1529 89 1536 89 c 0
 1543 89 1553 90 1566 90 c 0
 1579 90 1588 91 1592 92 c 0
 1596 93 1603 96 1611 98 c 0
 1619 100 1626 102 1630 106 c 0
 1634 110 1639 115 1645 120 c 0
 1651 125 1657 131 1664 138 c 0
 1705 184 1734 226 1752 266 c 0
 1770 306 1783 354 1792 412 c 0
 1814 560 1825 666 1827 731 c 1
 1830 741 1831 822 1831 973 c 0
 1831 983 1832 993 1832 1002 c 0
 1832 1135 1830 1212 1828 1231 c 0
 1825 1262 1817 1292 1805 1322 c 0
 1748 1470 1719 1555 1719 1578 c 0
 1718 1582 1720 1586 1725 1590 c 0
 1730 1594 1738 1598 1750 1604 c 0
 1762 1610 1772 1615 1777 1618 c 0
 1804 1633 1828 1644 1849 1651 c 1
 1864 1647 1869 1639 1866 1628 c 1
 1873 1610 1882 1581 1895 1541 c 0
 1908 1501 1922 1464 1936 1432 c 0
 1957 1386 1969 1352 1972 1332 c 0
 1974 1315 1975 1280 1975 1227 c 0
 1975 1209 1975 1209 1975 1189 c 2
 1975 1040 l 2
 1975 1017 1974 983 1974 940 c 0
 1974 897 1974 869 1974 856 c 0
 1974 843 1974 821 1973 790 c 0
 1972 759 1971 738 1970 728 c 0
 1969 718 1967 699 1965 674 c 0
 1963 649 1960 629 1957 615 c 0
 1954 601 1951 581 1946 554 c 0
 1941 527 1935 501 1929 476 c 0
 1923 451 1916 421 1908 386 c 1
 1888 342 1869 307 1853 280 c 0
 1837 253 1810 212 1773 158 c 0
 1766 148 1761 139 1757 134 c 0
 1735 101 1702 76 1660 56 c 0
 1618 36 1572 26 1521 26 c 0
 1509 26 1490 28 1462 30 c 0
 1434 32 1414 34 1400 34 c 0
 1373 35 1335 43 1288 58 c 0
 1241 73 1210 87 1195 100 c 0
 1174 117 1153 147 1131 190 c 0
 1109 233 1092 274 1081 314 c 2
 1058 393 l 2
 1050 421 1044 449 1039 476 c 0
 1034 503 1029 531 1025 564 c 0
 1021 597 1016 625 1012 648 c 0
 1003 699 997 733 994 751 c 0
 991 769 989 796 987 831 c 0
 985 866 984 914 984 975 c 2
 984 1014 l 2
 984 1030 984 1049 984 1073 c 0
 984 1097 985 1111 985 1117 c 0
 985 1123 983 1131 982 1144 c 0
 981 1157 979 1167 977 1176 c 0
 975 1185 970 1197 965 1212 c 0
 943 1272 917 1323 890 1367 c 0
 863 1411 830 1446 791 1473 c 1
 310 1473 l 1
 234 1382 191 1303 182 1238 c 0
 177 1196 175 1140 175 1070 c 0
 175 1046 175 1021 176 994 c 0
 178 887 181 821 186 796 c 0
 189 782 194 755 201 715 c 0
 208 675 213 647 216 632 c 0
 219 617 225 594 232 565 c 0
 239 536 246 510 254 488 c 0
 262 466 271 442 282 418 c 0
 306 364 324 317 336 277 c 0
 348 237 356 194 360 149 c 1
EndSplineSet
EndChar

StartChar: O
Encoding: 79 79 50
Width: 1347
Flags: HW
HStem: 14 106<474.326 918.267> 1518 98<331.042 701.278>
VStem: 10 133<439.974 1317.43> 1187 140<394.993 1104.82>
LayerCount: 2
Fore
SplineSet
1327 697 m 2
 1327 679 1327 680 1327 650 c 0
 1327 640 1327 641 1327 632 c 0
 1327 582 1326 548 1323 532 c 0
 1320 513 1310 478 1292 424 c 0
 1291 420 1290 416 1289 414 c 0
 1269 354 1252 313 1238 290 c 0
 1224 267 1194 234 1151 190 c 0
 1124 163 1072 130 993 92 c 0
 914 54 854 31 813 24 c 0
 781 18 741 14 694 14 c 0
 671 14 646 15 619 17 c 0
 538 22 475 32 428 49 c 0
 410 55 390 62 368 69 c 0
 346 76 328 82 316 86 c 0
 304 90 295 94 289 97 c 0
 238 122 189 165 140 227 c 0
 134 235 126 245 115 259 c 0
 104 273 98 281 96 284 c 0
 94 287 90 292 84 302 c 0
 78 312 74 322 71 330 c 0
 68 338 64 351 58 367 c 0
 55 377 49 391 42 410 c 0
 35 429 30 444 26 455 c 0
 22 466 18 479 15 496 c 0
 12 513 10 529 10 545 c 2
 10 1195 l 1
 21 1241 37 1283 56 1321 c 0
 75 1359 99 1394 126 1424 c 0
 153 1454 182 1481 213 1504 c 0
 244 1527 280 1550 320 1571 c 0
 359 1591 382 1603 391 1606 c 0
 408 1612 436 1616 474 1616 c 0
 482 1616 482 1616 543 1616 c 0
 550 1616 568 1616 598 1615 c 0
 628 1614 652 1614 673 1614 c 2
 735 1614 l 1
 792 1596 840 1575 878 1553 c 0
 916 1531 940 1513 950 1500 c 1
 994 1496 1031 1486 1060 1472 c 0
 1089 1458 1119 1435 1150 1402 c 0
 1178 1372 1197 1350 1207 1334 c 0
 1217 1318 1230 1294 1244 1259 c 0
 1255 1230 1270 1188 1288 1133 c 0
 1306 1078 1319 1035 1327 1006 c 1
 1327 697 l 2
800 1434 m 1
 785 1440 765 1448 740 1458 c 0
 703 1473 676 1483 660 1489 c 0
 644 1495 624 1501 600 1507 c 0
 576 1513 551 1517 528 1518 c 0
 514 1519 498 1518 479 1518 c 0
 466 1518 452 1518 437 1518 c 0
 388 1518 352 1515 330 1510 c 1
 317 1499 308 1492 302 1486 c 0
 296 1480 286 1471 275 1460 c 0
 264 1449 254 1438 245 1427 c 0
 217 1392 194 1350 176 1302 c 0
 158 1254 147 1206 145 1159 c 0
 144 1132 143 1045 143 898 c 2
 143 664 l 2
 144 659 146 650 150 636 c 0
 154 622 157 606 160 592 c 0
 163 578 166 564 168 549 c 0
 174 511 179 481 183 460 c 0
 187 439 194 420 202 403 c 0
 210 386 218 371 227 359 c 0
 236 347 249 331 266 310 c 0
 273 302 273 302 277 298 c 0
 310 258 340 230 368 212 c 0
 396 194 438 176 495 158 c 0
 519 150 541 143 559 138 c 0
 577 133 598 129 620 127 c 0
 642 125 657 123 666 122 c 0
 675 121 696 121 727 120 c 0
 758 119 779 118 791 117 c 0
 798 117 805 116 812 116 c 0
 858 116 901 123 940 137 c 0
 985 152 1021 174 1050 201 c 0
 1079 228 1104 261 1123 299 c 0
 1134 321 1155 380 1187 478 c 1
 1187 908 l 1
 1156 1066 1130 1164 1109 1204 c 0
 1098 1224 1087 1243 1073 1262 c 0
 1059 1281 1043 1301 1025 1320 c 0
 1007 1339 987 1354 964 1367 c 0
 941 1380 918 1387 894 1390 c 0
 886 1391 877 1392 868 1394 c 0
 859 1396 848 1399 836 1402 c 0
 824 1405 814 1409 807 1415 c 0
 800 1421 798 1427 800 1434 c 1
EndSplineSet
EndChar

StartChar: P
Encoding: 80 80 51
Width: 1294
Flags: HW
HStem: 610 129<578.49 871.949> 1516 126<412.011 893.703>
VStem: 16 141<515.194 1171.51> 1116 140<825.733 1300.2>
LayerCount: 2
Fore
SplineSet
1116 1083 m 2
 1115 1201 1085 1301 1024 1381 c 1
 1020 1384 1000 1398 964 1422 c 0
 928 1446 903 1464 888 1476 c 0
 867 1494 854 1504 850 1506 c 0
 838 1513 818 1516 791 1516 c 0
 788 1516 785 1516 782 1516 c 2
 696 1516 l 1
 633 1514 580 1510 536 1504 c 0
 492 1498 450 1487 412 1472 c 0
 379 1459 344 1426 304 1374 c 0
 264 1322 236 1271 220 1223 c 0
 216 1210 208 1187 195 1154 c 0
 182 1121 172 1093 166 1068 c 0
 160 1043 157 1017 157 991 c 2
 157 874 l 2
 157 830 160 772 166 701 c 0
 172 630 179 583 187 558 c 0
 208 492 229 434 249 386 c 0
 269 338 294 297 322 263 c 0
 389 184 453 121 516 74 c 0
 530 64 537 50 537 31 c 0
 537 12 528 -2 513 -11 c 2
 474 -35 l 1
 459 -42 446 -44 436 -42 c 0
 426 -40 415 -32 402 -19 c 0
 392 -9 367 15 326 54 c 0
 285 93 253 126 226 155 c 0
 199 184 178 210 164 234 c 0
 119 308 85 387 61 471 c 0
 37 555 24 649 19 752 c 0
 17 797 16 832 16 856 c 2
 16 971 l 2
 16 1034 32 1111 64 1201 c 0
 96 1291 133 1359 175 1407 c 0
 182 1415 192 1427 205 1444 c 0
 218 1461 231 1477 246 1492 c 0
 267 1512 296 1533 334 1555 c 0
 372 1577 406 1596 439 1610 c 0
 448 1615 485 1622 551 1630 c 0
 617 1638 658 1642 677 1642 c 2
 839 1642 l 2
 865 1642 889 1638 910 1631 c 0
 931 1624 948 1616 960 1607 c 0
 972 1598 988 1586 1008 1570 c 0
 1028 1554 1045 1541 1060 1532 c 0
 1096 1510 1125 1488 1146 1466 c 0
 1167 1444 1184 1416 1198 1381 c 0
 1204 1367 1212 1352 1222 1335 c 0
 1232 1318 1241 1304 1247 1290 c 0
 1253 1276 1256 1261 1256 1245 c 2
 1256 819 l 1
 1253 817 1247 812 1236 806 c 0
 1225 800 1216 794 1210 789 c 0
 1204 784 1203 779 1206 775 c 0
 1211 769 1210 762 1201 755 c 0
 1192 748 1180 741 1164 735 c 0
 1148 729 1135 724 1123 720 c 0
 1111 716 1103 714 1098 713 c 0
 1084 710 1058 700 1020 683 c 0
 982 666 958 656 946 654 c 1
 905 625 865 610 828 610 c 2
 727 610 l 2
 718 610 709 610 701 611 c 0
 693 612 684 613 674 615 c 0
 664 617 657 618 651 619 c 0
 645 620 636 623 626 626 c 0
 616 629 609 631 605 632 c 0
 601 633 594 636 582 640 c 0
 570 644 564 646 563 646 c 0
 562 646 555 648 544 651 c 0
 533 654 523 657 513 660 c 0
 503 663 493 666 481 670 c 0
 469 674 460 677 452 680 c 0
 444 683 438 685 436 687 c 256
 434 689 435 691 440 692 c 0
 442 692 446 692 452 693 c 0
 463 694 468 695 468 697 c 0
 468 697 458 699 440 703 c 0
 412 709 413 708 385 714 c 2
 358 719 l 1
 332 726 300 741 261 762 c 0
 258 764 252 767 246 770 c 0
 240 773 236 775 234 776 c 0
 232 777 229 779 225 782 c 0
 221 785 219 789 218 792 c 0
 217 795 215 798 214 803 c 0
 213 808 213 813 213 820 c 0
 213 835 221 849 236 860 c 2
 273 884 l 2
 280 889 288 892 298 893 c 0
 308 894 316 892 324 888 c 2
 366 866 l 1
 403 855 438 843 472 829 c 0
 506 815 532 804 552 795 c 0
 572 786 596 777 626 767 c 0
 656 757 688 750 724 744 c 1
 748 744 l 2
 752 744 752 743 762 742 c 0
 769 741 776 741 784 740 c 0
 792 739 799 739 807 739 c 2
 854 739 l 2
 865 739 871 739 872 740 c 0
 894 756 927 771 970 786 c 0
 1013 801 1043 813 1060 822 c 0
 1064 824 1069 825 1075 827 c 0
 1081 829 1089 831 1098 833 c 0
 1107 835 1114 836 1116 837 c 1
 1116 1083 l 2
EndSplineSet
EndChar

StartChar: Q
Encoding: 81 81 52
Width: 1359
Flags: HW
HStem: -245 124<973.12 1280.22> 27 123<328.737 560.44> 175 124<819.348 977.44> 1460 123<308.555 717.703>
VStem: 12 132<468.633 1249.12> 1061 132<412.758 1047.1>
LayerCount: 2
Fore
SplineSet
525 388 m 1
 523 404 527 418 538 432 c 0
 549 446 561 456 574 462 c 0
 587 468 598 472 607 472 c 0
 616 472 623 472 631 470 c 0
 639 468 647 465 655 461 c 0
 663 457 669 453 673 451 c 0
 677 449 683 444 693 436 c 0
 703 428 708 424 710 423 c 0
 806 346 873 305 911 299 c 1
 948 299 l 1
 1023 403 1061 493 1061 569 c 2
 1061 718 l 2
 1062 729 1062 741 1062 753 c 0
 1062 832 1049 922 1024 1021 c 0
 995 1135 963 1215 928 1262 c 0
 906 1292 887 1312 873 1321 c 2
 810 1363 l 2
 712 1428 629 1460 562 1460 c 0
 426 1460 323 1441 255 1402 c 1
 242 1385 230 1364 220 1341 c 0
 210 1318 201 1296 194 1274 c 0
 187 1252 182 1227 176 1197 c 0
 170 1167 165 1141 162 1120 c 0
 159 1099 156 1072 152 1040 c 0
 147 990 144 934 144 870 c 0
 144 849 145 828 145 806 c 0
 147 715 152 647 159 602 c 0
 165 565 171 531 180 499 c 0
 189 467 196 444 202 429 c 0
 208 414 218 388 234 349 c 0
 267 269 305 212 348 177 c 0
 350 176 353 174 357 170 c 0
 361 166 364 164 365 163 c 0
 366 162 368 160 371 158 c 0
 374 156 376 155 377 155 c 0
 378 155 380 153 382 152 c 0
 384 151 386 151 388 151 c 0
 390 151 392 150 394 150 c 0
 396 150 399 150 402 150 c 0
 405 150 408 152 411 152 c 0
 414 152 418 152 422 153 c 0
 508 167 555 176 562 179 c 1
 537 216 525 255 525 298 c 2
 525 388 l 1
620 82 m 1
 549 45 464 27 364 27 c 0
 312 27 252 69 185 153 c 1
 138 209 93 309 48 454 c 0
 38 486 30 537 23 609 c 0
 16 681 12 742 12 794 c 2
 12 885 l 1
 11 901 10 918 10 936 c 0
 10 993 17 1056 30 1127 c 0
 47 1219 68 1300 92 1370 c 0
 104 1404 119 1432 139 1452 c 0
 159 1472 185 1490 219 1507 c 1
 241 1507 l 1
 336 1558 433 1583 531 1583 c 2
 577 1583 l 2
 666 1583 771 1545 893 1469 c 0
 925 1449 953 1428 978 1405 c 0
 1003 1382 1027 1355 1052 1324 c 0
 1080 1291 1115 1200 1157 1050 c 0
 1166 1020 1175 975 1182 914 c 0
 1189 853 1193 801 1193 759 c 2
 1193 584 l 2
 1193 487 1157 387 1085 284 c 0
 1054 240 1034 216 1026 212 c 0
 991 187 957 175 924 175 c 0
 902 175 883 176 868 178 c 0
 853 180 840 182 830 184 c 0
 820 186 809 191 797 198 c 0
 785 205 774 213 765 219 c 0
 756 225 742 236 722 250 c 0
 702 264 682 277 663 290 c 1
 678 248 696 209 719 174 c 0
 742 139 772 102 809 66 c 0
 817 58 828 47 842 32 c 0
 860 14 874 1 883 -7 c 0
 892 -15 903 -26 918 -39 c 0
 933 -52 946 -61 956 -67 c 0
 966 -73 980 -79 996 -87 c 0
 1012 -95 1029 -100 1046 -104 c 0
 1063 -108 1083 -111 1106 -114 c 0
 1129 -117 1154 -119 1182 -121 c 1
 1259 -121 l 2
 1263 -121 1269 -108 1279 -80 c 0
 1289 -52 1294 -38 1295 -37 c 0
 1299 -37 1302 -43 1305 -55 c 0
 1308 -67 1310 -81 1311 -99 c 0
 1312 -117 1314 -131 1314 -143 c 0
 1314 -155 1314 -165 1314 -174 c 0
 1314 -191 1307 -204 1292 -214 c 2
 1263 -235 l 2
 1254 -242 1243 -245 1229 -245 c 0
 1183 -243 1147 -242 1121 -240 c 0
 1095 -238 1067 -235 1038 -231 c 0
 1009 -227 985 -222 967 -216 c 0
 949 -210 930 -202 909 -192 c 0
 888 -182 868 -170 850 -156 c 0
 832 -142 812 -125 790 -104 c 0
 725 -44 668 18 620 82 c 1
EndSplineSet
EndChar

StartChar: R
Encoding: 82 82 53
Width: 1675
Flags: HW
HStem: 670 121<500.27 1142.32> 1492 98<519.557 995.055>
VStem: 21 118<296.27 1070.58> 128 110<27.3223 155.114> 1217 127<803.031 1222.76>
LayerCount: 2
Fore
SplineSet
1574 195 m 1xe8
 1583 196 1594 190 1608 179 c 0
 1622 168 1634 153 1644 135 c 0
 1644 133 1645 129 1647 124 c 0
 1649 119 1650 115 1650 112 c 0
 1650 109 1650 105 1650 101 c 0
 1650 97 1648 94 1646 91 c 0
 1644 88 1641 86 1636 84 c 1
 1609 84 l 1
 1599 80 1585 74 1566 66 c 0
 1547 58 1531 51 1518 46 c 0
 1505 41 1489 37 1467 33 c 0
 1450 30 1432 28 1414 28 c 0
 1409 28 1403 29 1398 29 c 2
 1156 29 l 2
 1151 29 1147 28 1142 28 c 0
 1108 28 1070 34 1028 44 c 0
 980 55 934 70 887 90 c 0
 840 110 795 129 754 151 c 0
 713 173 675 195 640 217 c 0
 622 228 607 240 593 253 c 0
 579 266 567 278 559 288 c 0
 551 298 539 312 524 328 c 0
 509 344 492 361 474 376 c 0
 467 382 462 387 456 392 c 0
 450 397 445 402 441 406 c 0
 437 410 433 414 429 418 c 0
 425 422 421 426 419 428 c 0
 417 430 414 434 411 439 c 0
 408 444 406 447 405 449 c 0
 404 451 402 454 399 460 c 0
 396 466 394 470 393 472 c 0
 392 474 390 478 387 486 c 0
 384 494 381 498 380 501 c 0
 375 512 372 523 372 532 c 0
 372 541 374 552 377 566 c 1
 367 587 359 603 353 615 c 1
 353 637 l 1
 355 648 360 660 368 674 c 0
 376 688 384 698 391 703 c 2
 419 724 l 2
 436 737 456 749 479 760 c 0
 502 771 524 778 545 782 c 1
 582 782 l 1
 582 791 l 1
 634 794 667 795 681 795 c 0
 695 795 721 794 757 793 c 0
 793 792 828 791 862 791 c 2
 961 791 l 1
 981 794 1001 795 1019 795 c 0
 1037 795 1055 794 1069 792 c 0
 1083 790 1108 787 1144 781 c 1
 1167 799 1191 817 1217 834 c 1
 1217 1131 l 1
 1216 1155 1214 1178 1210 1200 c 0
 1206 1222 1201 1246 1195 1274 c 0
 1189 1302 1185 1320 1183 1328 c 0
 1182 1335 1180 1341 1179 1345 c 0
 1178 1349 1176 1353 1172 1357 c 0
 1168 1361 1166 1365 1164 1366 c 0
 1162 1367 1157 1370 1148 1376 c 0
 1139 1382 1133 1386 1128 1389 c 0
 1109 1402 1077 1417 1031 1434 c 0
 985 1451 958 1462 950 1466 c 0
 922 1481 881 1489 828 1491 c 0
 814 1492 801 1492 787 1492 c 0
 749 1492 714 1490 680 1486 c 0
 634 1480 597 1472 569 1464 c 0
 521 1450 489 1437 471 1427 c 0
 442 1410 414 1390 389 1366 c 0
 293 1276 234 1204 212 1150 c 0
 195 1107 178 1061 162 1012 c 0
 146 963 139 925 139 901 c 2
 139 486 l 1xe8
 141 457 148 421 160 377 c 0
 172 333 184 294 196 258 c 0
 208 222 219 187 228 150 c 0
 235 120 238 96 238 78 c 0
 238 74 238 70 238 66 c 0
 235 38 208 24 157 24 c 0
 144 24 134 30 128 41 c 0xd8
 95 103 70 188 52 295 c 0
 50 307 44 332 36 371 c 0
 28 410 23 446 21 478 c 1
 21 901 l 1
 31 1023 70 1142 139 1258 c 0
 150 1276 162 1294 177 1314 c 0
 192 1334 209 1354 227 1375 c 0
 245 1396 265 1414 287 1432 c 0
 309 1450 330 1464 350 1473 c 0
 354 1475 362 1479 373 1486 c 0
 384 1493 393 1497 400 1501 c 0
 515 1561 650 1590 802 1590 c 0
 820 1590 838 1590 857 1589 c 0
 906 1587 968 1571 1042 1541 c 0
 1116 1511 1172 1480 1212 1447 c 0
 1215 1444 1221 1439 1230 1432 c 0
 1239 1425 1245 1420 1248 1418 c 0
 1251 1416 1255 1411 1262 1404 c 0
 1269 1397 1274 1393 1276 1389 c 0
 1280 1384 1280 1383 1287 1373 c 0
 1292 1366 1295 1360 1297 1354 c 0
 1299 1348 1301 1340 1303 1332 c 0
 1305 1324 1307 1315 1308 1305 c 1
 1315 1289 1318 1280 1318 1278 c 2
 1318 1223 l 2
 1319 1218 1324 1207 1332 1189 c 0
 1340 1171 1344 1157 1344 1146 c 2
 1344 826 l 2
 1344 812 1340 798 1332 784 c 0
 1324 770 1313 757 1301 746 c 0
 1289 735 1275 723 1259 713 c 0
 1243 703 1228 695 1215 688 c 0
 1202 681 1189 675 1176 670 c 1
 582 670 l 1
 560 662 544 655 532 648 c 0
 520 641 505 630 487 615 c 1
 493 604 496 593 497 583 c 0
 498 573 497 562 495 549 c 1
 500 546 504 539 509 528 c 1
 514 521 522 513 530 502 c 0
 538 491 545 482 549 477 c 0
 553 472 557 467 562 461 c 0
 567 455 572 451 575 448 c 0
 625 404 655 376 665 364 c 0
 679 346 696 331 715 319 c 0
 734 307 756 295 781 284 c 0
 806 273 826 262 841 253 c 0
 861 240 877 231 890 226 c 0
 903 221 923 215 948 209 c 0
 966 205 1004 196 1063 182 c 0
 1122 168 1168 157 1200 151 c 1
 1234 156 1293 162 1378 169 c 0
 1463 176 1528 184 1574 193 c 1
 1574 195 l 1xe8
1147 744 m 1
 1147 772 l 1
 1147 744 l 1
EndSplineSet
EndChar

StartChar: S
Encoding: 83 83 54
Width: 995
Flags: HW
HStem: -14 110<218 726.943> 1433 116<244.688 608.903>
VStem: 73 124<976.224 1374.38> 791 113<149.691 426.186>
LayerCount: 2
Fore
SplineSet
800 1267 m 1
 789 1265 776 1275 760 1298 c 0
 744 1321 729 1351 715 1386 c 1
 711 1388 705 1392 699 1398 c 0
 693 1403 685 1408 675 1412 c 0
 665 1416 653 1420 640 1424 c 0
 627 1428 616 1432 609 1435 c 1
 607 1434 600 1434 588 1434 c 2
 554 1434 l 1
 554 1433 l 1
 463 1433 l 2
 435 1433 398 1431 352 1426 c 0
 306 1421 280 1415 272 1408 c 0
 269 1405 262 1400 250 1392 c 0
 238 1384 230 1379 226 1375 c 1
 223 1362 217 1337 208 1299 c 0
 199 1261 192 1232 189 1212 c 0
 188 1204 189 1184 192 1154 c 0
 195 1124 197 1109 197 1107 c 2
 197 1047 l 1
 200 1024 236 977 305 906 c 1
 310 904 319 896 331 882 c 0
 343 868 351 860 355 858 c 0
 389 834 432 807 483 778 c 0
 534 749 579 724 617 703 c 0
 655 682 697 656 742 622 c 0
 787 588 826 553 860 515 c 0
 872 502 882 484 890 462 c 0
 898 440 903 415 904 389 c 2
 904 298 l 2
 904 218 885 150 847 93 c 0
 801 24 723 -13 613 -18 c 1
 588 -18 l 2
 582 -18 566 -18 542 -16 c 0
 518 -14 498 -13 480 -13 c 0
 466 -13 445 -14 417 -14 c 0
 389 -14 368 -14 354 -14 c 0
 340 -14 320 -14 292 -13 c 0
 285 -13 276 -12 264 -12 c 0
 249 -11 240 -11 234 -11 c 0
 228 -11 220 -10 212 -8 c 0
 204 -6 200 -5 198 -5 c 0
 196 -5 192 -3 186 2 c 0
 180 7 176 11 174 13 c 0
 172 15 168 21 160 30 c 0
 148 44 138 57 129 67 c 0
 109 90 92 118 78 153 c 0
 64 188 56 225 56 264 c 0
 56 290 81 303 132 303 c 0
 140 303 147 302 152 300 c 0
 157 298 161 293 164 288 c 0
 167 283 169 278 171 274 c 0
 173 270 174 263 176 254 c 0
 178 245 180 239 182 234 c 0
 207 154 230 109 251 98 c 1
 298 98 l 2
 307 98 318 98 330 97 c 0
 342 96 350 96 353 96 c 0
 365 96 378 96 392 96 c 0
 406 96 422 96 439 96 c 0
 456 96 470 96 479 96 c 1
 479 97 l 1
 618 97 l 2
 648 97 685 106 729 125 c 1
 731 130 735 135 739 139 c 0
 743 143 747 148 749 155 c 0
 750 158 755 170 764 193 c 0
 773 216 780 236 784 253 c 0
 788 270 791 287 791 304 c 0
 791 369 790 410 787 427 c 1
 778 436 759 453 730 477 c 0
 701 501 683 517 676 524 c 0
 666 533 657 541 648 547 c 0
 639 553 631 557 625 560 c 0
 619 563 609 566 595 572 c 0
 581 578 568 583 556 589 c 0
 534 598 486 626 412 672 c 0
 338 718 295 748 284 761 c 0
 265 782 249 798 234 808 c 0
 206 828 177 858 147 899 c 0
 117 940 97 977 87 1010 c 0
 85 1017 84 1024 82 1033 c 0
 80 1042 79 1049 78 1056 c 0
 77 1063 77 1072 76 1084 c 0
 75 1096 74 1105 74 1111 c 0
 74 1117 73 1127 73 1141 c 0
 73 1155 73 1163 73 1167 c 0
 73 1173 73 1174 73 1196 c 0
 73 1218 73 1218 73 1220 c 0
 73 1233 74 1246 76 1259 c 0
 78 1272 78 1283 80 1292 c 0
 82 1301 86 1313 90 1327 c 0
 94 1341 97 1350 99 1356 c 0
 101 1362 105 1372 111 1387 c 0
 117 1402 121 1411 122 1415 c 0
 126 1425 131 1435 139 1444 c 0
 147 1453 154 1461 161 1466 c 0
 168 1471 178 1478 190 1487 c 0
 202 1496 212 1503 219 1509 c 0
 252 1536 300 1549 364 1549 c 2
 583 1549 l 2
 594 1549 604 1548 612 1548 c 0
 620 1548 629 1546 637 1544 c 0
 645 1542 650 1541 654 1540 c 0
 658 1539 665 1536 676 1532 c 0
 687 1528 694 1526 699 1524 c 0
 727 1514 754 1498 780 1478 c 0
 806 1458 828 1434 846 1404 c 0
 864 1374 872 1344 872 1313 c 0
 872 1302 863 1292 846 1282 c 0
 829 1272 814 1267 800 1267 c 1
EndSplineSet
EndChar

StartChar: T
Encoding: 84 84 55
Width: 1536
Flags: HW
HStem: 1417 129<229.301 663>
VStem: 520 127<355.218 1186.24> 685 110<35.5078 116>
LayerCount: 2
Fore
SplineSet
64 1278 m 0
 57 1277 49 1282 38 1293 c 0
 27 1304 19 1316 15 1328 c 0
 11 1340 11 1351 18 1361 c 1
 99 1450 187 1500 282 1512 c 0
 291 1513 306 1518 325 1528 c 0
 344 1538 358 1543 366 1546 c 1
 859 1546 l 1
 897 1542 931 1536 962 1530 c 0
 993 1524 1021 1515 1048 1506 c 0
 1075 1497 1095 1489 1110 1483 c 0
 1125 1477 1145 1468 1170 1456 c 0
 1176 1453 1181 1451 1184 1450 c 0
 1273 1409 1341 1362 1386 1310 c 0
 1395 1300 1411 1286 1432 1268 c 0
 1453 1250 1466 1238 1470 1234 c 1
 1470 1216 l 1
 1477 1209 1483 1203 1486 1198 c 0
 1489 1193 1491 1187 1490 1180 c 0
 1489 1173 1485 1167 1477 1161 c 0
 1452 1142 1435 1132 1427 1132 c 0
 1421 1132 1416 1134 1410 1137 c 0
 1404 1140 1400 1144 1396 1147 c 0
 1392 1150 1388 1155 1382 1161 c 0
 1376 1167 1373 1171 1372 1172 c 0
 1364 1178 1347 1194 1319 1218 c 0
 1291 1242 1267 1262 1247 1276 c 0
 1227 1290 1206 1303 1183 1313 c 0
 1170 1319 1153 1329 1133 1345 c 0
 1113 1361 1097 1371 1086 1376 c 1
 802 1420 l 1
 796 1402 781 1370 757 1326 c 0
 733 1282 720 1256 716 1248 c 0
 670 1141 647 1062 647 1008 c 0
 647 1006 647 1006 647 1004 c 2
 647 692 l 2
 647 658 652 612 661 554 c 0
 670 496 676 456 677 435 c 0
 679 409 685 377 696 339 c 0
 707 301 715 275 717 260 c 0
 720 242 726 224 734 206 c 0
 742 188 750 175 758 163 c 0
 766 151 775 138 782 122 c 0
 789 106 794 90 795 74 c 1
 794 66 788 58 778 50 c 0
 768 42 758 38 746 34 c 0
 734 30 722 28 710 30 c 0
 698 32 690 37 685 45 c 0
 683 48 679 54 672 65 c 0
 665 76 659 85 655 93 c 0
 651 101 644 109 638 120 c 0
 632 131 626 140 622 150 c 0
 618 160 614 168 612 176 c 0
 575 290 555 369 553 413 c 0
 552 430 547 452 537 478 c 0
 527 504 521 519 520 524 c 2
 520 868 l 2
 520 1034 547 1172 602 1282 c 0
 606 1289 615 1311 630 1346 c 0
 645 1381 656 1405 663 1417 c 1
 308 1417 l 1
 287 1411 269 1404 255 1395 c 0
 241 1386 226 1376 212 1364 c 0
 198 1352 185 1343 172 1336 c 0
 166 1332 155 1325 140 1315 c 0
 125 1305 111 1295 99 1289 c 0
 87 1283 75 1279 64 1278 c 0
EndSplineSet
EndChar

StartChar: U
Encoding: 85 85 56
Width: 1705
Flags: HW
HStem: 14 148<535.049 1255.56> 1602 20G<1480 1490>
VStem: 72 129<676.918 1507.29> 137 139<1511.14 1620.5> 1536 115<575.451 1322.57>
LayerCount: 2
Fore
SplineSet
240 1511 m 1xd8
 240 1502 234 1486 221 1462 c 0
 208 1438 201 1422 201 1415 c 2
 201 893 l 1
 215 793 239 690 274 582 c 0
 309 474 344 398 379 352 c 0
 442 271 494 218 535 193 c 0
 536 193 540 187 549 177 c 0
 558 167 563 162 565 162 c 2
 1200 162 l 1
 1218 166 1234 173 1250 183 c 0
 1266 193 1278 202 1288 212 c 0
 1298 222 1309 234 1323 248 c 0
 1337 262 1350 274 1361 283 c 0
 1375 294 1386 304 1396 314 c 0
 1406 324 1416 337 1428 352 c 0
 1440 367 1450 378 1458 387 c 1
 1461 419 1472 481 1491 575 c 1
 1491 668 l 1
 1494 705 1501 745 1512 787 c 0
 1523 829 1530 862 1531 884 c 0
 1531 899 1533 914 1536 928 c 1
 1536 1024 l 2
 1535 1082 1530 1137 1522 1187 c 0
 1514 1237 1505 1277 1496 1307 c 0
 1487 1337 1476 1371 1464 1411 c 0
 1452 1451 1442 1484 1436 1512 c 0
 1435 1517 1432 1525 1425 1534 c 0
 1418 1543 1415 1552 1415 1560 c 0
 1415 1572 1424 1586 1442 1600 c 0
 1460 1614 1475 1622 1485 1622 c 0
 1495 1622 1507 1613 1521 1596 c 0
 1535 1578 1550 1541 1565 1485 c 0
 1572 1458 1584 1420 1600 1372 c 0
 1616 1324 1629 1282 1638 1246 c 0
 1647 1210 1651 1174 1651 1139 c 2
 1651 872 l 1
 1650 845 1648 819 1646 795 c 0
 1644 771 1641 750 1640 733 c 0
 1639 716 1636 695 1632 671 c 0
 1628 647 1626 629 1624 618 c 0
 1622 607 1619 588 1613 559 c 0
 1607 530 1602 511 1600 502 c 0
 1598 493 1593 469 1584 431 c 0
 1575 393 1570 367 1567 354 c 0
 1563 338 1558 325 1552 315 c 0
 1546 305 1538 294 1527 282 c 0
 1516 270 1507 259 1501 250 c 0
 1470 209 1425 166 1367 124 c 0
 1309 82 1257 55 1210 43 c 0
 1137 24 1064 14 991 14 c 0
 989 14 986 14 984 14 c 0
 911 14 800 21 651 37 c 1
 560 48 499 62 469 78 c 0
 424 103 381 139 339 189 c 0
 297 239 261 295 230 358 c 0
 199 421 172 489 148 562 c 0
 124 635 107 709 94 784 c 0
 81 859 74 931 72 1001 c 1
 72 1257 l 2xe8
 72 1303 76 1346 83 1388 c 0
 90 1430 99 1462 111 1485 c 1
 114 1498 117 1508 120 1516 c 0
 123 1524 129 1533 137 1546 c 1
 142 1568 161 1597 193 1634 c 1
 211 1639 230 1634 248 1618 c 0
 266 1602 275 1587 276 1574 c 0
 276 1566 274 1558 269 1550 c 0
 264 1542 258 1534 252 1527 c 0
 246 1520 242 1514 240 1511 c 1xd8
EndSplineSet
EndChar

StartChar: V
Encoding: 86 86 57
Width: 1544
Flags: HW
HStem: 20 66<678.926 728>
VStem: 50 154<1037.74 1572.86> 50 130<1019.35 1532.33> 1362 135<920.155 1609.45>
LayerCount: 2
Fore
SplineSet
180 1329 m 0xb0
 180 1316 180 1302 180 1290 c 0xb0
 180 1247 182 1209 186 1174 c 0
 192 1129 199 1095 206 1073 c 0
 213 1051 224 1020 239 982 c 0
 254 944 266 912 274 886 c 0
 286 849 296 817 304 793 c 0
 312 769 319 749 324 733 c 0
 329 717 335 702 342 686 c 0
 349 670 355 659 358 652 c 0
 361 645 368 631 378 611 c 0
 388 591 396 573 403 560 c 0
 415 535 431 511 449 488 c 0
 467 465 487 441 507 417 c 0
 527 393 544 371 557 350 c 0
 579 314 606 265 638 204 c 0
 670 143 687 104 688 86 c 1
 728 86 l 1
 749 94 l 2
 763 99 782 106 804 117 c 0
 826 128 845 140 861 153 c 0
 871 161 886 182 906 214 c 0
 923 242 953 281 998 331 c 0
 1043 381 1087 427 1130 469 c 0
 1146 484 1162 505 1177 531 c 0
 1192 557 1204 584 1213 609 c 0
 1217 620 1233 662 1261 736 c 0
 1289 810 1310 873 1326 925 c 0
 1342 977 1354 1025 1362 1070 c 1
 1362 1578 l 2
 1362 1586 1366 1593 1376 1599 c 0
 1386 1605 1397 1608 1410 1610 c 0
 1423 1612 1437 1612 1450 1611 c 0
 1463 1610 1475 1607 1484 1601 c 0
 1493 1595 1498 1588 1497 1580 c 0
 1497 1191 l 2
 1497 1163 1490 1116 1476 1052 c 0
 1462 988 1455 948 1454 933 c 0
 1452 913 1442 878 1424 826 c 0
 1406 774 1385 719 1360 658 c 0
 1335 597 1322 564 1320 559 c 0
 1314 544 1306 528 1296 512 c 0
 1286 496 1277 482 1268 471 c 0
 1259 460 1247 445 1231 426 c 0
 1215 407 1203 392 1194 381 c 0
 1180 363 1159 341 1132 316 c 0
 1105 291 1082 267 1060 244 c 0
 1038 221 1021 198 1010 176 c 0
 988 133 955 98 909 72 c 0
 863 46 812 31 756 28 c 1
 756 29 l 1
 734 23 706 20 672 20 c 0
 638 20 607 40 580 80 c 1
 562 92 537 123 505 172 c 0
 473 221 449 265 434 304 c 0
 423 334 414 353 408 362 c 0
 402 371 387 387 363 410 c 0
 360 413 354 419 346 427 c 0
 338 435 332 440 330 442 c 0
 328 444 323 449 318 454 c 0
 313 459 309 464 306 468 c 0
 303 472 299 478 295 484 c 0
 276 515 246 580 204 679 c 0
 162 778 137 847 130 884 c 0
 124 914 116 944 105 975 c 0
 94 1006 85 1033 77 1053 c 0
 69 1073 62 1101 56 1135 c 0
 51 1163 50 1193 50 1226 c 0
 50 1234 50 1241 50 1249 c 2
 50 1458 l 2
 50 1494 52 1521 57 1539 c 0
 62 1557 72 1570 88 1577 c 1
 146 1577 l 1
 185 1567 204 1552 204 1533 c 0xd0
 204 1519 200 1487 192 1436 c 0
 184 1385 180 1349 180 1329 c 0xb0
EndSplineSet
EndChar

StartChar: W
Encoding: 87 87 58
Width: 1931
Flags: HW
HStem: 68 130<465.431 799.663> 724 142<850.321 935.154 936.796 1006.96>
VStem: 78 142<487.763 1115.52> 692 158<502.718 724> 768 185<203.784 449.379> 1737 147<347.103 1263.3>
LayerCount: 2
Fore
SplineSet
1737 1151 m 2xf4
 1738 1158 1722 1198 1689 1270 c 0
 1656 1342 1640 1382 1642 1392 c 1
 1586 1425 1541 1482 1507 1561 c 1
 1497 1567 1492 1575 1492 1585 c 1
 1489 1593 1499 1607 1522 1626 c 0
 1545 1645 1566 1655 1586 1658 c 0
 1595 1659 1607 1650 1622 1629 c 0
 1637 1608 1651 1587 1665 1564 c 0
 1679 1541 1687 1529 1691 1527 c 1
 1695 1523 1702 1520 1714 1517 c 0
 1726 1514 1733 1512 1735 1510 c 2
 1842 1286 l 2
 1844 1281 1848 1272 1853 1260 c 0
 1858 1248 1862 1240 1863 1236 c 0
 1864 1232 1866 1226 1870 1216 c 0
 1874 1206 1876 1199 1877 1194 c 0
 1878 1189 1878 1182 1880 1172 c 0
 1882 1162 1884 1153 1884 1143 c 0
 1884 1133 1884 1122 1884 1109 c 2
 1884 573 l 1
 1879 558 1873 528 1865 482 c 0
 1857 436 1849 393 1840 351 c 0
 1831 309 1822 281 1812 266 c 0
 1787 226 1756 192 1720 163 c 0
 1684 134 1641 108 1591 85 c 0
 1548 65 1498 48 1441 34 c 0
 1384 20 1325 12 1264 12 c 1
 1264 13 l 1
 1241 17 1221 24 1203 35 c 0
 1185 46 1169 60 1157 77 c 0
 1145 94 1134 111 1126 128 c 0
 1118 145 1110 166 1102 190 c 0
 1101 194 1098 203 1093 217 c 0
 1088 231 1085 239 1084 244 c 0
 1083 249 1081 257 1078 268 c 0
 1075 279 1072 291 1070 302 c 0
 1068 313 1066 327 1064 342 c 0
 1056 406 1034 534 999 724 c 1
 850 724 l 1
 850 623 l 1xf4
 869 580 883 543 893 509 c 0
 903 475 909 449 911 429 c 0
 913 409 916 385 921 353 c 0
 926 321 933 289 942 257 c 0
 949 230 953 204 953 178 c 1
 955 159 953 143 947 129 c 0
 941 115 933 103 922 94 c 0
 911 85 897 79 882 74 c 0
 867 69 851 65 832 63 c 0
 813 61 795 61 776 62 c 0
 757 63 738 65 718 68 c 1
 631 68 l 2
 617 68 599 68 576 68 c 0
 553 68 536 67 526 67 c 0
 516 67 504 67 492 68 c 0
 480 69 471 71 464 73 c 0
 444 78 426 86 410 96 c 0
 394 106 382 117 373 127 c 0
 364 137 353 152 339 171 c 0
 317 200 301 221 289 234 c 0
 277 247 254 270 220 304 c 0
 189 335 161 377 133 432 c 0
 105 487 90 533 86 569 c 0
 81 622 78 678 78 737 c 2
 78 816 l 2
 78 828 78 840 78 852 c 0
 78 889 79 923 82 956 c 0
 86 999 92 1037 99 1067 c 0
 106 1097 116 1130 129 1164 c 0
 142 1198 154 1225 165 1247 c 0
 176 1269 190 1298 208 1334 c 0
 226 1370 241 1400 253 1426 c 0
 269 1461 300 1515 346 1589 c 0
 353 1599 362 1604 374 1604 c 0
 379 1603 386 1602 396 1599 c 0
 406 1596 417 1593 429 1588 c 0
 441 1583 452 1576 460 1567 c 0
 468 1558 471 1549 469 1539 c 0
 465 1515 457 1491 447 1465 c 0
 437 1439 424 1409 407 1375 c 0
 390 1341 379 1318 374 1306 c 0
 370 1296 364 1284 356 1270 c 0
 348 1256 341 1243 334 1231 c 0
 327 1219 316 1203 302 1180 c 0
 288 1157 278 1138 269 1124 c 0
 236 1069 220 960 220 795 c 0
 220 714 226 636 238 561 c 1
 245 531 255 503 270 477 c 0
 285 451 301 427 320 406 c 0
 339 385 358 364 377 345 c 0
 396 326 415 304 436 280 c 0
 457 256 474 232 488 208 c 0
 491 202 494 199 496 198 c 2
 690 198 l 1
 690 196 l 1
 710 198 747 199 800 200 c 1
 779 281 768 345 768 392 c 0xec
 768 410 762 435 749 469 c 0
 736 503 724 537 711 572 c 0
 698 607 692 635 692 657 c 2
 692 763 l 2
 692 779 697 794 708 808 c 0
 719 822 733 833 751 841 c 0
 769 849 789 856 810 860 c 0
 827 864 844 866 862 866 c 0
 866 866 871 865 875 865 c 0
 897 864 918 860 936 854 c 1
 953 857 969 858 984 858 c 0
 1001 858 1017 856 1032 853 c 0
 1060 846 1084 834 1103 816 c 0
 1122 798 1136 775 1146 747 c 0
 1156 719 1161 688 1161 653 c 0
 1161 636 1162 620 1164 604 c 0
 1166 588 1170 570 1174 551 c 0
 1178 532 1181 517 1183 507 c 0
 1186 491 1190 468 1194 438 c 0
 1198 408 1201 386 1204 370 c 0
 1207 354 1211 334 1217 310 c 0
 1223 286 1229 262 1237 239 c 0
 1245 216 1255 191 1266 165 c 1
 1273 156 1278 149 1282 145 c 1
 1306 150 1343 155 1392 158 c 0
 1409 159 1424 161 1436 163 c 0
 1448 165 1460 169 1472 175 c 0
 1484 181 1494 184 1500 188 c 0
 1506 192 1517 200 1533 210 c 0
 1549 220 1560 228 1569 233 c 0
 1581 241 1596 250 1615 262 c 0
 1654 286 1678 304 1685 316 c 0
 1692 328 1699 359 1705 408 c 0
 1708 430 1710 448 1712 462 c 0
 1713 471 1716 501 1720 552 c 0
 1724 603 1730 642 1737 669 c 1
 1737 1151 l 2xf4
EndSplineSet
EndChar

StartChar: X
Encoding: 88 88 59
Width: 2076
Flags: HW
HStem: -38 85<-84.87 81> 1588 93<1841.01 1896.44>
VStem: 942 109<605.77 905.204>
LayerCount: 2
Fore
SplineSet
1819 1659 m 1
 1827 1673 1839 1680 1855 1681 c 0
 1871 1682 1885 1677 1897 1667 c 0
 1909 1657 1915 1643 1914 1628 c 0
 1914 1614 1907 1600 1894 1588 c 0
 1855 1549 1813 1522 1767 1507 c 0
 1744 1499 1721 1490 1699 1479 c 0
 1677 1468 1656 1457 1637 1446 c 0
 1618 1435 1599 1422 1579 1407 c 0
 1559 1392 1542 1378 1526 1364 c 0
 1510 1350 1494 1334 1476 1316 c 0
 1458 1298 1443 1281 1430 1266 c 0
 1417 1251 1401 1233 1384 1212 c 0
 1367 1191 1352 1173 1340 1157 c 0
 1328 1141 1313 1123 1295 1100 c 0
 1281 1082 1271 1069 1264 1060 c 0
 1254 1047 1239 1033 1220 1016 c 0
 1201 999 1182 983 1164 968 c 0
 1146 953 1128 937 1110 920 c 0
 1092 903 1078 884 1067 864 c 0
 1056 844 1051 825 1051 805 c 2
 1051 629 l 2
 1051 535 1073 471 1116 437 c 1
 1168 370 1225 321 1288 289 c 0
 1301 282 1313 276 1325 271 c 0
 1337 266 1348 260 1357 256 c 0
 1366 252 1378 247 1391 243 c 0
 1404 239 1414 235 1421 232 c 0
 1428 229 1440 226 1456 222 c 0
 1472 218 1485 214 1492 212 c 0
 1499 210 1513 207 1535 202 c 0
 1557 197 1572 194 1581 192 c 0
 1590 190 1609 185 1638 179 c 0
 1667 173 1687 168 1701 165 c 0
 1755 152 1800 132 1836 104 c 1
 2012 56 l 2
 2025 54 2036 49 2046 41 c 0
 2056 33 2060 23 2060 11 c 0
 2060 -3 2054 -17 2042 -32 c 0
 2030 -47 2018 -53 2006 -50 c 2
 1760 19 l 1
 1723 46 1674 67 1613 81 c 0
 1583 88 1550 95 1515 102 c 0
 1480 109 1459 114 1452 116 c 0
 1374 136 1301 164 1234 201 c 0
 1158 243 1093 299 1038 370 c 1
 1001 402 976 444 962 497 c 1
 945 464 932 441 920 427 c 0
 908 413 889 395 864 372 c 0
 859 368 856 364 854 362 c 0
 820 332 798 312 786 302 c 0
 774 292 757 278 734 262 c 0
 711 246 684 228 652 208 c 0
 642 202 633 196 624 190 c 0
 615 184 608 178 600 172 c 0
 592 166 586 160 581 156 c 0
 576 152 571 148 565 142 c 0
 559 136 556 133 554 131 c 2
 198 -38 l 1
 -28 -38 l 2
 -67 -38 -86 -27 -86 -5 c 0
 -86 7 -81 19 -72 29 c 0
 -63 39 -53 45 -41 47 c 2
 81 54 l 1
 472 188 l 1
 483 197 499 212 523 236 c 0
 547 260 565 275 578 283 c 0
 618 307 651 329 677 349 c 0
 703 369 737 397 779 433 c 0
 782 435 788 441 798 450 c 0
 808 459 814 465 816 467 c 0
 818 469 823 475 831 482 c 0
 839 489 844 495 847 499 c 0
 850 503 854 509 859 516 c 0
 864 523 868 531 872 538 c 0
 876 545 879 553 882 562 c 0
 919 661 939 724 942 751 c 1
 942 835 l 2
 942 849 942 869 944 894 c 0
 946 919 947 939 946 952 c 0
 945 965 942 975 938 981 c 1
 582 1230 l 1
 -32 1562 l 1
 -39 1572 -43 1585 -45 1599 c 0
 -47 1613 -46 1625 -43 1637 c 0
 -40 1649 -34 1659 -24 1667 c 0
 -14 1675 -3 1678 11 1677 c 0
 29 1677 42 1668 51 1650 c 1
 89 1619 126 1597 162 1584 c 0
 183 1576 206 1565 230 1553 c 0
 254 1541 272 1529 287 1520 c 0
 302 1511 322 1498 348 1480 c 0
 374 1462 392 1450 402 1444 c 0
 520 1367 651 1288 794 1207 c 1
 920 1119 l 1
 934 1111 955 1092 982 1060 c 0
 1009 1028 1026 1003 1033 987 c 1
 1040 995 1065 1017 1108 1053 c 0
 1151 1089 1176 1112 1184 1123 c 0
 1258 1222 1326 1305 1390 1372 c 0
 1454 1439 1516 1491 1576 1528 c 0
 1630 1563 1689 1590 1751 1609 c 0
 1763 1613 1786 1630 1819 1659 c 1
EndSplineSet
EndChar

StartChar: Y
Encoding: 89 89 60
Width: 1468
Flags: HW
HStem: 6 102<123.097 390.596>
VStem: 111 100<1462.72 1631.39>
LayerCount: 2
Fore
SplineSet
1092 698 m 1
 1098 688 1101 677 1100 666 c 0
 1099 655 1093 646 1086 638 c 0
 1079 630 1070 625 1059 622 c 0
 1048 619 1037 620 1024 626 c 1
 930 536 842 447 759 359 c 0
 754 353 736 336 707 308 c 0
 678 280 651 253 627 227 c 0
 576 171 539 132 514 110 c 0
 453 55 389 22 324 11 c 0
 306 8 287 6 268 6 c 0
 257 6 207 -4 119 -23 c 1
 78 -51 l 2
 68 -58 57 -61 46 -60 c 0
 35 -59 26 -56 18 -48 c 0
 10 -40 5 -31 1 -22 c 0
 -3 -13 -3 -3 -0 8 c 0
 3 19 10 27 21 34 c 2
 70 67 l 1
 67 70 81 75 111 82 c 0
 141 89 171 95 202 101 c 0
 233 107 249 109 251 109 c 1
 251 108 l 1
 253 108 254 108 256 108 c 0
 281 108 307 113 334 124 c 0
 363 135 390 150 414 168 c 0
 438 186 464 207 491 232 c 0
 518 257 542 281 562 303 c 0
 582 325 604 349 628 374 c 0
 652 399 670 417 685 430 c 0
 710 452 755 497 820 564 c 0
 885 631 918 666 918 666 c 1
 774 722 l 1
 755 739 730 759 701 783 c 0
 672 807 647 827 628 843 c 0
 609 859 587 879 563 901 c 0
 539 923 516 947 492 973 c 0
 468 999 444 1026 420 1056 c 2
 172 1370 l 2
 171 1372 171 1378 174 1387 c 0
 177 1396 178 1402 178 1405 c 0
 178 1412 172 1427 160 1449 c 0
 148 1471 136 1494 125 1516 c 0
 114 1538 109 1554 111 1564 c 1
 111 1609 129 1632 164 1632 c 0
 176 1632 187 1627 198 1618 c 0
 209 1609 215 1599 215 1589 c 0
 215 1581 214 1573 213 1565 c 0
 212 1557 211 1550 211 1546 c 0
 211 1542 213 1537 216 1529 c 0
 219 1521 224 1511 232 1499 c 2
 484 1112 l 1
 501 1093 520 1075 540 1058 c 0
 560 1041 578 1025 595 1011 c 0
 612 997 624 987 631 981 c 0
 658 955 727 897 837 807 c 1
 997 746 l 1
 1114 870 1195 993 1238 1115 c 0
 1241 1122 1246 1130 1253 1139 c 0
 1262 1152 1270 1171 1278 1196 c 0
 1286 1221 1292 1249 1300 1280 c 0
 1308 1311 1314 1332 1318 1345 c 1
 1342 1634 l 2
 1343 1647 1349 1658 1359 1667 c 0
 1369 1676 1381 1681 1394 1681 c 0
 1408 1681 1420 1676 1430 1666 c 0
 1440 1656 1445 1643 1444 1630 c 2
 1409 1216 l 1
 1406 1204 1401 1190 1395 1176 c 0
 1389 1162 1383 1151 1377 1142 c 0
 1371 1133 1363 1121 1353 1106 c 0
 1343 1091 1336 1081 1332 1075 c 1
 1287 948 1207 823 1092 698 c 1
EndSplineSet
EndChar

StartChar: Z
Encoding: 90 90 61
Width: 1253
Flags: HW
HStem: 29 110<404.931 1101.91> 94 94<1025.23 1169.76> 1558 113<163.769 823.208>
VStem: 170 103<190.224 473.371>
LayerCount: 2
Fore
SplineSet
1124 188 m 0x70
 1128 188 1131 189 1135 188 c 0
 1139 187 1142 186 1145 184 c 0
 1148 182 1150 179 1152 178 c 0
 1154 177 1157 174 1159 170 c 0
 1161 166 1163 164 1164 162 c 0
 1165 160 1166 157 1168 152 c 0
 1170 147 1171 144 1171 143 c 0
 1171 142 1172 138 1174 132 c 0
 1176 126 1177 123 1177 123 c 0
 1177 114 1175 107 1170 102 c 0
 1165 97 1158 94 1150 94 c 1x70
 1112 76 1074 62 1036 52 c 0
 998 42 957 36 911 35 c 2
 889 35 l 2
 880 35 863 35 838 34 c 0
 813 33 793 32 779 32 c 0
 715 31 663 30 622 29 c 0
 615 29 614 29 608 29 c 0
 571 29 536 31 502 36 c 0
 463 41 419 51 368 66 c 0
 361 68 349 72 332 76 c 0
 315 80 301 84 290 87 c 0
 279 90 268 95 256 102 c 0
 244 109 236 117 232 126 c 1
 208 150 191 172 182 193 c 0
 174 212 170 235 170 263 c 0
 170 267 170 268 170 272 c 2
 170 306 l 1
 175 408 183 484 194 535 c 0
 196 545 210 575 236 624 c 0
 262 673 276 698 278 702 c 0
 286 722 312 758 356 812 c 0
 400 866 431 898 449 911 c 0
 467 924 489 942 514 965 c 0
 539 988 563 1008 583 1028 c 0
 603 1048 627 1068 655 1090 c 0
 683 1112 709 1129 734 1142 c 0
 757 1154 775 1165 789 1173 c 0
 803 1181 811 1188 817 1192 c 0
 823 1196 831 1204 843 1214 c 0
 855 1224 867 1233 880 1243 c 0
 943 1289 980 1324 993 1348 c 1
 980 1386 973 1415 971 1435 c 1
 909 1472 861 1509 827 1544 c 1
 746 1555 671 1560 603 1560 c 0
 586 1560 569 1560 553 1559 c 0
 526 1558 506 1558 492 1558 c 0
 478 1558 458 1558 430 1558 c 0
 402 1558 382 1559 368 1559 c 0
 368 1559 365 1559 359 1560 c 0
 353 1561 348 1563 342 1564 c 0
 336 1565 331 1564 326 1564 c 0
 321 1564 317 1563 316 1561 c 0
 313 1559 307 1557 298 1555 c 2
 212 1532 l 2
 209 1531 197 1527 175 1518 c 0
 153 1509 140 1504 136 1504 c 0
 127 1506 117 1512 106 1522 c 0
 95 1532 87 1544 82 1556 c 0
 77 1568 81 1579 92 1589 c 0
 164 1644 229 1671 287 1671 c 2
 703 1671 l 2
 732 1671 756 1670 776 1668 c 0
 796 1666 813 1663 828 1658 c 0
 843 1653 854 1648 863 1644 c 0
 872 1640 884 1633 900 1623 c 0
 916 1613 931 1605 944 1599 c 0
 969 1586 995 1567 1023 1541 c 0
 1051 1515 1068 1491 1074 1470 c 0
 1076 1464 1079 1453 1085 1438 c 0
 1091 1423 1094 1412 1094 1405 c 2
 1094 1372 l 2
 1094 1370 1096 1366 1099 1362 c 0
 1102 1358 1104 1356 1104 1354 c 2
 1104 1314 l 1
 1092 1268 1037 1212 938 1145 c 0
 923 1135 909 1125 895 1114 c 0
 881 1103 868 1093 856 1085 c 0
 844 1077 827 1066 805 1054 c 0
 785 1043 762 1027 735 1005 c 0
 708 983 679 959 649 933 c 0
 619 907 598 889 587 880 c 0
 564 862 534 832 495 788 c 0
 456 744 432 718 422 708 c 0
 407 694 388 666 365 626 c 0
 342 586 328 561 321 552 c 1
 321 530 l 1
 301 492 288 459 282 429 c 0
 276 399 273 352 273 287 c 0
 273 248 288 215 319 189 c 0
 324 184 339 179 362 173 c 0
 385 167 399 162 403 158 c 1
 444 149 498 143 565 140 c 0
 591 139 615 139 638 139 c 0
 676 139 711 140 742 143 c 0
 746 143 763 141 792 139 c 0xb0
 821 137 845 135 866 134 c 0
 887 133 903 133 914 135 c 1
 929 141 958 148 1000 154 c 0
 1042 160 1071 167 1088 175 c 1
 1099 184 1111 188 1124 188 c 0x70
223 474 m 1
 248 474 l 1
 219 522 l 1
 193 522 l 1
 223 474 l 1
EndSplineSet
EndChar

StartChar: bracketleft
Encoding: 91 91 62
Width: 473
Flags: HW
HStem: -82 105<203.045 292.973> 14 99<330.244 438.435>
VStem: 45 102<107.163 1516.43>
LayerCount: 2
Fore
SplineSet
216 23 m 1xa0
 218 23 233 32 260 48 c 0
 287 64 314 80 342 95 c 0
 370 110 387 116 394 113 c 1
 412 116 427 111 439 96 c 0
 451 81 454 64 451 46 c 0
 448 28 437 18 420 14 c 0x60
 412 12 393 3 363 -13 c 0
 333 -29 304 -45 274 -60 c 0
 244 -75 222 -82 209 -82 c 0
 166 -82 137 -60 122 -17 c 0
 70 131 44 276 44 418 c 0
 44 429 45 440 45 451 c 2
 45 1238 l 2
 45 1370 71 1498 123 1622 c 0
 135 1650 154 1669 181 1677 c 0
 191 1680 201 1681 210 1681 c 0
 228 1681 245 1676 263 1666 c 0
 264 1665 288 1649 333 1618 c 0
 378 1587 407 1570 419 1566 c 0
 428 1563 435 1558 440 1550 c 0
 445 1542 446 1534 446 1525 c 0
 446 1516 443 1507 440 1498 c 0
 437 1489 432 1482 425 1476 c 0
 418 1470 411 1468 403 1468 c 1
 394 1465 380 1468 360 1478 c 0
 340 1488 320 1500 301 1514 c 0
 282 1528 264 1541 246 1554 c 0
 228 1567 218 1574 214 1575 c 1
 169 1475 147 1364 147 1242 c 2
 147 448 l 2
 147 298 170 156 216 23 c 1xa0
EndSplineSet
EndChar

StartChar: backslash
Encoding: 92 92 63
Width: 1400
Flags: HW
HStem: 1475 104<60.4709 173.533>
LayerCount: 2
Fore
SplineSet
45 1529 m 0
 45 1542 50 1554 60 1564 c 0
 70 1574 83 1579 96 1579 c 0
 130 1578 154 1569 170 1554 c 0
 182 1542 200 1530 224 1518 c 0
 248 1506 275 1493 307 1479 c 0
 339 1465 363 1454 378 1446 c 0
 568 1345 729 1186 860 970 c 0
 863 966 891 915 945 818 c 0
 999 721 1033 663 1048 644 c 0
 1202 447 1309 244 1370 34 c 0
 1374 22 1373 10 1368 0 c 0
 1363 -10 1357 -18 1348 -22 c 0
 1339 -26 1328 -29 1318 -30 c 0
 1308 -31 1298 -27 1289 -21 c 0
 1280 -15 1274 -5 1271 7 c 0
 1262 46 1249 85 1233 126 c 0
 1217 167 1200 204 1183 238 c 0
 1166 272 1144 310 1117 354 c 0
 1090 398 1066 435 1046 465 c 0
 1026 495 999 534 966 582 c 0
 941 618 914 659 885 707 c 0
 856 755 829 798 806 837 c 0
 783 876 758 918 730 962 c 0
 702 1006 673 1047 645 1084 c 0
 617 1121 586 1158 553 1193 c 0
 520 1228 484 1261 444 1290 c 0
 404 1319 361 1344 316 1365 c 0
 305 1370 286 1379 257 1392 c 0
 228 1405 202 1416 178 1428 c 0
 154 1440 137 1450 126 1458 c 0
 118 1464 106 1469 91 1475 c 0
 76 1481 64 1487 56 1494 c 0
 48 1501 45 1513 45 1529 c 0
EndSplineSet
EndChar

StartChar: bracketright
Encoding: 93 93 64
Width: 473
Flags: HW
HStem: -82 105<203.961 293.083> 14 99<57.5186 165.994> 1468 98<60.4233 151.671>
VStem: 348 103<104.409 1517.59>
LayerCount: 2
Fore
SplineSet
102 113 m 1x70
 108 116 125 111 153 96 c 0
 181 81 209 65 236 48 c 0
 263 31 277 23 279 23 c 1
 325 157 348 289 348 419 c 0
 348 429 348 438 348 448 c 2
 348 1242 l 2
 348 1364 326 1475 281 1575 c 1
 274 1571 258 1560 231 1540 c 0
 204 1520 179 1503 154 1489 c 0
 129 1475 109 1468 93 1468 c 0
 80 1467 69 1474 60 1488 c 0
 51 1502 48 1518 50 1534 c 0
 52 1550 61 1561 76 1566 c 0
 88 1570 103 1578 121 1590 c 0
 139 1602 158 1614 174 1626 c 0
 190 1638 208 1650 228 1660 c 0
 248 1670 267 1676 283 1679 c 0
 299 1682 316 1679 332 1670 c 0
 348 1661 361 1645 372 1622 c 0
 425 1511 451 1383 451 1238 c 2
 451 451 l 2
 451 286 425 130 374 -17 c 0
 368 -35 357 -51 342 -63 c 0
 327 -75 309 -82 287 -82 c 0xb0
 274 -82 252 -75 222 -60 c 0
 192 -45 162 -29 133 -13 c 0
 104 3 85 12 77 14 c 0
 59 17 49 28 45 46 c 0
 41 64 46 80 57 95 c 0
 68 110 83 116 102 113 c 1x70
EndSplineSet
EndChar

StartChar: asciicircum
Encoding: 94 94 65
Width: 851
Flags: HW
HStem: 1285 72<368.981 514.695>
VStem: 601 65<941.283 1047.46>
LayerCount: 2
Fore
SplineSet
655 1012 m 0
 667 995 670 978 666 964 c 0
 662 950 650 942 630 941 c 0
 617 941 608 947 601 960 c 0
 582 996 568 1043 557 1101 c 0
 556 1108 553 1117 551 1130 c 0
 549 1143 547 1153 546 1159 c 0
 545 1165 543 1174 540 1185 c 0
 537 1196 535 1204 533 1210 c 0
 531 1216 529 1222 525 1230 c 0
 521 1238 518 1246 514 1250 c 0
 510 1254 506 1259 501 1264 c 0
 496 1269 490 1274 484 1276 c 0
 478 1278 472 1280 464 1282 c 0
 456 1284 448 1285 439 1285 c 0
 415 1285 395 1277 378 1260 c 0
 368 1251 353 1226 334 1185 c 0
 315 1144 296 1103 276 1062 c 0
 256 1021 241 995 230 986 c 1
 224 977 216 972 206 972 c 0
 196 972 187 975 179 982 c 0
 171 989 167 997 167 1007 c 1
 172 1021 182 1040 197 1064 c 0
 212 1088 224 1112 232 1134 c 0
 238 1152 239 1151 245 1169 c 0
 249 1181 252 1187 253 1190 c 0
 254 1193 255 1198 258 1204 c 0
 261 1210 264 1215 266 1219 c 0
 268 1223 272 1230 279 1242 c 0
 289 1259 297 1272 303 1282 c 0
 309 1292 318 1302 328 1313 c 0
 338 1324 348 1332 359 1338 c 0
 370 1344 384 1348 400 1352 c 0
 416 1356 434 1357 454 1357 c 0
 470 1357 484 1355 498 1351 c 0
 512 1347 524 1341 534 1334 c 0
 544 1327 554 1318 562 1306 c 0
 570 1294 577 1283 583 1271 c 0
 589 1259 595 1245 600 1228 c 0
 605 1211 609 1196 612 1182 c 0
 615 1168 619 1150 623 1130 c 0
 636 1065 646 1026 655 1012 c 0
EndSplineSet
EndChar

StartChar: underscore
Encoding: 95 95 66
Width: 2097
Flags: HW
HStem: -175 103<522.185 1292.76> -51 102<-35.5298 286.16>
LayerCount: 2
Fore
SplineSet
896 -72 m 0
 965 -72 1040 -67 1124 -55 c 0
 1208 -43 1289 -29 1367 -13 c 0
 1445 3 1522 21 1599 37 c 0
 1676 53 1754 67 1832 79 c 0
 1910 91 1979 96 2040 96 c 0
 2054 96 2067 91 2080 81 c 0
 2093 71 2099 60 2099 47 c 0
 2099 34 2094 22 2086 12 c 0
 2078 2 2068 -4 2056 -6 c 0
 1986 -17 1898 -34 1790 -56 c 0
 1682 -78 1589 -96 1511 -112 c 0
 1433 -128 1343 -143 1241 -156 c 0
 1139 -169 1045 -175 959 -175 c 0
 871 -175 782 -170 692 -160 c 0
 602 -150 525 -139 460 -127 c 0
 395 -115 318 -101 230 -86 c 0
 142 -71 63 -59 -6 -51 c 0
 -18 -50 -28 -44 -37 -34 c 0
 -46 -24 -51 -12 -51 1 c 0
 -51 14 -46 26 -36 36 c 0
 -26 46 -14 51 0 51 c 0
 54 51 112 46 174 38 c 0
 236 30 296 20 353 8 c 0
 410 -4 468 -16 526 -28 c 0
 584 -40 646 -51 711 -59 c 0
 776 -67 838 -72 896 -72 c 0
EndSplineSet
EndChar

StartChar: grave
Encoding: 96 96 67
Width: 1325
Flags: HW
HStem: 1124 320
VStem: 933 101<1124.47 1240>
LayerCount: 2
Fore
SplineSet
1034 1167 m 0
 1034 1146 1005 1124 984 1124 c 0
 956 1124 939 1137 933 1164 c 1
 933 1205 l 1
 919 1219 888 1261 872 1275 c 0
 838 1304 852 1294 838 1304 c 0
 806 1326 777 1321 748 1349 c 0
 732 1364 726 1378 726 1395 c 0
 726 1424 753 1444 780 1444 c 0
 795 1444 810 1438 819 1423 c 1
 820 1423 822 1423 823 1423 c 0
 865 1423 896 1390 919 1369 c 0
 950 1339 980 1298 1007 1266 c 0
 1012 1260 1017 1251 1020 1240 c 1
 1020 1187 l 1
 1021 1184 1034 1172 1034 1167 c 0
EndSplineSet
EndChar

StartChar: a
Encoding: 97 97 68
Width: 950
Flags: HW
HStem: -21 113<762.234 893.342> 27 102<283.769 555.785> 675 102<202.023 447.266>
VStem: 47 94<260.88 610.105> 547 102<410.565 569.714> 564 97<207.132 326.528>
LayerCount: 2
Fore
SplineSet
47 433 m 2x74
 47 439 46 445 46 451 c 0
 46 491 50 528 58 562 c 0
 67 602 81 637 99 669 c 0
 117 701 142 726 173 745 c 0
 204 764 240 775 281 777 c 1
 343 777 l 2
 376 777 412 767 449 748 c 0
 486 729 517 707 540 684 c 0
 601 627 637 555 649 466 c 1
 649 442 l 2
 649 428 644 416 634 406 c 0
 624 396 612 391 598 391 c 0
 582 392 568 398 558 410 c 0
 548 422 545 437 547 455 c 1
 538 519 512 571 468 611 c 1
 468 612 l 1
 426 654 377 675 321 675 c 2
 299 675 l 2
 270 675 243 665 217 644 c 0
 191 623 172 594 160 556 c 0
 147 518 141 477 141 432 c 2
 141 327 l 1
 152 305 162 288 172 276 c 0
 182 264 195 251 212 237 c 0
 229 223 243 211 253 201 c 0
 262 192 269 185 274 181 c 0
 279 177 283 174 286 173 c 0
 289 172 295 170 302 168 c 0
 309 166 316 164 323 161 c 0
 371 143 425 132 487 129 c 1x78
 519 137 540 145 550 152 c 0
 560 159 564 171 564 190 c 2
 564 287 l 2
 564 303 568 317 576 327 c 0
 584 337 596 342 611 342 c 0
 623 342 634 337 645 329 c 0
 656 321 661 311 661 301 c 0
 661 296 662 291 664 286 c 0
 666 281 668 275 671 269 c 0
 674 263 676 259 677 255 c 0
 685 242 691 230 697 221 c 0
 703 212 708 204 712 197 c 0
 716 190 720 182 726 176 c 0
 732 170 736 165 738 161 c 0
 740 157 746 153 753 146 c 0
 760 139 765 134 768 132 c 0
 771 130 778 124 789 114 c 0
 800 104 809 97 814 92 c 1
 872 92 l 1
 882 89 892 82 901 68 c 0
 910 54 915 41 915 29 c 0
 915 14 908 0 894 -12 c 0
 880 -24 864 -27 848 -21 c 1
 779 -21 l 1xb4
 775 -20 771 -17 766 -14 c 0
 761 -11 756 -8 750 -3 c 0
 744 2 740 7 735 11 c 0
 730 15 724 21 718 28 c 0
 712 35 706 41 702 46 c 0
 698 51 693 56 686 64 c 0
 679 72 675 78 672 81 c 0
 669 84 664 89 658 97 c 0
 652 105 649 109 648 110 c 1
 634 86 612 67 584 51 c 0
 556 35 523 27 484 27 c 0
 411 27 337 43 263 76 c 0
 225 92 184 122 140 167 c 0
 96 212 65 255 47 295 c 1
 47 433 l 2x74
EndSplineSet
EndChar

StartChar: b
Encoding: 98 98 69
Width: 942
Flags: HW
HStem: -8 112<243.782 615.89> 600 108<184.244 572.019>
VStem: 56 113<215.15 569.351> 709 132<214.602 479.552>
LayerCount: 2
Fore
SplineSet
238 600 m 0
 207 600 189 590 184 571 c 0
 174 536 169 489 169 431 c 0
 169 425 169 426 169 420 c 0
 170 357 176 308 189 273 c 0
 191 268 194 259 198 248 c 0
 202 237 205 230 207 224 c 0
 209 218 212 210 216 200 c 0
 220 190 223 182 226 177 c 0
 229 172 233 165 238 157 c 0
 243 149 248 143 252 139 c 0
 256 135 262 130 268 124 c 0
 274 118 280 114 287 112 c 0
 294 110 301 108 309 106 c 0
 317 104 326 104 336 104 c 0
 346 104 356 105 367 107 c 0
 401 113 450 116 514 118 c 0
 536 119 556 122 573 128 c 0
 590 134 604 139 614 147 c 0
 624 155 635 165 644 179 c 0
 653 193 660 204 665 215 c 0
 670 226 676 240 684 258 c 0
 692 276 699 289 704 300 c 0
 708 308 709 323 709 346 c 0
 709 369 710 383 713 390 c 0
 717 401 714 412 704 425 c 0
 695 434 685 448 672 468 c 0
 659 488 645 505 632 520 c 0
 619 535 603 545 586 551 c 0
 487 584 379 600 264 600 c 0
 255 600 247 600 238 600 c 0
841 363 m 0
 841 322 832 279 812 235 c 0
 792 191 766 150 734 114 c 0
 702 78 663 48 618 25 c 0
 573 2 527 -10 479 -10 c 0
 444 -10 415 -9 390 -8 c 0
 365 -7 340 -5 314 -1 c 0
 288 3 266 7 248 14 c 0
 230 21 212 30 196 40 c 0
 180 50 165 63 154 79 c 0
 143 95 133 113 126 134 c 0
 79 270 56 392 56 501 c 0
 56 625 72 745 105 862 c 0
 138 979 179 1078 230 1158 c 0
 237 1170 259 1201 294 1254 c 0
 329 1307 362 1357 392 1404 c 0
 422 1451 442 1485 453 1507 c 1
 464 1524 478 1533 496 1533 c 0
 514 1533 529 1526 541 1510 c 0
 553 1494 554 1477 543 1458 c 0
 520 1418 444 1300 317 1106 c 1
 247 994 199 854 173 686 c 1
 229 701 286 708 345 708 c 2
 440 708 l 2
 455 708 469 707 483 706 c 0
 497 705 510 702 523 699 c 0
 536 696 547 692 557 690 c 0
 567 688 578 684 590 678 c 0
 602 672 612 667 619 664 c 0
 626 661 635 656 648 648 c 0
 661 640 670 635 674 632 c 0
 678 629 687 623 701 613 c 0
 715 603 723 597 727 595 c 0
 803 543 841 466 841 363 c 0
EndSplineSet
EndChar

StartChar: c
Encoding: 99 99 70
Width: 782
Flags: HW
HStem: -56 102<182.988 549.048> 82 100<661.609 765.529> 629 21G<582.5 599.5> 778 102<174.859 417.287>
VStem: -7 105<136.987 687.543>
LayerCount: 2
Fore
SplineSet
328 -56 m 0
 223 -53 140 -17 78 51 c 0
 21 114 -8 196 -8 294 c 0
 -8 302 -7 310 -7 318 c 2
 -7 447 l 2
 -6 531 2 596 16 644 c 0
 30 692 57 743 96 797 c 0
 116 824 141 844 173 858 c 0
 205 872 238 880 272 880 c 0
 306 880 341 874 376 864 c 0
 411 854 442 839 471 820 c 0
 546 770 592 740 610 730 c 0
 633 717 645 702 645 685 c 0
 645 668 641 654 631 644 c 0
 621 634 608 629 591 629 c 0
 574 629 544 644 501 675 c 0
 493 680 481 689 465 701 c 0
 449 713 437 721 429 726 c 0
 421 731 410 738 396 746 c 0
 382 754 370 761 360 764 c 0
 350 767 337 771 322 774 c 0
 307 777 293 778 277 778 c 0
 230 778 193 760 166 723 c 0
 138 685 120 648 112 611 c 0
 104 574 99 519 98 446 c 2
 98 314 l 2
 98 261 103 219 114 188 c 0
 125 157 145 127 175 97 c 0
 209 63 263 46 338 46 c 0
 366 46 390 47 410 49 c 0
 430 51 447 53 460 55 c 0
 473 57 487 62 502 68 c 0
 517 74 527 79 535 83 c 0
 543 87 556 95 575 106 c 0
 594 117 610 127 623 134 c 0
 680 166 715 182 727 182 c 0
 743 182 756 176 766 166 c 0
 776 156 780 142 780 125 c 0
 780 106 769 92 746 82 c 0
 725 72 700 59 673 44 c 0
 646 29 622 16 602 5 c 0
 582 -6 559 -17 532 -27 c 0
 505 -37 475 -45 441 -50 c 0
 413 -54 381 -56 348 -56 c 0
 338 -56 338 -56 328 -56 c 0
EndSplineSet
EndChar

StartChar: d
Encoding: 100 100 71
Width: 942
Flags: HW
HStem: -11 117<299.325 656.577> 600 103<539.499 711.756> 600 86<539.499 711.756>
VStem: 56 124<235.017 468.916> 347 97<1429.2 1522.58> 726 115<215.027 569.4>
LayerCount: 2
Fore
SplineSet
659 600 m 0xdc
 651 600 642 600 634 600 c 2
 311 551 l 1
 296 547 281 537 266 521 c 0
 251 505 236 486 221 464 c 0
 206 442 196 429 192 424 c 0
 184 415 180 408 180 401 c 0
 180 394 182 385 185 375 c 0
 188 365 189 354 187 342 c 0
 185 326 186 310 192 295 c 0
 198 280 206 265 216 249 c 0
 226 233 233 220 236 211 c 0
 249 177 270 153 298 139 c 0
 326 125 371 117 432 115 c 0
 444 114 460 113 480 111 c 0
 500 109 516 108 528 107 c 0
 540 106 554 106 570 106 c 0
 586 106 598 109 608 112 c 0
 618 115 628 121 638 129 c 0
 648 137 656 147 662 160 c 0
 675 187 685 208 691 224 c 0
 697 240 704 263 711 291 c 0
 718 319 722 350 724 383 c 0
 725 405 726 425 726 444 c 0
 726 494 721 537 712 571 c 0
 707 590 689 600 659 600 c 0xdc
418 -11 m 0
 379 -11 341 -3 304 12 c 0
 267 27 233 46 204 72 c 0
 175 98 148 126 126 158 c 0
 104 190 86 224 74 260 c 0
 62 296 56 330 56 364 c 0
 56 466 96 544 175 600 c 0xbc
 198 616 217 629 232 638 c 0
 247 647 266 657 290 668 c 0
 314 679 339 687 366 693 c 0
 393 699 423 702 456 703 c 2
 551 703 l 2xdc
 621 703 678 697 723 686 c 1xbc
 708 770 690 847 668 917 c 0
 646 987 616 1050 579 1106 c 0
 578 1107 571 1118 557 1138 c 0
 543 1158 527 1181 511 1205 c 0
 495 1229 476 1257 455 1289 c 0
 434 1321 416 1350 400 1376 c 0
 384 1402 370 1426 360 1447 c 0
 350 1468 346 1482 347 1488 c 1
 347 1502 353 1514 366 1523 c 0
 379 1532 394 1534 410 1532 c 0
 426 1530 437 1521 444 1507 c 0
 463 1467 507 1394 576 1290 c 0
 645 1186 688 1119 705 1089 c 0
 742 1023 774 933 801 819 c 0
 828 705 841 598 841 498 c 0
 841 391 818 270 771 134 c 0
 763 109 751 89 736 71 c 0
 721 53 703 39 683 29 c 0
 663 19 639 10 610 4 c 0
 581 -2 552 -6 523 -8 c 0
 494 -10 459 -11 418 -11 c 0
EndSplineSet
EndChar

StartChar: e
Encoding: 101 101 72
Width: 921
Flags: HW
HStem: -27 103<331.465 685.242> 98 101<781.516 896.575> 350 103<253.42 655.826> 406 104<135.423 362.905> 772 102<267.202 718.312>
VStem: -8 103<295.57 632.006> 770 103<570.117 722.104>
LayerCount: 2
Fore
SplineSet
770 641 m 0xee
 771 659 768 676 760 690 c 0
 752 704 741 716 726 725 c 0
 711 734 696 743 679 749 c 0
 662 755 643 760 621 763 c 0
 599 766 579 769 561 770 c 0
 543 771 524 772 505 772 c 0
 470 772 421 766 359 752 c 0
 297 738 253 725 227 713 c 0
 192 697 161 668 135 625 c 0
 109 582 95 537 95 488 c 0
 95 423 107 366 130 315 c 0
 153 264 185 222 228 188 c 0
 291 138 351 105 408 89 c 0
 437 80 470 76 504 76 c 0
 536 76 570 80 606 87 c 1
 616 87 658 106 732 143 c 0
 806 180 848 199 859 199 c 0
 875 199 888 194 897 183 c 0
 906 172 911 158 911 140 c 0
 911 121 899 107 875 98 c 0
 854 90 828 77 796 61 c 0
 764 45 736 31 712 19 c 0
 688 7 659 -3 625 -13 c 0
 591 -23 557 -27 524 -27 c 0
 484 -27 448 -24 415 -18 c 0
 382 -12 352 -3 323 9 c 0
 294 21 267 35 244 50 c 0
 221 65 195 84 165 107 c 0
 110 150 67 205 37 270 c 0
 7 335 -8 410 -8 496 c 0
 -8 539 2 583 21 627 c 0
 40 671 65 711 98 745 c 0
 131 779 166 803 203 816 c 0
 312 855 403 874 477 874 c 0
 741 874 873 794 873 635 c 0
 872 585 850 536 808 490 c 0
 747 423 672 380 586 361 c 0
 552 354 516 350 479 350 c 0xee
 422 350 362 359 299 376 c 0
 288 379 275 382 261 386 c 0
 247 390 236 392 228 394 c 0
 220 396 211 398 203 400 c 0
 195 402 187 404 182 405 c 0
 177 406 172 406 169 406 c 0
 155 406 144 410 135 417 c 0
 126 424 122 433 120 443 c 0
 118 453 118 464 120 474 c 0
 122 484 128 493 137 500 c 0
 146 507 156 510 168 510 c 0xde
 192 510 244 501 325 482 c 0
 406 463 461 453 491 453 c 0
 582 453 659 485 723 549 c 1
 723 567 l 1
 725 569 729 574 735 580 c 0
 741 586 745 591 748 595 c 0
 751 599 754 603 758 609 c 0
 762 615 765 621 767 626 c 0
 769 631 770 636 770 641 c 0xee
EndSplineSet
EndChar

StartChar: f
Encoding: 102 102 73
Width: 765
Flags: HW
HStem: -402 118<119.565 388.338> 152 124<177.847 347.157> 276 126<496.703 578>
VStem: 248 108<532.24 908.02> 440 126<-230.09 165.32>
LayerCount: 2
Fore
SplineSet
123 218 m 1xd8
 120 219 117 220 113 221 c 0
 109 222 105 224 102 225 c 0
 99 226 95 228 92 230 c 256
 89 232 76 258 52 309 c 2
 43 326 l 1
 45 328 49 334 56 342 c 0
 63 350 68 356 74 361 c 0
 80 366 86 368 90 368 c 0
 105 368 119 364 135 354 c 0
 151 344 164 334 176 322 c 0
 188 310 201 299 216 289 c 0
 231 279 246 274 260 274 c 1
 260 276 l 1
 296 276 l 2xd8
 313 276 330 281 348 292 c 1
 342 310 325 354 298 424 c 0
 271 494 255 537 248 552 c 1
 248 788 l 2
 248 814 249 839 253 862 c 0
 257 885 263 907 271 928 c 0
 279 949 290 968 302 983 c 0
 314 998 331 1010 350 1019 c 0
 369 1028 390 1032 414 1032 c 0
 435 1032 459 1026 482 1013 c 0
 505 1000 525 984 542 966 c 0
 559 948 574 929 585 910 c 0
 596 891 602 875 602 862 c 0
 602 848 597 835 587 825 c 0
 577 815 567 807 554 804 c 0
 541 801 528 801 515 806 c 0
 502 811 494 819 488 832 c 0
 468 879 442 906 412 910 c 0
 402 911 394 907 386 899 c 0
 378 891 372 879 368 866 c 0
 364 853 361 841 359 829 c 0
 357 817 356 807 356 798 c 0
 356 784 358 753 363 706 c 0
 368 659 370 629 370 616 c 1
 386 578 414 494 454 364 c 1
 492 390 529 402 564 402 c 0
 580 402 595 399 610 394 c 2
 680 370 l 1
 703 364 715 350 718 326 c 0
 718 323 719 319 719 316 c 0
 719 296 712 279 698 264 c 0
 688 254 676 248 663 248 c 0
 655 248 647 250 638 254 c 2
 578 276 l 1xb8
 568 276 556 273 541 267 c 0
 526 261 511 254 496 244 c 1
 515 194 530 150 540 112 c 0
 550 74 557 35 562 -4 c 0
 564 -22 566 -40 566 -58 c 0
 566 -78 565 -98 562 -118 c 0
 557 -155 547 -194 532 -234 c 0
 522 -260 507 -287 488 -318 c 0
 469 -349 446 -377 422 -402 c 1
 164 -402 l 2
 147 -402 131 -397 119 -386 c 0
 107 -375 100 -362 100 -346 c 0
 100 -330 106 -315 118 -303 c 0
 130 -291 144 -284 160 -284 c 2
 350 -284 l 1
 368 -264 382 -248 391 -236 c 0
 400 -224 409 -208 418 -190 c 0
 427 -172 433 -151 436 -129 c 0
 439 -107 440 -81 440 -50 c 0
 440 9 425 84 392 174 c 1
 362 159 337 152 318 152 c 2
 260 152 l 2
 259 152 259 152 258 152 c 0
 231 152 185 171 120 210 c 1
 123 218 l 1xd8
EndSplineSet
EndChar

StartChar: g
Encoding: 103 103 74
Width: 692
Flags: HW
HStem: -407 104<253.547 471.21> 30 103<254 308.307> 515 110<158.214 388>
VStem: 38 103<173.028 510.125> 510 102<-269.997 68.9709> 534 99<-114.714 235.427>
LayerCount: 2
Fore
SplineSet
189 515 m 1xf4
 186 511 181 504 174 495 c 0
 167 486 163 478 160 473 c 0
 157 468 153 461 149 452 c 0
 145 443 143 433 142 423 c 0
 141 413 140 401 141 388 c 2
 141 357 l 2
 141 322 142 294 145 273 c 0
 148 252 152 236 157 224 c 0
 162 212 170 194 182 172 c 1
 185 170 197 164 215 153 c 0
 233 142 246 135 254 132 c 1
 254 133 l 1
 264 133 273 136 281 142 c 0
 289 148 294 154 299 162 c 0
 306 174 307 174 314 186 c 0
 319 194 325 200 333 206 c 0
 341 212 351 215 362 215 c 0
 373 215 385 210 396 201 c 0
 407 192 412 182 412 172 c 0
 412 139 396 107 364 76 c 0
 332 45 300 30 267 30 c 0
 260 30 252 30 244 32 c 0
 236 34 229 35 224 36 c 0
 219 37 212 41 203 45 c 0
 194 49 189 52 186 53 c 0
 183 54 176 58 166 64 c 0
 156 70 150 72 149 73 c 0
 101 99 73 133 65 174 c 1
 47 217 38 272 38 340 c 0
 38 403 41 447 46 472 c 0
 51 497 65 523 87 549 c 1
 105 572 116 588 122 596 c 0
 133 615 143 625 154 625 c 2
 423 625 l 1
 501 575 l 1
 511 571 518 563 524 553 c 1
 581 473 l 1
 633 145 l 1
 633 11 l 2xf4
 633 -38 632 -72 630 -90 c 0
 628 -108 622 -138 612 -178 c 1
 612 -206 l 2
 612 -207 611 -211 609 -216 c 0
 607 -221 603 -228 598 -239 c 0
 593 -250 588 -260 584 -270 c 0
 544 -361 489 -407 418 -407 c 0
 416 -407 417 -407 416 -407 c 2
 360 -407 l 2
 259 -407 175 -353 108 -244 c 0
 78 -197 63 -167 63 -153 c 0
 63 -139 68 -127 79 -118 c 0
 90 -109 103 -104 118 -104 c 0
 132 -104 144 -109 153 -118 c 0
 162 -127 171 -141 179 -158 c 0
 187 -175 192 -186 195 -190 c 0
 221 -228 247 -256 273 -275 c 0
 299 -294 327 -303 358 -303 c 2
 416 -303 l 2
 430 -303 443 -297 454 -286 c 0
 462 -277 471 -263 483 -242 c 0
 495 -221 504 -198 510 -175 c 1
 510 -115 l 1xf8
 518 -109 524 -96 529 -78 c 0
 534 -60 535 -41 534 -22 c 0
 534 -20 535 -9 536 10 c 0
 537 29 537 48 537 70 c 0
 537 92 535 115 531 139 c 2
 486 428 l 1
 442 489 l 1
 388 515 l 1
 189 515 l 1xf4
EndSplineSet
EndChar

StartChar: h
Encoding: 104 104 75
Width: 819
Flags: HW
HStem: 629 20G<345.5 419.5>
VStem: 48 123<1452.36 1521> 52 116<-16.4353 113.969> 139 103<601.297 960.507> 164 107<884.144 1413.53> 655 118<-20.5752 448.548> 686 107<48.4375 411.814>
LayerCount: 2
Fore
SplineSet
655 54 m 1x84
 657 64 661 76 667 90 c 0
 673 104 676 119 680 133 c 0
 684 147 686 165 686 184 c 2
 686 266 l 2
 686 317 673 364 646 406 c 0
 619 448 585 476 545 491 c 1
 501 523 446 542 380 548 c 1
 380 547 l 1
 377 545 371 541 361 535 c 0
 351 529 344 525 341 523 c 0
 338 521 333 517 325 512 c 0
 317 507 311 503 308 500 c 0
 305 497 301 494 296 489 c 0
 291 484 288 479 286 475 c 0
 284 471 281 466 280 461 c 1
 213 348 172 233 157 115 c 1
 164 93 168 72 168 51 c 2
 168 30 l 2
 168 10 163 -5 154 -17 c 0
 145 -29 131 -35 114 -35 c 0
 93 -36 77 -24 66 0 c 0
 56 23 52 53 52 92 c 0
 52 98 52 98 52 104 c 0xa2
 43 128 39 147 39 160 c 2
 39 219 l 2
 39 273 52 352 78 457 c 1
 78 500 l 1
 119 750 139 882 139 895 c 0x90
 139 907 147 930 164 962 c 1
 164 969 164 980 164 995 c 0
 164 1010 164 1021 164 1028 c 0
 164 1035 164 1046 164 1061 c 0x88
 161 1115 160 1208 160 1339 c 1
 153 1358 139 1385 115 1420 c 0
 91 1455 73 1476 60 1484 c 1
 53 1492 48 1502 48 1512 c 0
 48 1522 50 1532 56 1540 c 0
 62 1548 69 1555 77 1561 c 0
 85 1567 94 1569 105 1568 c 0
 116 1567 125 1562 134 1554 c 2
 171 1521 l 2xc0
 171 1521 174 1517 179 1509 c 0
 184 1501 189 1495 192 1490 c 0
 195 1485 200 1478 206 1468 c 0
 212 1458 218 1450 222 1442 c 0
 226 1434 232 1424 237 1414 c 0
 242 1404 247 1395 250 1387 c 0
 253 1379 256 1371 258 1362 c 0
 260 1353 262 1345 262 1339 c 0
 262 1313 263 1268 266 1204 c 0
 269 1140 271 1089 271 1051 c 2
 271 963 l 2x88
 271 954 269 944 265 934 c 0
 261 924 257 914 252 904 c 0
 247 894 243 887 242 884 c 0
 242 868 239 847 234 823 c 0
 229 799 226 779 224 765 c 0
 220 732 206 643 182 497 c 1
 197 529 215 557 238 581 c 0
 261 605 291 626 327 644 c 0
 334 647 341 649 350 649 c 2
 379 649 l 2
 460 649 534 625 601 577 c 1
 657 553 703 512 739 454 c 0
 775 396 793 333 793 267 c 2
 793 172 l 2x92
 793 160 792 148 790 137 c 0
 788 126 784 113 780 100 c 0
 776 87 774 79 773 76 c 2
 773 48 l 1
 771 43 767 36 763 24 c 0
 759 12 755 3 752 -5 c 0
 749 -13 744 -20 737 -26 c 0
 730 -32 722 -35 712 -35 c 0
 695 -35 682 -30 671 -21 c 0
 660 -12 655 1 655 16 c 2
 655 54 l 1x84
EndSplineSet
EndChar

StartChar: i
Encoding: 105 105 76
Width: 405
Flags: HW
HStem: 805 20G<201.5 214.5> 1005 160<146.564 219.412>
VStem: 121 164<1005.57 1147.57> 186 72<6.4248 135.441> 215 111<87.5356 730.782>
LayerCount: 2
Fore
SplineSet
215 661 m 1xc8
 212 672 207 683 200 693 c 0
 193 703 187 711 181 717 c 0
 175 723 170 731 165 741 c 0
 160 751 158 762 158 774 c 0
 158 788 163 800 173 810 c 0
 183 820 195 825 208 825 c 0
 221 825 233 820 242 812 c 0
 251 804 257 794 259 782 c 1
 304 702 326 631 326 568 c 2
 326 274 l 2xc8
 326 248 324 227 320 211 c 0
 316 195 309 180 303 164 c 0
 297 148 292 131 289 114 c 0
 283 81 273 54 258 31 c 1
 258 14 l 1
 248 2 234 -4 217 -6 c 0
 200 -8 185 -3 172 6 c 0
 159 15 153 28 154 45 c 0
 154 56 159 69 170 87 c 0
 181 105 186 115 186 119 c 0xd0
 186 123 190 132 198 145 c 0
 206 158 212 169 215 178 c 1
 215 661 l 1xc8
221 981 m 1
 187 985 161 993 145 1005 c 0
 129 1017 121 1038 121 1069 c 0
 121 1077 124 1091 129 1110 c 1
 129 1126 134 1139 146 1149 c 0
 158 1159 172 1165 189 1165 c 0
 209 1165 226 1160 240 1148 c 0
 254 1136 265 1118 275 1095 c 0
 285 1071 289 1051 285 1034 c 0xe0
 281 1017 273 1005 262 996 c 0
 251 987 237 982 221 980 c 1
 221 981 l 1
EndSplineSet
EndChar

StartChar: j
Encoding: 106 106 77
Width: 692
Flags: HW
HStem: -395 98<71.4695 274.645> 1118 99<123 172>
VStem: 348 103<-179.639 268.082>
LayerCount: 2
Fore
SplineSet
111 1217 m 1
 172 1217 l 1
 208 1175 l 1
 184 1118 l 1
 123 1118 l 1
 86 1160 l 1
 111 1217 l 1
160 899 m 1
 160 913 165 925 175 935 c 0
 185 945 197 950 211 950 c 0
 224 950 235 945 243 936 c 0
 251 927 258 916 262 902 c 2
 451 217 l 1
 451 -61 l 1
 449 -67 444 -80 438 -99 c 0
 432 -118 425 -136 419 -152 c 0
 413 -168 409 -179 405 -186 c 1
 393 -279 355 -338 291 -363 c 0
 280 -367 270 -372 260 -378 c 0
 250 -384 241 -387 234 -390 c 0
 227 -393 219 -395 209 -395 c 2
 111 -395 l 1
 111 -399 l 1
 96 -399 84 -394 73 -384 c 0
 62 -374 57 -362 57 -348 c 0
 57 -334 61 -322 71 -312 c 0
 81 -302 92 -298 106 -297 c 2
 193 -297 l 1
 234 -281 262 -265 277 -250 c 0
 285 -242 292 -223 300 -192 c 0
 308 -161 312 -142 314 -137 c 0
 318 -128 324 -110 332 -83 c 0
 340 -56 345 -38 348 -30 c 1
 348 216 l 1
 160 899 l 1
EndSplineSet
EndChar

StartChar: k
Encoding: 107 107 78
Width: 800
Flags: HW
HStem: 1013 101<652.086 824.532>
VStem: 59 100<1414.8 1550.76> 114 110<13.7578 136.762 137.097 490.69>
LayerCount: 2
Fore
SplineSet
224 188 m 0xa0
 224 176 224 167 224 160 c 0
 224 153 223 142 223 130 c 0
 223 118 222 108 221 100 c 0
 220 92 218 84 216 74 c 0
 214 64 213 55 210 49 c 0
 207 43 203 36 199 30 c 0
 195 24 191 19 185 16 c 0
 179 13 173 12 166 12 c 0
 130 12 112 36 112 84 c 0
 112 86 107 94 98 108 c 0
 89 122 84 132 85 137 c 0
 86 139 88 146 92 157 c 0
 96 168 99 175 100 178 c 0
 101 181 102 188 105 198 c 0
 108 208 109 217 110 224 c 0
 111 231 112 241 113 253 c 0
 114 265 114 277 114 291 c 0xa0
 114 332 119 376 130 424 c 0
 141 472 156 519 174 565 c 0
 192 611 212 654 232 693 c 0
 252 732 272 771 294 808 c 1
 293 835 293 860 291 883 c 0
 289 906 286 928 282 950 c 0
 278 972 275 990 273 1005 c 0
 271 1020 265 1038 258 1059 c 0
 251 1080 246 1096 242 1106 c 0
 238 1116 231 1133 220 1156 c 0
 209 1179 201 1195 196 1204 c 0
 191 1213 182 1232 167 1260 c 0
 152 1288 141 1309 135 1321 c 0
 84 1419 59 1478 59 1498 c 0
 59 1512 63 1525 72 1535 c 0
 81 1545 91 1552 102 1555 c 0
 113 1558 125 1556 136 1551 c 0
 147 1546 155 1536 159 1523 c 0xc0
 170 1490 185 1453 204 1412 c 0
 223 1371 242 1333 261 1297 c 0
 280 1261 299 1224 317 1185 c 0
 335 1146 351 1106 364 1064 c 0
 377 1022 385 981 389 942 c 1
 462 1007 575 1061 727 1104 c 1
 739 1112 753 1116 767 1114 c 0
 781 1112 795 1106 807 1096 c 0
 819 1086 825 1076 825 1064 c 0
 825 1036 812 1019 785 1013 c 0
 741 1003 676 980 588 946 c 0
 504 912 444 867 410 809 c 1
 423 758 435 701 445 638 c 0
 483 415 540 270 617 203 c 0
 624 197 643 183 673 162 c 0
 703 141 728 121 748 101 c 0
 768 81 780 62 784 43 c 1
 784 27 779 15 768 6 c 0
 757 -3 744 -7 729 -6 c 0
 714 -5 701 1 690 13 c 0
 675 29 654 47 628 68 c 0
 602 89 578 108 558 124 c 0
 538 140 517 161 496 185 c 0
 475 209 459 234 448 259 c 0
 430 302 404 370 372 460 c 0
 340 550 320 613 313 647 c 1
 310 612 301 576 287 540 c 0
 245 437 224 320 224 188 c 0xa0
EndSplineSet
EndChar

StartChar: l
Encoding: 108 108 79
Width: 471
Flags: HW
HStem: 1371 20G<202.5 218.5>
VStem: 127 102<6.51709 248.593> 262 103<505.188 1093.57>
LayerCount: 2
Fore
SplineSet
262 849 m 2
 263 858 263 867 263 876 c 0
 263 900 261 924 256 950 c 0
 250 985 241 1019 231 1051 c 0
 221 1083 211 1114 200 1145 c 0
 189 1176 180 1208 172 1241 c 0
 164 1274 160 1305 160 1332 c 0
 160 1349 165 1363 174 1374 c 0
 183 1385 195 1391 210 1391 c 0
 227 1391 240 1386 248 1376 c 0
 256 1366 262 1349 266 1327 c 0
 271 1296 280 1259 293 1216 c 0
 306 1173 317 1134 328 1100 c 0
 339 1066 348 1027 356 981 c 0
 362 943 366 906 366 870 c 0
 366 862 365 855 365 848 c 2
 365 822 l 1
 363 749 357 676 346 602 c 0
 335 528 324 465 312 413 c 0
 300 361 285 298 268 225 c 0
 251 152 238 87 229 32 c 0
 227 20 221 10 211 2 c 0
 201 -6 190 -10 177 -10 c 0
 162 -10 150 -5 141 6 c 0
 132 17 127 30 127 46 c 0
 127 90 131 139 141 192 c 0
 151 245 162 297 176 347 c 0
 190 397 203 448 216 500 c 0
 229 552 241 607 250 664 c 0
 258 717 262 767 262 814 c 0
 262 820 262 820 262 825 c 2
 262 849 l 2
EndSplineSet
EndChar

StartChar: m
Encoding: 109 109 80
Width: 1191
Flags: HW
HStem: 630 102<49.3482 181.86> 653 102<419.425 583.057>
VStem: 1034 101<170.613 528.009>
LayerCount: 2
Fore
SplineSet
204 401 m 0x60
 203 410 203 421 202 436 c 0
 201 451 200 464 200 475 c 0
 200 486 199 498 198 512 c 0
 197 526 194 540 192 550 c 0
 190 560 188 570 184 581 c 0
 180 592 175 600 170 607 c 0
 165 614 158 620 150 624 c 0
 142 628 133 630 123 630 c 0
 113 630 104 628 95 623 c 0
 86 618 77 612 70 605 c 0
 63 598 55 591 48 584 c 0
 41 577 33 571 24 566 c 0
 15 561 7 559 -2 559 c 0
 -13 559 -23 562 -31 570 c 0
 -39 578 -46 587 -49 597 c 0
 -52 607 -52 617 -49 628 c 0
 -46 639 -39 647 -29 652 c 0
 -28 653 -14 666 13 693 c 0
 39 719 75 732 122 732 c 0xa0
 209 732 264 683 288 584 c 1
 341 698 407 755 487 755 c 0
 510 755 530 753 548 749 c 0
 566 745 583 738 597 729 c 0
 611 720 623 710 633 701 c 0
 643 692 655 679 668 664 c 0
 674 657 677 640 677 613 c 0
 677 543 675 486 670 444 c 1
 699 549 l 1
 730 623 791 679 881 718 c 0
 901 727 922 730 942 726 c 0
 962 722 980 711 995 693 c 0
 1018 665 1037 642 1051 622 c 0
 1065 602 1078 579 1092 553 c 0
 1106 527 1115 499 1122 468 c 0
 1129 437 1133 402 1135 363 c 1
 1135 337 l 2
 1135 305 1131 272 1124 240 c 0
 1117 208 1109 182 1100 160 c 0
 1091 138 1082 113 1070 83 c 0
 1058 53 1050 28 1044 6 c 0
 1034 -31 1016 -50 989 -51 c 0
 974 -51 962 -45 952 -35 c 0
 942 -25 938 -12 938 4 c 0
 938 24 941 46 948 69 c 0
 955 92 964 114 974 136 c 0
 984 158 993 180 1003 202 c 0
 1013 224 1021 248 1027 274 c 0
 1032 295 1034 316 1034 336 c 0
 1034 340 1034 345 1034 349 c 0
 1031 410 1021 460 1004 499 c 0
 987 538 959 579 920 623 c 1
 898 612 879 601 865 591 c 0
 851 581 837 568 823 553 c 0
 809 538 798 521 790 501 c 0
 782 481 777 458 774 431 c 0
 771 399 768 377 766 365 c 0
 764 353 759 340 752 326 c 0
 745 312 735 297 721 281 c 0
 709 268 694 259 676 254 c 0
 658 249 640 248 624 252 c 0
 608 256 594 265 584 279 c 0
 574 293 569 309 572 329 c 2
 606 574 l 1
 603 580 599 588 592 597 c 0
 585 606 578 615 568 624 c 0
 558 633 548 641 536 647 c 0
 524 653 514 655 504 653 c 1
 483 653 l 1
 469 648 457 642 449 638 c 0
 441 634 433 627 426 619 c 0
 419 611 414 603 411 597 c 0
 408 591 402 580 394 564 c 0
 386 548 378 533 372 521 c 0
 356 491 341 455 328 414 c 0
 315 373 306 334 298 298 c 0
 290 262 280 220 268 172 c 0
 256 124 242 82 228 46 c 0
 217 14 199 -2 174 -2 c 1
 152 0 137 9 129 26 c 0
 121 43 121 64 131 86 c 0
 140 107 163 189 199 334 c 0
 202 347 204 370 204 401 c 0x60
EndSplineSet
EndChar

StartChar: n
Encoding: 110 110 81
Width: 884
Flags: HW
HStem: 35 15<185.587 201.812> 681 103<348.17 565.212> 744 102<11.4538 105.906>
VStem: 29 88<59.45 312.122> 649 106<108.224 599.935>
LayerCount: 2
Fore
SplineSet
138 3 m 0xd8
 126 3 117 5 109 7 c 0
 101 9 94 13 87 17 c 0
 80 21 75 25 72 26 c 1
 69 25 66 29 63 39 c 0
 60 49 57 60 55 72 c 0
 53 84 52 92 51 94 c 0
 42 120 35 153 31 193 c 0
 30 208 29 222 29 236 c 0
 29 259 31 282 35 303 c 0
 40 322 49 344 63 368 c 0
 77 392 91 413 105 432 c 0
 119 451 134 471 148 494 c 0
 162 517 171 537 175 554 c 0
 180 572 178 592 170 612 c 0
 162 632 150 654 135 676 c 0
 120 698 111 715 107 725 c 1
 108 730 108 734 106 737 c 0
 104 740 101 742 97 743 c 0
 93 744 89 744 85 744 c 0
 81 744 76 744 70 744 c 0
 64 744 60 743 58 743 c 0
 57 743 49 735 36 722 c 0
 23 709 9 697 -5 686 c 0
 -19 675 -30 671 -35 674 c 1
 -46 673 -55 675 -64 682 c 0
 -73 689 -80 696 -84 706 c 0
 -88 716 -90 725 -88 736 c 0
 -86 747 -81 756 -73 762 c 0
 -70 764 -62 771 -50 782 c 0
 -38 793 -27 803 -17 811 c 0
 -7 819 6 827 21 835 c 0
 36 843 50 846 62 846 c 0xb8
 85 846 103 844 116 838 c 0
 129 832 142 823 155 810 c 2
 194 771 l 2
 211 754 229 724 248 681 c 1
 282 726 323 756 373 772 c 0
 399 780 426 784 452 784 c 0
 476 784 500 781 524 774 c 0
 574 760 619 732 659 692 c 0
 723 627 756 561 756 494 c 0
 756 490 755 487 755 483 c 2
 755 396 l 2
 755 392 755 392 755 388 c 0
 755 359 751 324 744 281 c 0
 736 235 727 186 716 135 c 0
 705 84 698 51 696 38 c 0
 690 1 672 -18 643 -18 c 0
 627 -18 615 -13 606 -2 c 0
 597 9 593 23 594 40 c 0
 595 51 604 105 622 202 c 0
 640 299 649 365 649 399 c 2
 649 488 l 2
 649 526 641 555 626 575 c 0
 612 591 601 605 590 615 c 0
 579 625 566 636 552 647 c 0
 538 658 522 666 506 672 c 0
 490 678 475 681 458 681 c 0
 433 681 410 676 390 665 c 0
 370 654 349 638 327 618 c 0
 311 604 300 591 292 578 c 0
 284 565 281 555 280 546 c 0
 279 537 276 525 271 510 c 0
 266 495 258 481 248 465 c 0
 209 405 174 342 143 275 c 0
 128 243 120 214 118 188 c 0
 117 182 117 175 117 169 c 0
 117 151 119 135 124 122 c 0
 131 105 142 86 157 66 c 1
 160 59 165 54 171 52 c 0
 177 50 183 50 188 50 c 0
 193 50 198 49 202 46 c 0
 206 43 208 37 208 29 c 1
 207 29 205 30 203 32 c 0
 201 34 199 34 198 35 c 0
 197 36 194 35 192 35 c 0
 190 35 188 33 187 31 c 0
 179 12 163 3 138 3 c 0xd8
EndSplineSet
EndChar

StartChar: o
Encoding: 111 111 82
Width: 716
Flags: HW
HStem: -2 138<226.001 266> -2 110<315 539.442> 685 115<329 451.256> 714 113<77.3074 290>
VStem: 64 115<155.048 551.25> 100 79<151.051 551.25> 542 122<108 437.512> 565 99<155.009 437.512>
LayerCount: 2
Fore
SplineSet
153 714 m 2x12
 134 714 117 719 101 728 c 0
 85 737 77 750 76 768 c 0
 76 782 79 795 84 806 c 0
 89 817 97 824 107 827 c 1
 309 827 l 1x12
 360 801 l 2
 361 800 362 800 363 800 c 0
 364 800 365 800 366 799 c 2
 415 778 l 2
 420 775 428 770 440 764 c 0
 452 758 460 753 465 750 c 0
 470 747 477 744 487 738 c 0
 497 732 504 727 509 723 c 0
 514 719 520 715 528 708 c 0
 536 701 542 694 547 688 c 0
 552 682 557 675 563 667 c 0
 569 659 573 650 578 641 c 2
 603 592 l 2
 604 592 604 591 604 590 c 0
 604 589 604 588 605 587 c 2
 605 538 l 1
 608 535 615 524 625 506 c 0
 635 488 641 476 642 472 c 2
 664 373 l 1x22
 664 74 l 2
 663 72 658 69 648 65 c 0
 638 61 628 55 615 49 c 0
 602 43 592 37 585 31 c 0
 560 9 533 -2 503 -2 c 2x61
 234 -2 l 2
 233 -1 231 1 230 6 c 0
 229 11 229 16 228 21 c 0
 227 26 226 28 226 28 c 2
 183 28 l 2
 181 29 178 35 173 46 c 0
 168 57 164 63 161 66 c 2
 140 88 l 2
 118 112 105 134 100 155 c 0x85
 100 156 98 158 94 164 c 0
 90 170 87 175 84 179 c 0
 81 183 77 188 74 194 c 0
 71 200 69 206 67 212 c 0
 65 218 64 222 64 227 c 2
 64 523 l 1
 66 536 70 548 77 560 c 0
 84 572 91 581 97 588 c 0
 103 595 112 604 123 614 c 0
 134 624 141 632 145 636 c 0
 152 644 161 648 172 650 c 0
 183 652 194 651 204 647 c 0
 214 643 222 637 229 629 c 0
 236 621 240 612 240 602 c 0
 240 576 228 559 205 552 c 1
 191 536 182 520 179 503 c 1
 179 181 l 2
 180 179 188 173 202 163 c 0
 216 153 228 144 235 136 c 1
 266 136 l 1x88
 315 108 l 1
 540 108 l 1
 540 155 l 2
 540 155 544 167 553 190 c 0
 562 213 566 234 565 252 c 2
 565 356 l 1x49
 563 368 560 380 557 392 c 0
 554 404 551 415 548 426 c 0
 544 442 544 442 542 448 c 2
 542 504 l 1
 510 549 l 1
 504 560 499 570 494 580 c 0
 489 590 486 597 484 601 c 0
 482 605 479 609 476 614 c 0
 473 619 470 623 466 627 c 0
 462 631 456 636 448 643 c 1
 441 646 429 654 412 664 c 0
 395 674 382 681 373 685 c 1
 329 685 l 1x62
 290 714 l 1
 153 714 l 2x12
EndSplineSet
EndChar

StartChar: p
Encoding: 112 112 83
Width: 942
Flags: HW
HStem: -443 89<384.626 420.953> 193 103<184.244 571.757> 210 86<184.244 562.218> 791 116<240.114 614.483>
VStem: 56 114<326.6 680.858> 715 127<425.86 667.534>
LayerCount: 2
Fore
SplineSet
238 296 m 0xdc
 247 296 255 296 264 296 c 0
 378 296 485 312 586 345 c 0
 603 351 618 361 632 375 c 0
 646 389 659 407 672 428 c 0
 685 449 696 464 704 472 c 0
 711 480 715 488 715 495 c 0
 715 502 715 512 712 522 c 0
 709 532 708 542 709 551 c 0
 711 565 710 578 706 590 c 0
 702 602 697 615 689 629 c 0
 681 643 676 652 674 658 c 0
 662 689 650 712 636 728 c 0
 622 744 601 756 575 765 c 0
 549 774 512 779 465 782 c 0
 453 783 439 783 423 785 c 0
 407 787 393 788 382 789 c 0
 371 790 358 791 344 791 c 0
 330 791 319 792 309 790 c 0
 299 788 290 786 280 782 c 0
 270 778 261 773 254 766 c 0
 247 759 241 749 236 738 c 0
 225 715 218 698 214 688 c 0
 210 678 203 663 196 642 c 0
 189 621 184 601 180 581 c 0
 176 561 174 538 172 513 c 0
 171 491 170 471 170 452 c 0
 170 402 175 359 184 325 c 0
 189 306 207 296 238 296 c 0xdc
393 -443 m 1
 385 -446 376 -443 368 -435 c 0
 360 -427 352 -416 345 -404 c 0
 338 -392 334 -386 333 -385 c 1
 333 -386 333 -388 333 -391 c 0
 333 -394 334 -396 334 -400 c 2
 334 -406 l 2
 335 -411 333 -412 329 -408 c 0
 318 -397 285 -348 230 -262 c 0
 180 -183 138 -84 105 34 c 0
 72 152 56 272 56 396 c 0
 56 504 79 626 126 762 c 0
 132 780 140 796 150 810 c 0
 160 824 170 835 182 845 c 0
 194 855 208 863 225 870 c 0
 242 877 259 883 275 887 c 0
 291 891 312 895 336 898 c 0
 360 901 383 903 403 904 c 0
 423 905 449 906 480 907 c 0
 484 907 485 907 490 907 c 0
 525 907 560 900 594 887 c 0
 631 872 665 852 694 826 c 0
 723 800 749 770 772 738 c 0
 795 706 812 672 824 636 c 0
 836 600 842 567 842 534 c 0
 842 422 786 333 675 267 c 0
 635 243 597 224 563 212 c 0
 529 200 488 193 440 193 c 2
 345 193 l 2xdc
 275 193 218 199 173 210 c 1xbc
 190 95 218 -7 259 -97 c 0
 300 -187 352 -272 417 -354 c 0
 418 -354 419 -352 419 -348 c 0
 419 -342 419 -342 419 -337 c 0
 419 -333 420 -332 421 -333 c 0
 425 -335 431 -344 438 -361 c 0
 445 -378 449 -390 449 -397 c 0
 449 -410 443 -421 432 -430 c 0
 421 -439 408 -443 393 -443 c 1
EndSplineSet
EndChar

StartChar: q
Encoding: 113 113 84
Width: 1052
Flags: HW
HStem: -452 103<732 894> 129 178<231.688 503.809> 720 154<167.152 422.417>
VStem: 35 83<383.141 666.983> 514 94<-51.3875 160> 936 109<-307 -235.52>
LayerCount: 2
Fore
SplineSet
486 578 m 2
 484 582 478 588 470 597 c 0
 462 606 456 616 450 624 c 0
 444 632 440 639 438 645 c 0
 421 695 382 720 321 720 c 0
 308 720 294 719 279 717 c 0
 261 714 245 711 233 708 c 0
 221 705 207 702 195 696 c 0
 183 690 172 682 164 673 c 0
 156 664 151 652 147 639 c 1
 127 607 118 570 118 530 c 0
 118 521 118 513 119 504 c 1
 118 497 118 491 118 484 c 0
 118 458 125 433 140 408 c 0
 159 377 186 352 222 333 c 0
 255 316 290 307 328 307 c 0
 332 307 332 307 336 307 c 0
 353 302 370 300 386 300 c 0
 403 300 418 302 434 307 c 0
 466 317 492 334 510 359 c 0
 525 380 533 403 533 429 c 0
 533 435 533 440 532 446 c 2
 486 578 l 2
35 598 m 1
 31 603 29 610 28 616 c 0
 27 622 26 628 27 634 c 0
 28 640 30 646 34 654 c 0
 38 662 41 669 44 674 c 0
 47 679 51 687 57 697 c 0
 63 707 67 714 70 718 c 0
 130 822 201 874 284 874 c 0
 327 874 367 867 403 852 c 0
 439 837 467 818 488 795 c 0
 524 756 544 723 548 694 c 2
 608 252 l 1
 608 10 l 1
 647 -157 l 1
 732 -352 l 1
 771 -350 815 -349 860 -349 c 0
 877 -349 876 -349 894 -349 c 1
 936 -307 l 1
 936 -264 l 1
 940 -245 952 -233 973 -227 c 0
 994 -221 1013 -224 1030 -235 c 0
 1047 -246 1052 -263 1045 -285 c 1
 1045 -343 l 2
 1044 -346 1043 -348 1040 -351 c 0
 1037 -354 1033 -357 1029 -360 c 0
 1025 -363 1022 -365 1020 -367 c 2
 955 -452 l 1
 710 -452 l 2
 702 -451 691 -447 676 -439 c 0
 661 -431 652 -425 650 -420 c 2
 546 -182 l 1
 514 2 l 1
 514 160 l 1
 508 151 486 144 448 138 c 0
 410 132 380 129 358 129 c 0
 325 129 297 138 274 155 c 1
 180 187 110 267 62 395 c 1
 61 401 57 417 48 442 c 0
 39 467 35 486 35 498 c 2
 35 598 l 1
EndSplineSet
EndChar

StartChar: r
Encoding: 114 114 85
Width: 692
Flags: HW
HStem: 283 128<404.196 545> 726 134<345.415 483.929>
VStem: 49 99<724.627 868.632> 154 108<-1.77434 645.961> 545 103<412.719 661.003>
LayerCount: 2
Fore
SplineSet
648 432 m 2
 648 347 623 297 573 283 c 1
 454 283 l 2
 441 282 429 287 420 295 c 0
 411 303 406 313 404 326 c 0
 402 339 402 352 404 365 c 0
 406 378 411 389 420 398 c 0
 429 407 439 411 451 411 c 2
 545 411 l 1
 545 537 l 2
 544 560 540 583 530 607 c 0
 520 631 507 653 492 672 c 0
 477 691 458 706 436 716 c 0
 421 723 406 726 390 726 c 0
 382 726 374 726 366 724 c 1
 340 702 319 677 303 650 c 0
 287 623 274 592 262 555 c 1
 262 41 l 1
 258 27 251 16 239 8 c 0
 227 0 214 -4 201 -4 c 0
 189 -4 178 3 168 16 c 0
 158 29 154 42 154 56 c 2
 154 536 l 1
 150 545 144 558 136 575 c 0
 128 592 122 606 118 616 c 0
 114 626 113 634 112 642 c 1
 70 727 49 780 49 800 c 0
 49 818 53 834 62 848 c 0
 71 862 83 869 97 869 c 0
 122 869 139 855 148 828 c 0
 159 795 177 755 201 707 c 1
 232 760 272 805 320 843 c 0
 335 854 359 860 390 860 c 0
 419 860 447 853 474 841 c 0
 501 829 524 812 545 790 c 0
 566 768 584 744 600 717 c 0
 616 690 628 661 636 630 c 0
 644 599 648 568 648 538 c 2
 648 432 l 2
EndSplineSet
EndChar

StartChar: s
Encoding: 115 115 86
Width: 636
Flags: HW
HStem: 5 127<194.818 426.536> 645 21G<453 475> 729 129<215.283 309 310 398.485>
VStem: 62 125<132.539 232.406> 72 133<523.397 712.836> 429 127<132.518 283.681>
LayerCount: 2
Fore
SplineSet
556 198 m 2xec
 556 193 556 187 556 182 c 0
 556 153 550 126 537 99 c 0
 522 68 499 43 468 25 c 0
 442 10 415 2 384 2 c 0
 378 2 371 2 365 3 c 2
 303 3 l 1
 303 5 l 1
 216 5 l 2
 196 5 179 8 166 12 c 0
 153 16 142 21 136 27 c 0
 130 33 121 42 111 55 c 0
 103 65 92 84 80 114 c 0
 68 144 62 166 62 180 c 0
 62 217 86 235 134 235 c 0
 135 235 134 235 136 235 c 0
 163 235 180 223 187 200 c 0
 199 160 208 137 212 132 c 1
 412 132 l 1
 417 143 422 157 426 174 c 0
 430 191 430 207 429 222 c 1
 429 244 l 1
 423 249 416 256 408 264 c 0
 400 272 393 277 390 280 c 0
 387 283 381 286 374 290 c 0
 367 294 358 299 348 303 c 0
 334 308 306 324 263 350 c 0
 220 376 195 394 187 403 c 0xf4
 178 413 171 420 166 424 c 0
 143 441 122 465 102 496 c 0
 82 527 72 557 72 588 c 0
 72 656 81 717 98 769 c 0
 104 786 118 802 142 817 c 1
 169 844 205 858 250 858 c 2
 309 858 l 1
 309 840 309 831 310 831 c 1
 310 858 l 1
 313 858 319 858 331 857 c 0
 343 856 353 856 362 856 c 0
 388 856 416 848 446 834 c 0
 476 820 497 804 508 787 c 0
 531 751 542 723 542 704 c 0
 542 687 534 673 518 662 c 0
 502 651 484 645 466 645 c 0
 440 645 418 669 399 717 c 1
 388 725 378 729 368 729 c 0
 360 729 361 729 346 729 c 0
 331 729 332 729 324 729 c 0
 316 729 316 729 301 729 c 0
 285 729 274 728 266 728 c 0
 258 728 250 726 240 724 c 0
 230 722 221 718 215 714 c 1
 210 689 206 675 205 672 c 1
 205 589 l 1
 212 572 221 557 232 543 c 0
 243 529 256 517 271 506 c 0
 286 495 300 485 312 478 c 0
 324 471 340 461 361 450 c 0
 382 439 398 429 410 422 c 0
 457 394 493 367 517 342 c 0
 541 317 554 292 556 265 c 1
 556 198 l 2xec
EndSplineSet
EndChar

StartChar: t
Encoding: 116 116 87
Width: 921
Flags: HW
HStem: 32 109<571.957 775.295> 977 105<355 596.32>
VStem: 248 102<601.426 977 1106 1297.11> 268 103<508.471 661.824 1107.17 1351.64> 305 115<1252.72 1436.46> 801 102<152.378 218.483>
LayerCount: 2
Fore
SplineSet
334 442 m 0xe4
 333 447 328 458 318 476 c 0
 308 494 298 511 290 530 c 0
 282 549 279 563 281 573 c 1
 281 601 l 1
 273 610 266 625 259 644 c 0
 252 663 248 679 248 692 c 2
 248 997 l 1xe4
 235 1005 216 1011 191 1016 c 0
 166 1021 144 1028 122 1035 c 0
 100 1042 84 1053 72 1067 c 0
 55 1087 43 1103 37 1115 c 0
 31 1127 27 1140 27 1155 c 0
 27 1169 32 1181 42 1191 c 0
 52 1201 64 1206 78 1206 c 0
 92 1206 103 1201 113 1192 c 0
 123 1183 128 1172 129 1159 c 1
 134 1148 142 1140 152 1134 c 0
 162 1128 171 1123 180 1122 c 0
 189 1121 201 1119 216 1116 c 0
 231 1113 243 1110 254 1106 c 1
 254 1107 254 1114 256 1127 c 0
 258 1140 261 1157 263 1177 c 0
 265 1197 267 1216 268 1233 c 0
 268 1235 268 1237 268 1239 c 0xd4
 268 1252 273 1273 285 1301 c 0
 298 1334 305 1354 305 1360 c 0
 305 1369 308 1377 315 1386 c 1
 315 1400 319 1411 326 1420 c 0
 333 1429 342 1435 352 1437 c 0
 362 1439 373 1439 383 1437 c 0
 393 1435 402 1429 409 1420 c 0
 416 1411 420 1401 420 1389 c 0xcc
 420 1374 418 1359 414 1343 c 0
 410 1327 404 1315 398 1304 c 0
 392 1293 387 1281 381 1268 c 0
 375 1255 372 1243 371 1233 c 1
 371 1212 l 1xd4
 361 1147 356 1104 355 1082 c 1
 527 1082 l 1
 546 1088 566 1094 588 1100 c 0
 610 1106 627 1111 637 1114 c 0
 647 1117 654 1119 658 1121 c 1
 669 1148 684 1161 702 1161 c 0
 718 1161 731 1157 743 1148 c 0
 755 1139 760 1128 760 1115 c 0
 760 1101 756 1085 746 1067 c 0
 736 1049 726 1038 715 1034 c 2
 654 1009 l 2
 653 1008 652 1008 649 1008 c 2
 551 977 l 1
 350 977 l 1
 350 663 l 1
 372 638 383 608 383 573 c 1
 385 566 392 553 402 535 c 0
 412 517 421 498 429 478 c 0
 437 458 441 441 440 427 c 1
 452 405 460 383 466 361 c 0
 472 339 478 320 484 305 c 0
 496 275 531 228 590 166 c 1
 598 149 626 141 675 141 c 2
 722 141 l 2
 743 141 761 144 776 152 c 0
 791 160 799 172 801 187 c 0
 802 201 807 213 817 222 c 0
 827 231 839 236 853 236 c 0
 868 236 880 230 890 219 c 0
 900 208 904 195 903 179 c 0
 900 146 888 117 866 92 c 0
 844 67 815 50 780 40 c 0
 762 35 743 32 724 32 c 0
 706 32 688 34 669 39 c 1
 601 39 549 59 514 98 c 0
 444 176 399 242 380 295 c 0
 378 301 374 312 368 328 c 0
 362 344 357 357 354 366 c 0
 351 375 346 387 342 401 c 0
 338 415 336 429 334 442 c 0xe4
EndSplineSet
EndChar

StartChar: u
Encoding: 117 117 88
Width: 1062
Flags: HW
HStem: 14 150<294.393 778.177> 845 20G<145.5 156.5 856.5 868.5>
VStem: 51 133<289.586 752.671> 67 119<285.727 752.671> 795 125<687.445 849.966> 855 129<243.1 739.952>
LayerCount: 2
Fore
SplineSet
51 638 m 2xe0
 51 687 57 730 70 764 c 0
 83 798 103 831 131 863 c 1
 137 864 143 865 148 865 c 0
 165 865 180 859 195 848 c 0
 215 833 225 815 225 795 c 0
 225 777 219 763 207 754 c 1
 192 726 184 675 184 603 c 2
 184 468 l 2xe0
 184 458 185 451 186 448 c 2
 186 398 l 1
 201 343 219 301 238 271 c 0
 257 241 287 211 328 181 c 0
 334 177 339 174 343 172 c 0
 347 170 354 167 362 166 c 0
 370 165 375 164 380 164 c 0
 385 164 395 164 411 164 c 0
 427 164 439 163 450 163 c 0
 492 161 492 162 534 160 c 0
 562 159 583 158 597 158 c 0
 611 158 621 157 625 157 c 2
 649 157 l 2
 667 157 684 159 701 164 c 0
 718 169 733 176 748 186 c 0
 763 196 776 205 785 213 c 0
 794 221 805 231 818 243 c 0
 818 245 821 256 825 278 c 0
 829 300 832 314 833 320 c 0
 834 326 837 338 840 357 c 0
 843 376 845 391 846 401 c 0
 847 411 849 423 851 438 c 0
 853 453 854 466 855 478 c 2
 855 522 l 2xd4
 855 572 840 644 811 738 c 0
 809 743 807 748 804 754 c 0
 801 760 799 766 797 772 c 0
 795 778 795 785 795 794 c 0
 795 807 803 821 819 835 c 0
 835 849 850 857 863 857 c 0
 874 857 884 853 894 845 c 0
 904 837 913 825 920 810 c 0xc8
 927 795 933 782 938 768 c 0
 943 754 948 738 954 719 c 0
 960 700 964 686 967 678 c 0
 978 645 984 612 984 578 c 2
 984 493 l 2
 984 492 984 489 984 485 c 0
 984 481 982 475 982 468 c 0
 982 461 982 453 982 446 c 0
 982 369 968 286 941 197 c 0
 938 186 934 177 931 172 c 0
 928 167 923 162 917 156 c 0
 911 150 906 143 901 137 c 0
 857 79 793 42 708 24 c 0
 675 18 634 14 584 14 c 0
 554 14 522 16 486 18 c 0
 390 24 318 34 270 49 c 0
 252 54 235 65 218 82 c 0
 201 99 182 122 161 152 c 0
 122 206 91 281 67 378 c 1
 67 406 l 1xd4
 56 447 51 482 51 510 c 2
 51 638 l 2xe0
EndSplineSet
EndChar

StartChar: v
Encoding: 118 118 89
Width: 950
Flags: HW
HStem: 867 20G<87 92 825.5 826.5>
VStem: 29 150<465.01 839.672> 755 139<425.484 859.373>
LayerCount: 2
Fore
SplineSet
726 470 m 0
 739 508 749 552 754 602 c 0
 757 628 758 654 758 680 c 0
 758 704 757 727 755 751 c 1
 755 843 l 2
 756 854 778 860 822 860 c 1
 823 878 825 887 826 887 c 0
 827 887 828 878 829 860 c 1
 870 860 891 855 892 844 c 0
 893 801 894 777 894 770 c 2
 894 649 l 2
 894 636 892 621 890 603 c 0
 888 585 885 564 881 540 c 0
 877 516 874 503 874 501 c 0
 870 477 861 445 844 406 c 0
 827 367 817 343 815 336 c 0
 798 284 779 246 758 222 c 1
 700 184 665 154 654 134 c 0
 640 106 613 84 575 66 c 0
 537 48 498 36 459 32 c 0
 447 31 436 30 425 30 c 0
 398 30 374 34 355 43 c 0
 329 55 304 76 281 107 c 0
 270 122 254 138 234 155 c 0
 214 172 200 189 190 206 c 1
 169 236 l 1
 175 232 l 1
 161 246 146 275 129 319 c 0
 127 325 121 338 112 360 c 0
 103 382 95 403 88 421 c 0
 81 439 76 455 73 469 c 0
 70 483 64 503 55 529 c 0
 46 555 40 579 36 601 c 0
 32 623 29 649 29 679 c 2
 29 792 l 2
 29 801 29 808 30 813 c 0
 31 818 34 822 38 825 c 0
 42 828 44 830 48 831 c 0
 52 832 57 834 66 837 c 0
 75 840 83 843 91 846 c 0
 93 846 100 845 112 844 c 0
 124 843 132 842 138 841 c 0
 144 840 152 839 160 837 c 0
 168 835 174 833 179 830 c 1
 179 704 l 2
 179 682 179 663 180 647 c 0
 181 631 182 618 182 608 c 0
 182 598 184 586 188 572 c 0
 192 558 195 548 196 544 c 0
 197 540 200 526 207 506 c 0
 214 486 219 472 221 464 c 0
 251 363 285 300 323 274 c 0
 340 261 364 240 395 210 c 0
 426 180 448 158 461 141 c 1
 476 156 507 179 554 211 c 0
 601 243 634 268 653 287 c 1
 661 300 668 314 676 331 c 0
 684 348 690 362 694 374 c 0
 698 386 703 402 710 424 c 0
 717 446 723 461 726 470 c 0
EndSplineSet
EndChar

StartChar: w
Encoding: 119 119 90
Width: 1144
Flags: HW
HStem: 16 106<732.336 879.379> 45 137<253.993 388> 394 82<480.609 587.851> 849 7G<214 227 881.5 894>
VStem: 29 144<257.755 593.368> 931 145<183.527 684.714>
LayerCount: 2
Fore
SplineSet
806 810 m 0xbc
 806 826 816 841 837 855 c 0
 858 869 875 876 888 876 c 0
 900 876 911 872 920 866 c 0
 929 860 936 853 941 845 c 0
 946 837 952 828 958 818 c 0
 964 808 970 800 975 795 c 0
 977 793 981 789 987 784 c 0
 993 779 996 775 997 773 c 0
 998 771 1001 769 1005 764 c 0
 1009 759 1012 755 1014 750 c 0
 1016 745 1019 739 1023 731 c 0
 1027 723 1031 714 1036 703 c 0
 1041 691 1048 677 1055 663 c 0
 1062 649 1066 639 1068 634 c 0
 1070 629 1072 620 1074 609 c 0
 1076 598 1076 584 1076 566 c 2
 1076 450 l 1
 1076 418 l 2
 1076 406 1075 397 1075 394 c 2
 1075 345 l 2
 1075 330 1073 309 1068 281 c 0
 1063 253 1060 235 1059 226 c 0
 1047 134 982 70 863 36 c 0
 816 23 776 16 742 16 c 0xbc
 712 16 687 21 667 31 c 0
 638 45 616 124 601 268 c 0
 596 319 592 350 588 360 c 1
 585 375 571 385 547 391 c 0
 538 393 529 394 520 394 c 0
 506 394 493 392 480 386 c 0
 460 377 452 363 457 344 c 0
 463 321 475 284 492 235 c 0
 509 186 520 154 524 140 c 0
 530 119 533 102 533 88 c 0
 533 70 528 58 519 52 c 0
 515 49 507 47 495 46 c 0
 483 45 472 44 462 44 c 2
 425 44 l 2
 411 44 402 45 399 45 c 2
 352 45 l 1
 352 41 l 1
 304 41 267 46 241 54 c 0
 215 62 190 79 167 105 c 0
 161 112 150 123 135 139 c 0
 120 155 108 167 100 176 c 0
 92 185 84 197 72 214 c 0
 60 231 52 247 46 262 c 0
 40 277 36 295 32 316 c 0
 30 330 29 344 29 358 c 0
 29 366 29 375 30 383 c 1
 30 419 l 1
 29 429 29 440 29 450 c 0
 29 469 30 486 32 504 c 0
 36 532 43 558 52 584 c 0
 61 610 69 632 77 650 c 0
 85 668 95 689 108 714 c 0
 121 739 129 758 134 769 c 0
 140 782 145 792 148 798 c 0
 151 804 155 812 160 820 c 0
 165 828 170 833 175 836 c 0
 180 839 187 843 194 845 c 0
 201 847 209 849 219 849 c 0
 235 849 252 841 272 827 c 0
 292 813 301 800 301 789 c 0
 301 763 289 725 264 677 c 0
 239 629 215 588 192 554 c 1
 189 553 185 533 180 493 c 0
 175 453 173 428 173 419 c 0
 173 369 175 337 178 322 c 0
 183 300 196 278 217 258 c 0
 224 252 232 246 241 238 c 0
 258 223 276 205 295 182 c 1
 388 182 l 1x7c
 390 189 l 1
 389 192 388 195 388 198 c 0
 388 207 392 214 392 220 c 0
 391 228 383 247 368 277 c 0
 353 307 346 327 346 337 c 0
 346 342 346 352 348 366 c 0
 350 380 351 392 352 401 c 0
 353 416 359 429 370 441 c 0
 381 453 396 462 413 468 c 0
 430 474 449 478 469 480 c 0
 489 482 508 480 527 475 c 1
 535 476 543 476 550 476 c 0
 620 476 666 450 686 398 c 0
 692 382 696 360 700 330 c 0
 704 300 707 279 710 268 c 1
 710 267 l 1
 714 255 719 232 725 200 c 0
 731 168 738 142 747 123 c 1
 750 123 753 122 756 122 c 0
 778 122 804 129 834 142 c 0
 868 157 891 171 904 183 c 1
 910 194 916 221 922 265 c 0
 928 309 933 338 938 351 c 1
 938 382 l 2
 938 386 936 395 934 408 c 0
 932 421 931 430 931 437 c 2
 931 555 l 2
 931 566 929 579 923 596 c 0
 917 613 911 631 903 649 c 0
 895 667 891 679 889 685 c 1
 861 707 839 734 824 765 c 0
 823 767 821 771 817 776 c 0
 813 781 811 786 809 791 c 0
 807 796 806 802 806 810 c 0xbc
EndSplineSet
EndChar

StartChar: x
Encoding: 120 120 91
Width: 1294
Flags: HW
HStem: 28 106<49.564 271.859> 800 124<1043.76 1171.25>
VStem: 574 140<331.383 500.591>
LayerCount: 2
Fore
SplineSet
31 77 m 0
 31 92 36 105 46 115 c 0
 56 125 69 132 84 134 c 0
 134 140 166 145 182 149 c 2
 260 174 l 1
 329 202 l 1
 346 213 373 230 412 252 c 0
 451 274 488 298 522 324 c 0
 538 336 556 372 574 432 c 1
 574 468 l 2
 574 469 575 473 576 480 c 0
 577 487 578 492 579 498 c 0
 580 504 579 511 578 519 c 1
 153 758 l 1
 140 762 125 769 110 779 c 0
 95 789 82 801 70 816 c 0
 58 831 52 844 52 858 c 0
 52 872 56 885 65 896 c 0
 74 907 84 914 96 918 c 0
 108 922 119 924 132 920 c 0
 145 916 155 909 162 897 c 1
 178 886 200 875 227 863 c 0
 254 851 279 837 302 820 c 0
 316 810 360 784 435 744 c 0
 510 704 550 683 556 679 c 2
 625 636 l 1
 631 634 640 628 652 616 c 0
 664 604 672 598 675 597 c 1
 687 601 701 613 718 632 c 0
 770 691 805 730 825 750 c 0
 881 806 941 847 1004 872 c 0
 1016 877 1030 881 1043 885 c 0
 1044 885 1044 887 1046 888 c 0
 1048 890 1049 890 1054 894 c 0
 1057 897 1061 899 1064 901 c 1
 1074 916 1088 923 1106 924 c 0
 1124 925 1139 919 1153 907 c 0
 1167 895 1174 880 1174 862 c 0
 1174 850 1170 839 1164 828 c 0
 1158 817 1149 808 1138 800 c 0
 1127 792 1116 786 1104 780 c 0
 1092 774 1080 769 1066 764 c 0
 1033 753 996 730 954 695 c 0
 912 660 880 627 858 597 c 0
 845 579 834 565 824 555 c 0
 814 545 800 533 781 518 c 0
 762 503 745 490 732 479 c 0
 720 469 714 458 714 447 c 2
 714 371 l 2
 713 350 715 335 719 326 c 0
 723 317 731 309 742 302 c 1
 752 291 762 282 770 275 c 0
 778 268 785 263 790 260 c 0
 795 257 802 254 812 249 c 0
 822 244 831 240 838 236 c 0
 853 226 882 217 924 210 c 0
 976 201 1018 193 1048 185 c 0
 1078 177 1100 168 1115 158 c 1
 1126 155 1138 152 1153 149 c 0
 1168 146 1180 144 1189 142 c 0
 1198 140 1207 138 1216 134 c 0
 1225 130 1233 124 1238 116 c 0
 1243 108 1246 97 1247 84 c 0
 1249 69 1243 55 1230 44 c 0
 1217 33 1203 28 1186 28 c 0
 1173 28 1154 30 1131 35 c 1
 1071 35 l 2
 1068 36 1063 40 1056 50 c 0
 1049 60 1044 66 1039 68 c 0
 1022 76 1000 83 972 89 c 0
 944 95 918 99 894 102 c 0
 870 105 844 111 818 118 c 0
 792 125 772 134 757 144 c 1
 716 161 670 195 620 245 c 1
 593 224 l 2
 556 194 522 170 491 151 c 0
 460 132 428 116 394 102 c 2
 312 69 l 2
 311 68 310 68 308 68 c 0
 306 68 305 68 305 67 c 2
 218 40 l 2
 206 36 188 32 164 28 c 1
 92 28 l 2
 75 28 61 32 49 41 c 0
 37 50 31 62 31 77 c 0
EndSplineSet
EndChar

StartChar: y
Encoding: 121 121 92
Width: 927
Flags: HW
HStem: -297 113<22.5647 113.296> 589 20G<800.5 817>
VStem: 59 124<450.19 563.342> 735 134<287.768 590.435>
LayerCount: 2
Fore
SplineSet
114 -277 m 1
 99 -290 83 -297 66 -297 c 0
 49 -297 34 -291 22 -279 c 0
 10 -267 3 -251 3 -231 c 0
 3 -211 12 -195 30 -184 c 1
 55 -184 l 2
 56 -184 57 -182 61 -180 c 0
 65 -178 68 -176 71 -174 c 0
 74 -172 78 -170 83 -167 c 0
 88 -164 93 -161 99 -159 c 0
 105 -157 110 -154 117 -152 c 0
 124 -150 132 -147 140 -145 c 0
 148 -143 156 -142 165 -141 c 0
 188 -138 212 -130 238 -114 c 0
 264 -98 291 -78 321 -54 c 0
 351 -30 372 -14 384 -6 c 0
 399 3 417 16 438 33 c 0
 459 50 472 61 478 65 c 1
 458 71 446 75 444 77 c 0
 365 123 316 154 296 170 c 0
 294 171 290 174 284 179 c 0
 278 184 273 188 269 191 c 0
 265 194 260 199 254 204 c 0
 248 209 243 214 237 220 c 0
 231 226 226 232 221 239 c 2
 160 317 l 2
 159 318 159 319 158 320 c 0
 157 321 156 322 156 322 c 2
 103 404 l 1
 101 411 94 428 80 454 c 0
 66 480 59 501 59 516 c 0
 59 534 64 550 76 564 c 0
 88 578 102 585 120 585 c 0
 138 585 153 579 165 567 c 0
 177 555 183 540 183 522 c 1
 187 516 191 509 193 501 c 0
 195 493 197 483 199 472 c 0
 201 461 201 454 202 450 c 1
 332 317 l 1
 376 276 442 227 530 168 c 1
 594 168 l 1
 616 189 631 205 640 214 c 0
 649 223 658 236 670 252 c 0
 682 268 691 285 697 302 c 0
 699 308 703 318 710 333 c 0
 717 348 723 361 727 374 c 0
 731 387 734 400 735 412 c 2
 735 553 l 2
 736 568 744 581 760 592 c 0
 776 603 792 609 809 609 c 0
 825 609 839 603 851 591 c 0
 863 579 869 564 869 548 c 2
 869 381 l 1
 860 372 849 350 835 315 c 0
 821 280 813 260 810 254 c 0
 805 245 798 230 790 211 c 0
 782 192 774 175 768 162 c 0
 762 149 753 134 741 118 c 0
 729 102 716 89 702 78 c 2
 304 -236 l 1
 274 -254 231 -263 174 -264 c 0
 168 -264 148 -268 114 -277 c 1
EndSplineSet
EndChar

StartChar: z
Encoding: 122 122 93
Width: 686
Flags: HW
HStem: 7 122<196.596 588.384> 37 117<404.519 633.22> 741 141<25.3413 180.804> 769 127<181.107 408.896>
VStem: 470 132<669.687 750.234>
LayerCount: 2
Fore
SplineSet
181 770 m 0x98
 177 769 162 764 136 755 c 0
 110 746 90 741 77 741 c 0
 63 741 50 750 37 766 c 0
 24 782 18 799 18 815 c 0
 18 829 26 842 43 854 c 0
 60 866 78 876 99 882 c 0x28
 120 888 139 891 157 892 c 0
 168 892 182 893 198 894 c 0
 214 895 224 896 227 896 c 2
 366 896 l 2
 425 896 465 885 486 864 c 1
 563 826 602 771 602 700 c 0
 602 688 601 677 597 666 c 0
 593 655 589 645 585 638 c 0
 581 631 573 623 563 613 c 0
 553 603 544 596 536 590 c 0
 528 584 516 576 500 565 c 0
 420 509 364 466 331 437 c 0
 316 424 299 407 280 386 c 0
 263 368 251 354 244 344 c 0
 237 334 227 319 215 299 c 0
 209 290 204 278 201 264 c 0
 198 250 195 232 192 209 c 0
 189 186 188 172 187 167 c 1
 188 161 191 155 195 149 c 1
 229 136 266 129 308 129 c 0
 319 129 335 129 356 129 c 0
 377 129 393 130 404 130 c 0
 415 130 431 129 452 129 c 0
 453 129 453 129 454 129 c 0x98
 471 129 495 133 524 141 c 0
 554 150 576 154 589 154 c 0
 601 154 612 146 622 130 c 0
 632 114 638 101 638 88 c 0
 638 76 634 66 626 56 c 0
 618 46 610 40 599 37 c 1x48
 589 30 570 23 542 17 c 0
 514 11 491 7 470 7 c 2
 309 7 l 2
 280 8 242 15 195 26 c 0
 148 37 119 48 107 60 c 0
 77 90 62 130 62 178 c 2
 62 241 l 1
 64 293 98 364 164 453 c 0
 177 470 190 486 203 498 c 0
 216 510 231 524 249 538 c 0
 267 552 281 564 293 576 c 0
 317 599 340 616 362 627 c 0
 376 633 388 640 399 648 c 0
 410 656 422 667 436 679 c 0
 450 691 461 701 470 708 c 1
 470 722 l 1
 434 747 414 760 411 763 c 1
 366 767 329 769 299 769 c 2
 239 769 l 2
 203 769 183 769 181 770 c 0x98
EndSplineSet
EndChar

StartChar: braceleft
Encoding: 123 123 94
Width: 581
Flags: HW
HStem: 3 110<338.016 458.481>
VStem: 170 85<363.284 859.465> 186 98<1322.24 1543.48> 194 103<172.569 824.031> 219 105<1025.18 1543.48> 240 98<113.708 363.184>
LayerCount: 2
Fore
SplineSet
297 365 m 1x90
 301 346 308 315 317 271 c 0
 326 227 333 194 338 169 c 1
 338 142 l 2
 338 141 340 140 343 138 c 0
 346 136 350 132 356 127 c 0
 362 122 368 118 373 113 c 1
 427 113 l 1
 445 110 458 98 464 78 c 0
 470 58 468 40 459 23 c 0
 448 4 432 -2 409 3 c 1
 339 3 l 2
 332 4 325 7 320 12 c 0
 315 17 310 23 305 31 c 0
 300 39 296 44 293 47 c 0
 258 79 240 110 240 138 c 2
 240 168 l 1x84
 237 181 232 202 224 230 c 0
 216 258 209 283 204 306 c 0
 199 329 196 351 194 374 c 1
 194 400 l 2x90
 194 408 186 529 170 763 c 1
 170 825 l 1xc0
 158 834 146 844 133 855 c 0
 120 866 110 874 102 880 c 0
 80 898 68 915 68 932 c 0
 68 936 69 940 70 944 c 0
 76 964 97 982 133 999 c 0
 162 1013 184 1030 198 1052 c 0
 212 1074 219 1104 219 1141 c 2
 219 1322 l 1x88
 216 1327 212 1335 206 1344 c 0
 200 1353 196 1361 192 1368 c 0
 188 1375 186 1382 186 1389 c 2
 186 1479 l 2
 186 1517 192 1549 203 1574 c 0
 214 1599 229 1617 248 1630 c 0
 267 1643 293 1654 325 1663 c 0
 342 1669 357 1666 371 1656 c 0
 385 1646 391 1632 391 1616 c 0
 391 1590 378 1573 352 1565 c 0
 325 1556 309 1549 302 1544 c 0
 289 1533 283 1514 284 1486 c 1
 284 1389 l 1xa0
 291 1369 299 1338 309 1294 c 0
 319 1250 324 1218 324 1199 c 2
 324 1134 l 2x88
 324 1085 314 1042 292 1006 c 0
 270 970 241 942 205 922 c 1
 207 920 212 915 222 907 c 0
 232 899 240 891 245 884 c 0
 250 877 253 870 255 862 c 1
 255 780 l 2xc0
 256 775 258 760 262 734 c 0
 266 708 270 686 272 668 c 0
 274 650 277 627 280 598 c 0
 283 569 286 538 288 506 c 0
 290 474 292 441 293 407 c 1
 296 396 297 382 297 365 c 1x90
EndSplineSet
EndChar

StartChar: bar
Encoding: 124 124 95
Width: 405
Flags: HW
HStem: 639 20G<161.5 360> 804 21G<313.5 376>
VStem: 96 205<149.508 389.635> 157 193<330.143 659> 170 206<829 1300.93>
LayerCount: 2
Fore
SplineSet
96 233 m 0xe0
 96 235 96 235 96 237 c 0xe0
 96 256 100 284 109 318 c 0
 119 355 128 392 138 431 c 0
 148 470 153 501 153 524 c 0
 153 560 154 586 157 603 c 0
 160 620 161 639 162 659 c 1
 360 659 l 1
 359 607 358 557 358 508 c 0
 358 472 356 439 350 409 c 0xd0
 344 379 335 346 324 310 c 0
 313 274 305 247 301 229 c 1
 301 213 298 195 291 173 c 0
 284 151 278 134 272 122 c 0
 266 110 257 93 244 70 c 0
 242 66 240 63 239 61 c 2
 215 29 l 2
 194 2 168 -12 137 -12 c 0
 111 -12 86 -3 64 15 c 0
 42 33 30 53 30 76 c 0
 30 83 29 90 30 96 c 0
 31 102 31 107 32 111 c 0
 33 115 35 120 37 125 c 0
 39 130 41 133 42 135 c 0
 43 137 45 140 49 146 c 0
 53 152 55 156 56 158 c 2
 78 194 l 2
 90 214 96 227 96 233 c 0xe0
39 1532 m 0
 39 1566 49 1594 67 1616 c 0
 85 1638 109 1650 139 1651 c 0
 166 1651 189 1642 208 1626 c 0
 227 1610 238 1590 242 1565 c 1
 258 1544 273 1515 286 1478 c 0
 299 1441 312 1397 325 1346 c 0
 338 1295 347 1262 351 1249 c 0
 352 1245 354 1237 358 1225 c 0
 362 1213 365 1203 367 1196 c 0
 369 1189 371 1180 373 1168 c 0
 375 1156 376 1145 376 1135 c 2
 376 804 l 1
 319 804 l 1
 308 807 296 811 280 816 c 0
 264 821 252 824 244 826 c 0
 236 828 230 829 225 829 c 2
 170 829 l 1
 170 1011 l 2xc8
 170 1072 168 1112 166 1132 c 0
 164 1151 160 1173 153 1199 c 0
 144 1233 138 1257 134 1271 c 0
 130 1285 123 1308 114 1340 c 0
 105 1372 96 1399 87 1420 c 0
 78 1441 68 1458 58 1472 c 0
 45 1490 39 1510 39 1532 c 0
EndSplineSet
EndChar

